<svg id="Слой_1" data-name="Слой 1" xmlns="http://www.w3.org/2000/svg" xmlns:xlink="http://www.w3.org/1999/xlink" viewBox="0 0 269.71 108.11">
  <defs>
    <style>
      .cls-1 {
        fill: none;
      }

      .cls-2 {
        clip-path: url(#clip-path);
      }

      .cls-3 {
        fill: #ffcb05;
      }

      .cls-4 {
        fill: url(#Безымянный_градиент_4);
      }

      .cls-5 {
        fill: url(#Безымянный_градиент_5);
      }

      .cls-6 {
        fill: url(#Безымянный_градиент_6);
      }
    </style>
    <clipPath id="clip-path" transform="translate(-398 -247.99)">
      <rect class="cls-1" x="398" y="248" width="269.69" height="108.11"/>
    </clipPath>
    <linearGradient id="Безымянный_градиент_4" data-name="Безымянный градиент 4" x1="519.25" y1="530.57" x2="519.25" y2="851.66" gradientTransform="matrix(1, 0, 0, -1, 0, 963.89)" gradientUnits="userSpaceOnUse">
      <stop offset="0" stop-color="#fff"/>
      <stop offset="1" stop-color="#adb8d3"/>
    </linearGradient>
    <linearGradient id="Безымянный_градиент_5" data-name="Безымянный градиент 5" x1="568.75" y1="530.57" x2="568.75" y2="851.66" xlink:href="#Безымянный_градиент_4"/>
    <linearGradient id="Безымянный_градиент_6" data-name="Безымянный градиент 6" x1="607.75" y1="530.57" x2="607.75" y2="851.66" xlink:href="#Безымянный_градиент_4"/>
  </defs>
  <title>25</title>
  <g class="cls-2">
    <g>
      <path class="cls-3" d="M398,321.91a35.08,35.08,0,0,1,4.58-17.42,56.6,56.6,0,0,1,9.95-12.34l9.55-9a10.9,10.9,0,0,0,2.49-4.57,19,19,0,0,0,.8-5.23,9.26,9.26,0,0,0-1.09-5.08,5.2,5.2,0,0,0-4.58-2,5,5,0,0,0-4.67,2.57q-1.48,2.58-1.49,8.65H398q0-10.14,5.17-16.25,5.86-6.95,17.21-7,9.25,0,15,4.9t5.77,13.56a26.31,26.31,0,0,1-2.19,11,33.16,33.16,0,0,1-5.57,8q-6,5.46-9.55,8.66-6.76,6.12-7.16,9.32h25.66V321.9H398Z" transform="translate(-398 -247.99)"/>
      <path class="cls-3" d="M463.83,266.92l-1.29,14.34a18.2,18.2,0,0,1,4.56-3.68,16.35,16.35,0,0,1,7.63-1.6q7.83,0,11.9,5.66t4.07,16.7q0,13.77-5.37,19.62-4.87,5.37-15.42,5.38-11.34,0-16.26-5t-4.92-16.74h15.12q0,5.94,1.28,8.21a4.57,4.57,0,0,0,4.34,2.26,4.22,4.22,0,0,0,4.19-2.69c.82-1.79,1.23-5.27,1.23-10.42q0-6.69-1.23-9.2a4.46,4.46,0,0,0-4.39-2.5,5,5,0,0,0-3.75,1.23,7.17,7.17,0,0,0-1.67,3.68H449.53l2-36.5h36.6v11.32H463.84Z" transform="translate(-398 -247.99)"/>
      <path class="cls-4" d="M503.91,264.12h38.58v57.79h-14.7V275.73h-9.6v19.15q0,15.93-3.27,21.8t-11,5.87a20.52,20.52,0,0,1-7.9-1.69v-10.4a4.31,4.31,0,0,0,1.53.4c.57.05,1.19.08,1.87.08q3.31,0,3.91-3.66t.6-21.92V264.12Z" transform="translate(-398 -247.99)"/>
      <path class="cls-5" d="M551.67,321.91V264.12h34.16v11H566.37V286.2h18v11h-18v13.78h19.46v11H551.67Z" transform="translate(-398 -247.99)"/>
      <path class="cls-6" d="M601.38,321.91V275.73H589.82V264.12h35.86v11.61H614.89v46.18Z" transform="translate(-398 -247.99)"/>
      <path class="cls-3" d="M642.66,336.2c-5.06,1.1-6.93,3.8-7.37,4.59-.77.11-1.49.19-2.13.25q2.12-1.55,4.1-3.25a69.78,69.78,0,0,0,6.27-6.25l.64-.73a22.62,22.62,0,0,1,5.45-4.69l.41-.25c13.47-1.42,13.55-15.76,13.55-15.76-1,2.77-4.43,3.74-9.17,7.55-4,3.24-4.5,6.5-4.55,7.4-.92.63-1.76,1.17-2.48,1.61.51-.71,1-1.43,1.49-2.16a60.49,60.49,0,0,0,4.32-7.69l.47-1c.16-.33.31-.67.45-1l.85-2c.27-.68.51-1.38.76-2.07.12-.35.26-.69.37-1l.33-1.05a7.41,7.41,0,0,1,1-2l2.4-3.54c12-6.27,6.82-19.64,6.82-19.64.12,2.93-2.75,5.11-5.76,10.39-2.56,4.5-1.79,7.7-1.51,8.55-.7,1-1.34,1.91-1.88,2.62l.17-.67c.2-.7.32-1.43.48-2.15l.22-1.08c.08-.36.15-.72.2-1.08.22-1.45.47-2.89.59-4.35l.11-1.09.06-.55,0-.55.11-2.19c0-1.29,0-2.58,0-3.87a19.16,19.16,0,0,1,1.05-6.8c.18-.51.34-1,.49-1.5,9.21-9.94-.17-20.79-.17-20.79,1.1,2.72-.87,5.74-1.93,11.72-.9,5.09.89,7.85,1.45,8.56-.44,1.69-.87,3.08-1.19,4a.49.49,0,0,0,0-.12l-.11-1.09c0-.36-.1-.72-.15-1.08l-.32-2.16-.43-2.15c-.07-.36-.14-.72-.22-1.07l-.27-1.06c-.26-1.12-.57-2.23-.91-3.33-.45-1.59-1-3.87-1.62-5.59a9,9,0,0,1-.52-2.5C654,250.09,640.72,248,640.72,248c2.63,1.3,3.16,4.86,6.35,10,2.52,4.09,5.44,5.13,6.55,5.38l.35.3.78,2a62.11,62.11,0,0,1,2.42,8.34l.24,1.06c.07.35.13.71.19,1.07l.37,2.14.12,1a36.73,36.73,0,0,0-2.48-4.17c-2-13.39-16.36-12.83-16.36-12.83,2.81.84,3.94,4.26,8,8.82,3.42,3.88,6.7,4.2,7.6,4.21,1.3,1.73,2.32,3.31,2.89,4.25a4.38,4.38,0,0,1,.65,1.95h0l.08,1.08a60.92,60.92,0,0,1,.08,8.65l-.17,2.16,0,.54-.07.54-.14,1.07c-.15,1.43-.44,2.85-.69,4.26-.06.36-.14.71-.22,1.06v0a37.44,37.44,0,0,0-1.11-4.47c2-13.4-11.89-17.05-11.89-17.05,2.44,1.62,2.52,5.23,5,10.77,2.13,4.71,5.17,6,6,6.25.51,1.42.9,2.65,1.17,3.6a6.93,6.93,0,0,1,0,4v0l-.6,2.07-.15.52-.17.51-.35,1-.35,1c-.12.34-.26.67-.39,1-.27.67-.52,1.34-.8,2l-.88,2c-.14.33-.3.65-.46,1l-.48,1q-1,2.08-2.25,4.08a35.1,35.1,0,0,0,.43-3.8c6.64-11.81-5-20.17-5-20.17,1.7,2.39.49,5.78.85,11.85.31,5.16,2.7,7.43,3.41,8,0,.9-.05,1.73-.09,2.45a9.57,9.57,0,0,1-1.71,5l0,0a61.69,61.69,0,0,1-5.36,6.7,66.43,66.43,0,0,1-6.21,5.89c-.64.53-1.3,1-2,1.54a37,37,0,0,0,2.09-3.87c10.5-8.55,2.73-20.61,2.73-20.61.71,2.85-1.66,5.56-3.55,11.34-1.6,4.92-.21,7.9.24,8.68-.08.18-.15.36-.22.54a16,16,0,0,1-6.23,7.33l0,0a60.35,60.35,0,0,1-7.55,4c-.66.28-1.29.59-2,.83l-2,.77,0,0c.75-.59,1.46-1.19,2.13-1.79,13-3.82,10.5-17.94,10.5-17.94-.45,2.9-3.69,4.48-7.67,9.08-3.39,3.91-3.26,7.2-3.14,8.1-.57.57-1.11,1.08-1.6,1.53a10.17,10.17,0,0,1-4.22,2.37h0a59.13,59.13,0,0,1-8.31,1.79c-1.64.23-3.28.39-4.92.5.81-.35,1.59-.72,2.32-1.11,11.09-.4,12-12.12,12-12.12-.94,2.21-3.83,2.81-7.92,5.66-3.48,2.42-4,5.06-4.13,5.79q-.71.42-1.32.75a9.33,9.33,0,0,1-4.41,1.16h0a68.1,68.1,0,0,1-8.45-.53h0a1.77,1.77,0,0,0-1.83,1,1.79,1.79,0,0,0,1.44,2.55,70.25,70.25,0,0,0,8.94.33,66,66,0,0,0,8.88-.9c1.77-.29,3.52-.67,5.25-1.12a12.85,12.85,0,0,1,7.14.21c9.8,9.35,20.79.14,20.79.14-2.74,1.06-5.72-1-11.69-2.11-5.08-1-7.87.77-8.58,1.32-1.18-.32-2.22-.65-3.06-.93,1-.34,2-.72,3-1.09l2.05-.86c.69-.27,1.35-.62,2-.92a63.94,63.94,0,0,0,7.75-4.34l.15-.1a8.49,8.49,0,0,1,4-1.38l.7-.06c12.69,4.75,19.17-8,19.17-8-2.1,2-5.64,1.37-11.58,2.66Z" transform="translate(-398 -247.99)"/>
    </g>
  </g>
</svg>
