<svg xmlns="http://www.w3.org/2000/svg" version="1.1" xmlns:xlink="http://www.w3.org/1999/xlink" xmlns:svgjs="http://svgjs.dev/svgjs" width="1920" height="1000" preserveAspectRatio="none" viewBox="0 0 1920 1000"><g mask="url(&quot;#SvgjsMask11999&quot;)" fill="none"><rect width="1920" height="1000" x="0" y="0" fill="rgba(108, 140, 199, 1)"></rect><circle r="95.27624875932457" cx="761.03" cy="776.96" stroke="rgba(119, 155, 223, 1)" stroke-width="1.59" stroke-dasharray="3, 3"></circle><path d="M1726.8 780.15a5.6 5.6 0 1 0-7.87 7.97 5.6 5.6 0 1 0 7.87-7.97zM1715.55 791.53a5.6 5.6 0 1 0-7.87 7.97 5.6 5.6 0 1 0 7.87-7.97zM1704.31 802.92a5.6 5.6 0 1 0-7.87 7.97 5.6 5.6 0 1 0 7.87-7.97zM1693.06 814.3a5.6 5.6 0 1 0-7.87 7.97 5.6 5.6 0 1 0 7.87-7.97zM1737.9 746.14a5.6 5.6 0 1 0-7.87 7.97 5.6 5.6 0 1 0 7.87-7.97zM1726.66 757.53a5.6 5.6 0 1 0-7.87 7.96 5.6 5.6 0 1 0 7.87-7.96zM1715.41 768.91a5.6 5.6 0 1 0-7.87 7.97 5.6 5.6 0 1 0 7.87-7.97zM1704.17 780.29a5.6 5.6 0 1 0-7.87 7.97 5.6 5.6 0 1 0 7.87-7.97zM1749.01 712.13a5.6 5.6 0 1 0-7.87 7.97 5.6 5.6 0 1 0 7.87-7.97zM1737.77 723.52a5.6 5.6 0 1 0-7.88 7.96 5.6 5.6 0 1 0 7.88-7.96zM1726.52 734.9a5.6 5.6 0 1 0-7.87 7.97 5.6 5.6 0 1 0 7.87-7.97zM1715.28 746.28a5.6 5.6 0 1 0-7.87 7.97 5.6 5.6 0 1 0 7.87-7.97z" fill="rgba(152, 179, 229, 1)"></path><rect width="516" height="516" clip-path="url(&quot;#SvgjsClipPath12000&quot;)" x="269.02" y="251.74" fill="url(&quot;#SvgjsPattern12001&quot;)" transform="rotate(121.54, 527.02, 509.74)"></rect><circle r="83.33333333333333" cx="1578.71" cy="379.52" fill="rgba(152, 179, 229, 1)"></circle><circle r="108.96986668943526" cx="180.6" cy="712.28" stroke="rgba(152, 179, 229, 1)" stroke-width="1" stroke-dasharray="3, 3"></circle><rect width="153" height="153" clip-path="url(&quot;#SvgjsClipPath12002&quot;)" x="1248.18" y="-6.13" fill="url(&quot;#SvgjsPattern12003&quot;)" transform="rotate(188.04, 1324.68, 70.37)"></rect><path d="M306.03 514.69a5.6 5.6 0 1 0-4.6-10.21 5.6 5.6 0 1 0 4.6 10.21zM299.45 500.11a5.6 5.6 0 1 0-4.6-10.21 5.6 5.6 0 1 0 4.6 10.21zM292.88 485.52a5.6 5.6 0 1 0-4.6-10.21 5.6 5.6 0 1 0 4.6 10.21zM286.31 470.93a5.6 5.6 0 1 0-4.61-10.21 5.6 5.6 0 1 0 4.61 10.21zM333.76 537.29a5.6 5.6 0 1 0-4.6-10.21 5.6 5.6 0 1 0 4.6 10.21zM327.19 522.71a5.6 5.6 0 1 0-4.6-10.21 5.6 5.6 0 1 0 4.6 10.21zM320.62 508.12a5.6 5.6 0 1 0-4.61-10.21 5.6 5.6 0 1 0 4.61 10.21zM314.04 493.53a5.6 5.6 0 1 0-4.6-10.21 5.6 5.6 0 1 0 4.6 10.21zM361.5 559.89a5.6 5.6 0 1 0-4.6-10.21 5.6 5.6 0 1 0 4.6 10.21zM354.92 545.31a5.6 5.6 0 1 0-4.6-10.21 5.6 5.6 0 1 0 4.6 10.21zM348.35 530.72a5.6 5.6 0 1 0-4.6-10.21 5.6 5.6 0 1 0 4.6 10.21zM341.78 516.13a5.6 5.6 0 1 0-4.61-10.21 5.6 5.6 0 1 0 4.61 10.21z" stroke="rgba(119, 155, 223, 1)" stroke-width="1.2" stroke-dasharray="4, 4"></path><path d="M1234.76 173.07 L1027.74 321.4L1016.0151337858656 132.00013378586556z" stroke="rgba(119, 155, 223, 1)" stroke-width="1" stroke-dasharray="3, 2"></path><rect width="403.84" height="403.84" clip-path="url(&quot;#SvgjsClipPath12004&quot;)" x="1003.28" y="332.47" fill="url(&quot;#SvgjsPattern12005&quot;)" transform="rotate(326.98, 1205.2, 534.39)"></rect></g><defs><mask id="SvgjsMask11999"><rect width="1920" height="1000" fill="#ffffff"></rect></mask><pattern x="0" y="0" width="6" height="6" patternUnits="userSpaceOnUse" id="SvgjsPattern12001"><path d="M0 6L3 0L6 6" stroke="rgba(119, 155, 223, 1)" fill="none"></path></pattern><clipPath id="SvgjsClipPath12000"><circle r="129" cx="527.02" cy="509.74"></circle></clipPath><pattern x="0" y="0" width="153" height="8.5" patternUnits="userSpaceOnUse" id="SvgjsPattern12003"><rect width="153" height="4.25" x="0" y="0" fill="rgba(152, 179, 229, 1)"></rect><rect width="153" height="4.25" x="0" y="4.25" fill="rgba(0, 0, 0, 0)"></rect></pattern><clipPath id="SvgjsClipPath12002"><circle r="38.25" cx="1324.68" cy="70.37"></circle></clipPath><pattern x="0" y="0" width="403.84" height="12.62" patternUnits="userSpaceOnUse" id="SvgjsPattern12005"><rect width="403.84" height="6.31" x="0" y="0" fill="rgba(119, 155, 223, 1)"></rect><rect width="403.84" height="6.31" x="0" y="6.31" fill="rgba(0, 0, 0, 0)"></rect></pattern><clipPath id="SvgjsClipPath12004"><circle r="100.96" cx="1205.2" cy="534.39"></circle></clipPath></defs></svg>