<?xml version="1.0" encoding="utf-8"?>
<!-- Generator: Adobe Illustrator 27.6.1, SVG Export Plug-In . SVG Version: 6.00 Build 0)  -->
<svg version="1.1" id="Layer_1" xmlns="http://www.w3.org/2000/svg" xmlns:xlink="http://www.w3.org/1999/xlink" x="0px" y="0px"
	 viewBox="0 0 400 600" style="enable-background:new 0 0 400 600;" xml:space="preserve">
<style type="text/css">
	.st0{clip-path:url(#SVGID_00000179610309191139538340000015821533278141175225_);}
	.st1{clip-path:url(#SVGID_00000018225554503687305680000009442259290216298626_);}
	.st2{clip-path:url(#SVGID_00000042709191908441949730000015988095112351986563_);fill:#EEEDF6;}
	.st3{fill:#EBC0A0;}
	.st4{fill:#3F3F3F;}
	.st5{fill:#D0D0CF;}
	.st6{fill:#464646;}
	.st7{fill:#FBC4AE;}
	.st8{fill:#313131;}
	.st9{fill:#FFFFFF;}
	.st10{fill:#F8A382;}
	.st11{fill:#DE344B;}
	.st12{fill:#191919;}
	.st13{fill:#832D30;}
	.st14{fill:#777777;}
	.st15{opacity:0.3;fill:#FFFFFF;enable-background:new    ;}
	.st16{fill:#123A50;}
	.st17{fill:none;stroke:#313131;stroke-width:0.7087;stroke-miterlimit:10;}
	.st18{clip-path:url(#SVGID_00000078027425428296909730000002826538558082237594_);}
	.st19{fill:#358FC9;}
	.st20{fill:#DBA182;}
	.st21{fill:#E5AD88;}
	.st22{fill:#F2BA94;}
	.st23{fill:#D8A17C;}
	.st24{fill:#F9DAC5;}
	.st25{fill:#D89D7C;}
	.st26{fill:#DAC9C1;}
	.st27{fill:#F4E9E4;}
	.st28{opacity:0.52;fill:#975646;enable-background:new    ;}
	.st29{clip-path:url(#SVGID_00000018225554503687305680000009442259290216298626_);fill:none;}
	.st30{clip-path:url(#SVGID_00000078746797461990074250000007116566509893714876_);}
	.st31{fill:#AD6455;}
	.st32{fill:#FFD17A;}
	.st33{fill:#C3846A;}
	.st34{clip-path:url(#SVGID_00000129919641913211997470000003081003588765864619_);}
	.st35{fill:#905446;}
	.st36{clip-path:url(#SVGID_00000100373005989730022390000008049510952683246783_);}
	.st37{fill:none;stroke:#FBAD18;stroke-width:0.7087;stroke-miterlimit:10;}
	.st38{fill:#FBAD18;}
	.st39{fill:#FECC57;}
	.st40{clip-path:url(#SVGID_00000018225554503687305680000009442259290216298626_);fill:#F8A382;}
	.st41{clip-path:url(#SVGID_00000018225554503687305680000009442259290216298626_);fill:#313131;}
	.st42{clip-path:url(#SVGID_00000018225554503687305680000009442259290216298626_);fill:#5E342C;enable-background:new    ;}
</style>
<g>
	<defs>
		<path id="SVGID_1_" d="M382,600H18c-10,0-18-8.1-18-18V18C0,8.1,8.1,0,18,0H382c10,0,18,8.1,18,18V582
			C400,591.9,391.9,600,382,600z"/>
	</defs>
	<defs>
		<rect id="SVGID_00000166648672670187661310000005649403643916733098_" width="400" height="600"/>
	</defs>
	<clipPath id="SVGID_00000181073930827883656920000017611578824248151968_">
		<use xlink:href="#SVGID_1_"  style="overflow:visible;"/>
	</clipPath>
	
		<clipPath id="SVGID_00000025429546930335645230000003998018659051238800_" style="clip-path:url(#SVGID_00000181073930827883656920000017611578824248151968_);">
		<use xlink:href="#SVGID_00000166648672670187661310000005649403643916733098_"  style="overflow:visible;"/>
	</clipPath>
	<g style="clip-path:url(#SVGID_00000025429546930335645230000003998018659051238800_);">
		<defs>
			<path id="SVGID_00000065075191434738477170000014962672704862464409_" d="M382,600H18c-10,0-18-8.1-18-18V18C0,8.1,8.1,0,18,0
				H382c10,0,18,8.1,18,18V582C400,591.9,391.9,600,382,600z"/>
		</defs>
		<clipPath id="SVGID_00000112629463711340358460000000543947017986627255_">
			<use xlink:href="#SVGID_00000065075191434738477170000014962672704862464409_"  style="overflow:visible;"/>
		</clipPath>
		
			<rect style="clip-path:url(#SVGID_00000112629463711340358460000000543947017986627255_);fill:#EEEDF6;" width="400" height="600"/>
	</g>
	<g style="clip-path:url(#SVGID_00000025429546930335645230000003998018659051238800_);">
		<path class="st3" d="M233.6,265.9c0,0,6.3-3.9,4.8-8.1c-1.5-4.1,13.8-16.2,13.8-16.2l17.8,33.6l-11.7,9.6l-6.1,1.8l-19.9-3.6
			L233.6,265.9z"/>
		<path class="st4" d="M269.6,190c0,0-16.3,8.3-17.4,20.7c-1.1,12.4,2.7,93.1,2.7,93.1l-48.1,33.6l28.5,28.5l54.9-26l-13.5-134.8
			L269.6,190z"/>
		<g>
			<g>
				<path class="st5" d="M212.3,285.2l21.3-19.4l18.6,20.8l-18,17.1C234.2,303.8,220.6,292.5,212.3,285.2z"/>
				<path class="st6" d="M221.5,266.7c-3.2,3.1-10.2,10.6-12.8,13.2l-48.6-74.1c0,0-10-4.3-19,9.7c-10.3,16.1,2.9,66.9,2.9,66.9
					s13.2,16.7,32.9,34c1.3,1.1,22.3,20.5,35.8,9.6c8.1-6.6,24.8-20.8,32-28.5C236.9,287.8,226.2,278,221.5,266.7z"/>
			</g>
			<g>
				<path class="st7" d="M392.8,182.2c-3.5,15.6-7,29.9-10.4,43.3H303c-3.1-14.4-6.6-30-10.5-46.9c8.1-4.1,18.9-5.4,22.5-12.6
					c1.3-2.6,1.7-12.3,1.8-17.3c0.1-9.2-0.6-15.3-0.6-15.3h43.7c0,0-1,13.2-0.4,23.4c0.3,5.5,1.1,10.2,2.8,11.8
					C367.4,173.6,382.5,177.3,392.8,182.2z"/>
				<path class="st8" d="M411.5,524.1c0.6-44.2-0.2-86.5,0.1-92.6c1.1-27.7-2.1-50.1-2.1-50.1l-70.4-22.2l-7,108.6
					c0,0,2.5,25.4,5.5,56.3L411.5,524.1L411.5,524.1z"/>
				<path class="st8" d="M259.6,524.1h79.2c1.6-10.3,2.7-17,2.7-17l-9.5-148l-70.4,22.2c0,0-3.2,22.4-2.1,50.1
					C259.7,437.6,259,479.9,259.6,524.1z"/>
				<path class="st9" d="M268.9,431.8c50.9-0.9,88.9,7,139.1,0.6c-1.7-46.9-1.7-115.2,2.4-146.2c5.8-44.2,9.2-79.7,9.2-79.7
					l-43.3-21.8l-4.1,9.1l-29.9,12.7l-22.5-12.7l-13-11.3l-34.5,24c0,0-7.9,35.5-2.1,79.7C274.1,316.9,271.1,386.2,268.9,431.8z"/>
				<path class="st10" d="M315,166.1c-0.2,0.5-0.5,1-0.9,1.4c14.1,1.1,35.4-1.7,45.4-9.1c0-0.5-0.1-1-0.1-1.5
					c-0.6-10.2,0.4-23.4,0.4-23.4h-43.7c0,0,0.8,6.1,0.6,15.3C316.6,153.8,316.3,163.4,315,166.1z"/>
				<polygon class="st11" points="344.6,215.6 354.2,347.9 336.9,364 317.2,348.8 330.2,215.6 				"/>
				<polygon class="st11" points="354.1,204.5 344.6,215.6 330.2,215.6 319.5,200.7 337.8,198.7 				"/>
				<path class="st6" d="M264.5,231.3c4.4,44.6-2,80.8-2.7,121.8c-0.4,27.3-5.2,103.4-5.2,103.4s26.1,0.2,54.9-12.4
					c19.4-8.5,17.2-11.4,16.1-76.4c-0.8-48.6-26.5-108.7-29.5-141.4c-1.2-13.7,3.6-52.4,3.6-52.4l-32.1,16L264.5,231.3z"/>
				<path class="st6" d="M415.8,226.9c-1.3,41-0.2,60.2-1,67.9c-2.8,26.6-5.4,41.5-5.2,64.5c0.3,48.5,5.9,95.2,5.9,95.2
					s-45.8,2.1-61.3-17.8c-12.5-15.9-13.2-65-11.4-85.7c1-11.7,19.3-67.3,25.6-109.6c5.5-37.1,1.4-69.9,1.4-69.9l39.5,17.1
					L415.8,226.9z"/>
				<path class="st9" d="M300.7,174.8l9-4.2c0,0,4.2,7.2,7.2,10.8c13.5,16,20.9,17.4,20.9,17.4s-13.8,18.4-20.2,16.9
					C305.8,212.9,300.7,174.8,300.7,174.8z"/>
				<path class="st9" d="M369.8,173.1l-4.6-4.5c0,0-5.8,9.8-8.7,13.2c-13.2,15.7-20.5,17.1-20.5,17.1s13.5,18,19.8,16.6
					C367.4,213,369.8,173.1,369.8,173.1z"/>
				<path class="st12" d="M356.5,367.7c0,2.5-2,4.6-4.6,4.6s-4.6-2-4.6-4.6s2-4.6,4.6-4.6C354.4,363.1,356.5,365.2,356.5,367.7z"/>
				<circle class="st12" cx="356.1" cy="403.4" r="4.6"/>
				<g>
					<g>
						<path class="st7" d="M367.8,113.2c0,0-0.4-12.6,9.3-12.1c6.2,0.3,6.6,6.5,1.6,14.3c-2.1,3.3-2.4,10.9-4.9,13.3
							c-3.1,2.9-5.6-1.7-6.5-3.8C365.8,121.5,367.8,113.2,367.8,113.2z"/>
					</g>
					<path class="st10" d="M373.1,106.7c1.7-2.8,3.7-0.9,4.6,1.7c0.9,2.6-1.1,6-1.1,6s1.1-4.7-0.5-6s-5.7,2.3-4.3,5.6
						c1.4,3.3,3.4,3.6,2.2,5.3c-1.3,1.7,0.1,3.5-2,4.3c-2.2,0.8-1.1-0.6-1.3-4.6c-0.1-4-0.1,0,0.1-4
						C371,111,371.7,109.1,373.1,106.7z"/>
					<g>
						<path class="st7" d="M308.2,113.2c0,0,0.4-12.6-9.3-12.1c-6.2,0.3-6.6,6.5-1.6,14.3c2.1,3.3,2.4,10.9,4.9,13.3
							c3.1,2.9,5.6-1.7,6.5-3.8C310.2,121.5,308.2,113.2,308.2,113.2z"/>
					</g>
					<path class="st10" d="M302.1,106.7c-1.8-2.8-4.1-0.9-5.1,1.7c-1,2.6,1.3,6,1.3,6s-1.3-4.7,0.6-6c1.8-1.2,6.3,2.3,4.8,5.6
						c-1.5,3.3-3.8,3.6-2.4,5.3c1.4,1.7-0.1,3.5,2.2,4.3c2.4,0.8,1.3-0.6,1.4-4.6c0.1-4,0.1,0-0.1-4
						C304.4,111,303.6,109.1,302.1,106.7z"/>
				</g>
				<g>
					<path class="st7" d="M375.2,94.5c-0.3,4.1-1.1,6.8-2.2,12.9c-0.3,1.5,1.6,21.4-8.8,38.8c-2.8,4.7-14.7,17.8-27.7,18.1
						c-5.7,0.1-24.4-10.3-29.5-26.1c-1-3.2-3-10.5-4.6-27.8c-0.2-1.8-0.4-3.3-0.6-4.6c-0.9-6-1.7-8.4-1.9-12.5
						C299.3,80.4,313.4,62,338,62.4C367,62.8,376.1,81.7,375.2,94.5z"/>
					<path class="st13" d="M376,108c-2.3,3.5-4.8,3.6-4.8,3.6l-1.4-3.7c3.8-10.7-4.1-14.3-4.1-21.8l-6.5-7.6l-5-5.9l11-10
						c5.1,1,10.2,4.2,13.3,10.4c1.9,3.7,3,8.4,3,14.3C381.4,87.7,381.9,99.2,376,108z"/>
					<path class="st13" d="M312.4,71.8l6.8,0.2l-11.7,14.4c-1,6.7-0.3,13.1-3.4,18.9l-0.2,0.3l-2.3,4.4c0,0-5.7-8.2-6-18.6
						c-0.4-13.2,5.8-23.2,9.8-23.8L312.4,71.8z"/>
					<path class="st13" d="M324.5,53.1c33.1-8.3,40.6,9.4,40.6,9.4s-5.3,6.1-8.5,9.4c-4.5,4.7-8.9,6.9-24.6,6.4
						c-15.8-0.5-26.6,10.3-26.8,10.6c0,0,6.7-13.6,6.7-13.6S309.9,56.8,324.5,53.1z"/>
					<path class="st13" d="M365.1,62.6c0,0-1.7-12.5-21.3-13.9c-12.9-0.9-24.9,2.5-31.9,7c-13.9,9.1-21.5,7.1-21.5,7.1
						s10.5,17.3,24.6,10.4c12.6-6.2,28.5-1.9,33.5-3.1C356.6,68.3,365.1,62.6,365.1,62.6z"/>
					<path class="st13" d="M311.9,74.4c-7.1,8.1-6.7,14.7-6.7,14.7s4.4-8.3,13.2-12.4c8.8-4.1,12.5-4.2,20.9-4.7
						c11-0.6,17.3-6.1,17.3-6.1S328.9,55,311.9,74.4z"/>
					<path class="st13" d="M376,108c-2.3,3.5-4.8,3.6-4.8,3.6l-1.4-3.7c2-10-2-14.6-5.3-20l-15.1-12.7c0.2-1.5,4.7-3.6,4.7-3.6
						c5.3,2.3,16.7,9.8,17.6,23.1c0,0,7.6-15.2,6.2-21.7c0,0,0.2-0.1,0.6,0c1.9,3.7,3,8.4,3,14.3C381.4,87.7,381.9,99.2,376,108z"/>
				</g>
				<path class="st8" d="M311.8,169.9c0,0-9.3,19.5-3.1,56.5c4,23.4,9.1,44.3,13.1,62.7c10.5,48.5,5.7,78.6,5.7,78.6l-37.3-140.9
					l7.6-11.5l-15.2-9c0,0,12.2-26.5,18.1-31.6C306.5,169.6,311.8,169.9,311.8,169.9z"/>
				<path class="st8" d="M365.2,168.6c0,0,5.9,23.2,0,62c-5.9,38.9-16.6,73.8-19.1,87.4c-3.4,18.5-4.1,47.8-4.1,47.8
					s37-128.5,45.2-145.7l-8.4-7.8l9.5-9c0,0-9.1-24.3-15-29.4C367.6,168.8,365.2,168.6,365.2,168.6z"/>
				<circle class="st14" cx="351.6" cy="112.7" r="2.7"/>
				<path class="st10" d="M345.9,111.7c0,0,7.7-5.2,16.4,0C354.1,111,345.9,111.7,345.9,111.7z"/>
				<circle class="st14" cx="318.6" cy="112.7" r="2.7"/>
				<path class="st10" d="M312.9,111.7c0,0,7.7-5.2,16.4,0C321.1,111,312.9,111.7,312.9,111.7z"/>
				<g>
					<path class="st15" d="M363.8,113.6c-1,4.8-4.9,5.4-10.5,5.4c-7.8,0-8.1-2.2-8.8-5.6c-0.7-3.3-0.7-6-0.4-6.7
						c0.7-1.9,2.8-2,9-2.1s9.6-0.2,10.6,0.8C364.6,106.3,364.8,108.6,363.8,113.6z"/>
					<g>
						<path class="st15" d="M311.6,105.3c1-1,4.4-0.9,10.6-0.8c6.2,0.1,8.2,0.2,9,2.1c0.3,0.7,0.3,3.4-0.4,6.7
							c-0.7,3.3-1,5.6-8.8,5.6c-5.7,0-9.6-0.6-10.5-5.4C310.4,108.6,310.6,106.3,311.6,105.3z"/>
						<path class="st16" d="M370.5,104.2c-0.1-1.5-6.8-2.2-11.7-2.3c-4.8-0.1-13-0.4-15.8,0.7c-2.6,1-2.1,2-5.4,2c-2.8,0-3-1-5.5-2
							c-2.9-1.1-11-0.8-15.8-0.7s-11.5,0.8-11.7,2.3c-0.1,0.8,0,1.9,0.3,2.9c0.2,0.8,2.6,1.2,3,1.5c0.9,0.5,0.6,2.9,2,6.5
							c1.8,4.6,6.1,5.6,14.8,4.8c8-0.7,7.8-6.7,8.8-9.2c0.9-2.1,0.4-2.8,4-2.8c3.5,0,3,0.7,3.9,2.8c1,2.5,0.8,8.4,8.8,9.2
							c8.7,0.8,13-0.2,14.8-4.8c1.4-3.6,1.1-6,2-6.5c0.4-0.2,2.8-0.7,3-1.5C370.5,106.1,370.6,105,370.5,104.2z M330.7,113.3
							c-0.7,3.3-1,5.6-8.8,5.6c-5.7,0-9.6-0.6-10.5-5.4c-1-5-0.8-7.3,0.2-8.3s4.4-0.9,10.6-0.8c6.2,0.1,8.2,0.2,9,2.1
							C331.4,107.3,331.5,110,330.7,113.3z M363.8,113.6c-1,4.8-4.9,5.4-10.5,5.4c-7.8,0-8.1-2.2-8.8-5.6c-0.7-3.3-0.7-6-0.4-6.7
							c0.7-1.9,2.8-2,9-2.1s9.6-0.2,10.6,0.8C364.6,106.3,364.8,108.6,363.8,113.6z"/>
					</g>
				</g>
			</g>
			<g>
				<path class="st6" d="M392.5,319c1.8-29.3,0.8-59.8,2.6-79.7c4.2-46.2,14.1-50.7,14.1-50.7s16.5,7.7,24.5,53.4
					c2.2,12.8,9.3,40.3,6,77.9c-2.5,28.3-7.5,32.1-15.3,35.6c-10.7,4.8-31.4,9.8-41.4,3.3C388.3,340.3,392.3,344.8,392.5,319z"/>
				<path class="st17" d="M406.3,316.2c-1.7-25.9-2.3-51.8-1.8-77.7"/>
			</g>
		</g>
		<g>
			<defs>
				<path id="SVGID_00000025408013413841917070000009378472070046149558_" d="M382,600H18c-10,0-18-8.1-18-18V18C0,8.1,8.1,0,18,0
					H382c10,0,18,8.1,18,18V582C400,591.9,391.9,600,382,600z"/>
			</defs>
			<clipPath id="SVGID_00000027593890754463437120000013682533922606322818_">
				<use xlink:href="#SVGID_00000025408013413841917070000009378472070046149558_"  style="overflow:visible;"/>
			</clipPath>
			<g style="clip-path:url(#SVGID_00000027593890754463437120000013682533922606322818_);">
				<path class="st8" d="M164.8,550.8c0-21.8-0.3-38-0.1-42.4c1.1-30.7-2.1-55.6-2.1-55.6l-52.2-1.6l-27.6,97.6c0,0,0.1,0.7,0.2,2.1
					H164.8z"/>
				<path class="st8" d="M107.5,550.8c11.9-51,22.6-97.5,22.6-97.5l-122.6-1c0,0-4.6,43.6-7.4,98.5H107.5z"/>
				<path class="st7" d="M61.9,115.1c0,0-6.8,46.2-8.2,49.1c-3.2,6.4-22.7,25.7-22.7,25.7s59.6,28,77.5,28s11.6-35.8,11.6-35.8
					s-12.6-7.1-15.1-12.1c-3.7-7.4-9.5-41.1-9.5-41.1L61.9,115.1z"/>
				<path class="st10" d="M102.5,170.2c-7.3-1.4-14.5-3.2-21.5-5.7c-1.3-0.4-2.5-0.9-3.8-1.4c-2.9-1.4-5.7-2.8-8.4-4.4
					c-1-0.6-6.3-4.2-6.6-4.2c-1.8-1.5-3.5-3.1-5.2-4.7c-0.1-0.1-0.3-0.2-0.4-0.4c2.4-14.5,5.3-34.4,5.3-34.4L95.6,129
					c0,0,5.8,33.7,9.5,41.1c0.1,0.2,0.2,0.4,0.4,0.6C104.2,170.5,103,170.3,102.5,170.2z"/>
				<path class="st9" d="M92.7,460.8c20.8-0.9,44.9-2.1,65-7.3c-0.3-63.6-2.7-177.3-4.6-190.9c-2.9-21.1-5.2-50-5.2-50L123.1,181
					L100,200.8l-59.7-26.2l-26,24.3c21.3,84.5-2.2,169.6,0,256.5C28,456.9,36.8,463.1,92.7,460.8z"/>
				<path class="st19" d="M104.4,217.8c0,0,16.1,126,16.1,141.6c0,7-16.3,25.3-16.3,25.3s-16-19-16.7-25.3s6.3-140.9,6.3-140.9
					L104.4,217.8z"/>
				<polygon class="st19" points="114,198.8 104.4,217.8 93.7,218.5 77.8,194.2 101.1,193.2 				"/>
				<g>
					<path class="st6" d="M119.3,181c0,0,15,53.1,4.4,108.3c-3,15.8-2.2,68.6-2.2,68.6s-1.9,78.4,1.6,89.7s1.8,23.7,23.9,23.5
						c21-0.2,25.7-11.4,25.7-11.4s-7.3-93.2-8.3-122.6s0.3-121.8-6.1-131.3C153.4,198.3,119.3,181,119.3,181z"/>
					<path class="st8" d="M114.8,178.3c0,0,5.9,15.6,5.9,23.2s2.1,47,1.9,74.9c-0.1,13.5-1.1,54-1.1,54s16.4-64.4,18.2-73.3
						c2.1-11.1,2-17.6,0.4-22.1c-1.7-4.7-10.3-13.1-10.3-13.1s4.2-14.9,5.6-19.1c1.4-4.2-3.6-8.9-7.3-14.3
						C125,184.2,114.8,178.3,114.8,178.3z"/>
					<g>
						<path class="st6" d="M40.3,174.5c0,0,28.2,54,31.5,70.2c9.7,46.8,13.8,84.4,13.8,84.4S96.5,433,91.3,452
							c-5.7,20.9-12.8,24.1-39.1,24.6c-27.9,0.5-54.8-12.3-54.8-12.3s0-71.4,0-103.8s-11.7-149.9-11.7-149.9L40.3,174.5z"/>
					</g>
					<path class="st8" d="M40,174.3c0,0,27.6,36.5,32.4,48.6s11.8,44.2,13.2,106.3c0,0-9.4-34.5-16.1-48.8
						c-9.5-20.5-16.3-31-15.6-34.2c0.9-4.7,7.1-9.3,8.7-14.6c0,0-9.9-1.6-15.2-7.9S33.8,194.2,33,186.8
						C32.2,179.5,40,174.3,40,174.3z"/>
					<rect x="24.6" y="392.2" class="st8" width="40.2" height="6.6"/>
					<rect x="132" y="392.2" class="st8" width="30.5" height="6.6"/>
				</g>
				<polygon class="st9" points="50,168.4 101.1,193.2 76.2,213.9 40.3,174.5 				"/>
				<polygon class="st9" points="101.1,193.2 117.7,209.4 120.5,180.8 110.1,174.8 				"/>
				<line class="st17" x1="163.8" y1="320.6" x2="159.7" y2="237.8"/>
				<g>
					<g>
						<path class="st20" d="M200.7,341.3c0,0-4.8,3.1-12.4,5.8c-1.2,0.4-2.5,0.7-3.8,0.9c5.4,5.6,2.5,15.5,0.3,18.8
							c-2.8,4.2-7.8,3.6-9.5,1.9c-1.6-1.7-5.3-4.3-7.1-5.6c-1.8-1.3-7.6-4.3-7.6-4.3s-0.6,0-1.8,1c-1.2,1-2.7,1.4-2.7,1.4
							s-0.2,1.9-1.3,3.5c-1.1,1.6-3.7,5.8-7.4,5.8c-2.5,0-3.7-1.2-4-2.9c0,0.1-0.1,0.2-0.1,0.2l-16.3,9.9c0,0-2.4,3.4-0.1,6
							c2.3,2.6,5.7,1.2,5.7,1.2s-0.4,3.1,1.9,5.2c2.3,2,5.1,1.2,5.1,1.2s0.5,2.1,2.8,4.5c2.3,2.3,5.7,1.2,5.7,1.2s0.1,1.9,1.7,3
							c1.6,1.1,5.1,1.8,7.8,0.7c2.7-1.1,29.6-18.4,34.9-21.9c5.4-3.5,23-14.6,23-14.6L200.7,341.3z"/>
						<path class="st3" d="M125.8,346.5c4.3,1.9,7,3.5,10.1,3.1c3.1-0.4,10.9-4.8,13.6-6.4c2.6-1.6,11.6,3.2,11.6,3.2
							s-4.9,7.5-0.8,10.1c4.1,2.6,9.4,4.7,11.8,6.6s10.6,9.6,13,11.1c2.4,1.6,4.2,3.8,4.2,6c0,2.2-1.1,3.3-2.6,4.4s-3.8-0.1-3.8-0.1
							s0.6,2.1-1.1,3.9c-1.6,1.8-5.7,2-5.7,2s-0.1,1.9-2,3.7c-2,1.8-4.6,0.6-4.6,0.6s0.2,1.5-2.1,2.8c-2.3,1.2-7.2,0-9.3-1.6
							c-2.1-1.6-20.3-14.3-26.2-16.6c-5.9-2.4-16.5-4.1-16.5-4.1L125.8,346.5z"/>
						<path class="st21" d="M168.9,371.3c-0.1-0.3-0.3-0.4-0.6-0.4c-0.3,0.1-0.4,0.3-0.4,0.6c0.4,1.6,3.2,4.5,8.6,8.9
							c2.5,2,5,3.8,6.5,4.9c0-0.5-0.1-0.7-0.1-0.7s0.6,0.3,1.3,0.5C179.6,381.7,169.5,374,168.9,371.3z"/>
						<path class="st21" d="M168.9,384.2c-1.3-0.9-2.5-1.8-3.8-2.7c-0.2-0.1-0.5-0.1-0.6,0.1c-0.2,0.2-0.1,0.5,0.1,0.6
							c1.3,0.9,2.6,1.8,3.8,2.7c3.2,2.3,6.2,4.4,7.8,5.8c0-0.2,0-0.3,0-0.3s0.3,0,0.9-0.1C175.5,388.9,172.4,386.7,168.9,384.2z"/>
						<path class="st21" d="M158.1,387.6c-0.3,0-0.5,0.2-0.5,0.4c0,0.3,0.2,0.5,0.4,0.5c2.8,0.2,8.8,4.4,11.2,6.5
							c0.1,0.1,0.2,0.1,0.2,0.2c0.1-0.3,0.1-0.6,0.1-0.6s0.4,0.2,1.1,0.3c-0.2-0.2-0.5-0.4-0.8-0.7
							C168,392.7,161.6,387.8,158.1,387.6z"/>
						<path class="st22" d="M158.3,395.7c0.5-0.7,0.8-1.3,0.6-4.8c-0.1-3.4-3.8-5.1-5.2-3.7c-1.4,1.4-3.1,5.4-3.9,8.3
							c0,0,0,0.2-0.1,0.5c0.2,0.6,0.6,1.8,1.9,2.5c1.6,0.9,4.6,1.4,7.2,0.5c0.3-0.2,0.6-0.3,0.8-0.4
							C161.6,397.4,157.7,396.4,158.3,395.7z"/>
						<path class="st23" d="M158.3,395.7c0.1-0.1,0.1-0.2,0.2-0.3c-0.6,0.6-1.3,1-1.8,1.3c-0.7,0.3,0.6,0.2,1.8-0.5
							C158.2,396,158.2,395.8,158.3,395.7z"/>
						<path class="st24" d="M153.6,388.2c0.5,1.5,3.1,2.1,3.1,2.1s-1.7,3.7-4,2.7C150.3,392,153.6,388.2,153.6,388.2z"/>
						<path class="st21" d="M152,381.2c-2-1.3-4.7,0.3-5.5,1.3c-0.8,1-3.5,3.8-5.7,8.1c0,0,0,0,0,0s0.6,2.1,3.1,4.3
							c2.5,2.2,5.7,0.8,5.7,0.8s0,0,0,0c0-0.1,0.1-0.1,0.1-0.2c1.6-2.4,2.9-6.6,3.9-8.3C154.8,385.5,154.1,382.5,152,381.2z"/>
						<path class="st24" d="M148,382.5l-1.8,2.7c0,0-0.5,1.3,0.9,2.4c1.4,1.1,3.1-0.4,3.1-0.4l1.6-2.1c0,0-1-0.8-2.1-1.6
							S148,382.5,148,382.5z"/>
						<path class="st22" d="M142.5,377.4c-3.2-0.8-5.6,2.2-8.9,7.3c0,0,0,0,0,0s-0.2,3.2,2.2,5c2.4,1.9,5.1,0.9,5.1,0.9
							s0,0.1,0.1,0.2c1.2-1.8,3.6-5.3,4.5-6.9C146.7,381.8,145.7,378.2,142.5,377.4z"/>
						<path class="st24" d="M139.7,378.8c0,0-1.2,2.7-1.7,4s1.1,3.3,3.1,2.1c2-1.2,3.3-3.6,3.3-3.6s-0.6-1-2.1-1.9
							C140.6,378.4,139.7,378.8,139.7,378.8z"/>
						<path class="st21" d="M127.8,383.8c2.5,2.5,5.7,0.8,5.7,0.8s0,0,0,0.1c0.4-0.7,0.9-1.4,1.4-2.1c1.9-3.1-5.2-5.8-7.2-5
							l-0.2,0.1C127.5,377.8,125.3,381.3,127.8,383.8z"/>
						<path class="st24" d="M127.7,380.7c0.9,2.1,3.9,3.3,3.9,3.3s-1.4,1.4-3.2-0.2S127.7,380.7,127.7,380.7z"/>
						<g>
							<path class="st21" d="M149.6,373c3.7-0.2,5.9-4.6,6.9-6.3c1-1.7,1.1-3.6,1.1-3.6s1.5-0.5,2.6-1.6c1.1-1.1,1.7-1.2,1.7-1.2
								s6.1,2.6,7.9,3.8s5.7,3.5,7.5,5.1s6.8,1.9,9.3-2.6c2-3.4,4.1-13.6-1.7-18.7c-6.8,1.3-14.6-0.6-16.3-1.1
								c-2-0.7-6.7-0.6-9.5,1.6c-2.8,2.3-8.7,7.2-10.6,9c-1.9,1.8-1.5,2.7-1.2,4.6c0.3,1.8-0.8,4.7-1.8,8.5
								C145.8,372.1,147,373.1,149.6,373z"/>
							<path class="st24" d="M146.7,365.5c-0.4,1.4-0.9,3-1.4,4.9c0,0.1,0,0.1,0.1,0.2c1.3,0.1,3.5,0.2,4.5-0.6c1.4-1.1,1-5,1-5
								S149.1,364.6,146.7,365.5z"/>
							<path class="st25" d="M171.8,350.2c-4.3,5.8-7.5,8.9-9.3,10.1c0.9-1.4,2-4.4-0.3-8.1c-0.1-0.1-0.3-0.2-0.4-0.1
								c-0.1,0.1-0.2,0.3-0.1,0.4c2.3,3.7,0.9,6.6,0.1,7.7c0,0,0,0,0,0s0.4,0.2,1.1,0.5c2-1.4,5.2-4.8,9.3-10.2
								c0.1-0.1,0.1-0.3-0.1-0.4S171.9,350.1,171.8,350.2z"/>
							<path class="st25" d="M157.7,362.5c-0.8-1.8-1.7-2.8-2.7-2.8c-0.2,0-0.3,0.1-0.3,0.3c0,0.2,0.1,0.3,0.3,0.3
								c1.2,0,2.1,1.9,2.5,3.5c0.1-0.4,0.1-0.7,0.1-0.7s0.1,0,0.3-0.1C157.8,362.8,157.7,362.7,157.7,362.5z"/>
						</g>
						<polygon class="st26" points="206.8,337.4 196.9,341.4 216,367.5 232.8,363.4 						"/>
						<polygon class="st27" points="112.6,343.5 130.6,345.9 115.3,379.3 94.6,377.3 						"/>
					</g>
					<path class="st6" d="M115.8,341.5c-16.2-0.7-34.6-2.1-52.7-4.7c-23.6-3.4-39.5-6.6-39.5-6.6S15,238.7,5.8,223.4
						c-7-11.7-13.5-13.7-20-12.7c-13.5,2-24.9,23-26.5,40.6c-1.8,19.8,2.6,56.2,8.1,77.1c8.8,32.9,12.2,48.2,24.6,49.9
						c35.9,4.9,80.2,3.7,112.8,1.6C107.7,366.9,111.6,354.1,115.8,341.5z"/>
					<path class="st17" d="M111.7,340.9c-29.6-1.4-59.6-3.1-87.5-11.6c-1.9-1.3-2.4-4.6-2.4-4.6c0.5-36.4-4.8-68.6-15.9-101.3"/>
				</g>
				<path class="st8" d="M115.8,69.6c8,6.9,9.8,17.9,8.3,25.4c-1.5,7.4-7,24-7,24s-5.8-25.4-9.7-34.4c-3.9-9-10.3-20.8-10.3-20.8
					L115.8,69.6z"/>
				<path class="st7" d="M104.8,68.5c5.1,2.8,13.8,8.8,14.2,13.4c0.5,4.6,2.6,18,2,25.8c-0.5,7.9,1,23.2-0.2,32.4
					c-1.2,9.2-1.8,18.7-14.1,24.3c-11.4,5.1-24.2-2.2-33.2-8.3c-10.5-7.1-14.4-13.4-13.8-33.1c0,0-6.9-36.2-4.9-41.6
					c4.7-13.2,32-7.6,39.8-8.8C102.4,71.6,104.8,68.5,104.8,68.5z"/>
				<path class="st8" d="M57.7,80.7c-2.6,4.3,5.9,9.6,6.6,13.5c1.4,7.8-0.7,17-0.7,17l-2.9,7.5c0,0,0.3,13.6-2.5,21.5
					c-1.6,4.3-27.7-26.4-20-59.3c3.3-14.2,16.3-10,16.3-10c2.2-14.6,8.7-20.5,37.2-19.8c28.5,0.7,33.4,23.7,33.4,23.7
					c-4.8,3.1-2,12.1-17,13C80.8,89.5,76.6,77.9,65.8,76C63.5,75.6,60.3,76.4,57.7,80.7z"/>
				<path class="st7" d="M63.5,121.3c0,0-2.3-6.4-6.4-10.5c-3.5-3.4-8.7-3.5-10.1,1.9c-1.6,6.7,4.3,10.9,4.7,14.8
					c0.4,4.4,6,9.2,8.9,7.7L63.5,121.3z"/>
				<path class="st28" d="M54,114.6c-2.5-1.6-4.4,0.6-4.8,2.9s0.3,0.9,1.9-0.6s3.9,1.6,4,3.8c0.1,3,1.7,6.6,4.3,6.4
					c2.6-0.2,1.2-0.9,0.4-4c-0.8-3.1,0.1,0-1.1-3C57.4,117.1,56.1,115.9,54,114.6z"/>
				<path class="st8" d="M121.1,117.2c0,0,0.3,9.9-1.3,16.8c-0.8,3.4-1.2,9-2.4,10.1s-5.5-5.3-8.4-8.2l0,0c-0.4-0.5-0.9-0.9-1.4-1.2
					c-3-2-10.3-3.6-16.5,0.2c-7.4,4.5-9.6,12.4-15,10.8c-4.8-1.4-6.8-3.4-9.4-12.7c-2.1-7.5-3.1-21.8-3.1-21.8l-3.1,1.9
					c0,0-1.9,15.7-0.7,24.6c1.1,7.4,0.6,16.5,13.5,23.6c11.1,6.1,16.8,9,23.8,7.3c0,0-0.1,0-0.1,0c20-1.8,23.7-15,24.1-24.9
					C121.8,133.8,121.1,117.2,121.1,117.2z M85.7,151.4c0.4-1.9,2.3-7.8,7.3-11.1c4.3-2.8,9.3-3.1,13.5-1.5
					c3.9,1.5,7.9,10.7,4.2,13.5c-4.9,3.7-5.1-0.9-10,0.6C89.8,156.1,85.3,153.2,85.7,151.4z"/>
			</g>
		</g>
	</g>
	<path style="clip-path:url(#SVGID_00000025429546930335645230000003998018659051238800_);fill:none;" d="M382,600H18
		c-10,0-18-8.1-18-18V18C0,8.1,8.1,0,18,0H382c10,0,18,8.1,18,18V582C400,591.9,391.9,600,382,600z"/>
	<g style="clip-path:url(#SVGID_00000025429546930335645230000003998018659051238800_);">
		<defs>
			<path id="SVGID_00000176733929781630549820000006060989068595666858_" d="M382,600H18c-10,0-18-8.1-18-18V18C0,8.1,8.1,0,18,0
				H382c10,0,18,8.1,18,18V582C400,591.9,391.9,600,382,600z"/>
		</defs>
		<clipPath id="SVGID_00000182505563205685056530000004876633149645323166_">
			<use xlink:href="#SVGID_00000176733929781630549820000006060989068595666858_"  style="overflow:visible;"/>
		</clipPath>
		<g style="clip-path:url(#SVGID_00000182505563205685056530000004876633149645323166_);">
			<g>
				<polygon class="st31" points="90.3,487.7 93.9,473.4 52.8,455.7 44.9,468.2 				"/>
				<polygon class="st31" points="127.4,401.4 119.1,414.8 78,397.1 82,381.9 				"/>
				<path class="st31" d="M276.6,515.7l0.1-0.3c2.8-6.5-1.2-13.9-8.2-15.1c-0.1,0-0.3,0-0.4-0.1c-8.4-1.3-16.5-3.8-24.1-7.4
					c-15.1-7.3-29.6-14.5-47.2-21.8c-20.4-8.4-88.2-35.8-88.2-35.8l-5.8,13.4c0,0,66.5,30.5,86.6,39.5c17.4,7.8,32.6,13.3,48.3,19.3
					c7.9,3,15.3,7.2,22,12.4c0.1,0.1,0.2,0.2,0.3,0.2C265.7,524.4,273.8,522.2,276.6,515.7z"/>
				<path class="st32" d="M180.6,464.4c-2.3,5.5-4.9,11-7.5,16.4c2.9,1.3,5.7,2.6,8.1,3.7c2.2-5.7,4.6-11.3,7.2-16.9
					C186,466.6,183.4,465.5,180.6,464.4z"/>
				<path class="st32" d="M240.4,491c-13.7-6.6-27.1-13.2-43.1-19.8c-2.7,5.6-5.1,11.4-7.3,17.2c15.6,7,29.5,12.2,43.5,17.5
					C235.7,500.9,238,496,240.4,491z"/>
				<path class="st33" d="M132.1,403.5L132.1,403.5c-1.1,2.7-4.2,3.9-6.9,2.8l-45.2-19.4c-2.7-1.1-3.9-4.2-2.8-6.9l0,0
					c1.2-2.7,4.2-3.9,6.9-2.8l45.2,19.4C132.1,397.7,133.3,400.8,132.1,403.5z"/>
				<path class="st33" d="M124.5,416.7l-25.7,59.7c-0.5,1.1-1.8,1.6-2.9,1.1l-47.5-20.4c-1.1-0.5-1.6-1.8-1.1-2.9L73,394.5
					c0.5-1.1,1.8-1.6,2.9-1.1l47.5,20.4C124.4,414.3,124.9,415.6,124.5,416.7z"/>
				
					<rect x="89.3" y="387.7" transform="matrix(0.3952 -0.9186 0.9186 0.3952 -324.7906 338.1053)" class="st32" width="10.1" height="56"/>
				<path class="st33" d="M244.6,487.3L244.6,487.3c2.2,0.9,3.2,3.5,2.2,5.6l-7.1,16.5c-0.9,2.2-3.5,3.2-5.6,2.2l0,0
					c-3.1-1.3-4.5-4.9-3.2-8l5.7-13.2C237.9,487.4,241.5,485.9,244.6,487.3z"/>
				
					<rect x="72.1" y="426.3" transform="matrix(0.3952 -0.9186 0.9186 0.3952 -370.3318 346.2033)" class="st32" width="11.3" height="56"/>
				<path class="st33" d="M94.5,490.9L94.5,490.9c1.2-2.7-0.1-5.8-2.8-6.9l-45.2-19.4c-2.7-1.1-5.8,0.1-6.9,2.8l0,0
					c-1.2,2.7,0.1,5.8,2.8,6.9l45.2,19.4C90.2,494.9,93.3,493.6,94.5,490.9z"/>
			</g>
			<g>
				<path class="st33" d="M108.4,494.2H29.6c-1.5,0-2.6,1.2-2.6,2.6v11.5h84v-11.5C111.1,495.4,109.9,494.2,108.4,494.2z"/>
				<path class="st31" d="M117.6,501.2h-97c-2.3,0-4.1,1.8-4.1,4.1v15.8h105.2v-15.8C121.7,503.1,119.8,501.2,117.6,501.2z"/>
			</g>
		</g>
	</g>
	<g style="clip-path:url(#SVGID_00000025429546930335645230000003998018659051238800_);">
		<defs>
			<path id="SVGID_00000096044133324577017890000000183156883083650730_" d="M382,600H18c-10,0-18-8.1-18-18V18C0,8.1,8.1,0,18,0
				H382c10,0,18,8.1,18,18V582C400,591.9,391.9,600,382,600z"/>
		</defs>
		<clipPath id="SVGID_00000147188101972101451770000008552445600695497105_">
			<use xlink:href="#SVGID_00000096044133324577017890000000183156883083650730_"  style="overflow:visible;"/>
		</clipPath>
		<g style="clip-path:url(#SVGID_00000147188101972101451770000008552445600695497105_);">
			<rect x="-37.9" y="544" class="st35" width="467.9" height="130.4"/>
			<g>
				<polygon class="st33" points="401.7,674.4 399.1,674.4 399.1,612 -6.9,612 -6.9,674.4 -9.5,674.4 -9.5,606.3 401.7,606.3 				
					"/>
			</g>
			<g>
				<rect x="-42.3" y="518.9" class="st31" width="476.7" height="45.1"/>
				<rect x="-53.5" y="518.9" class="st33" width="499.2" height="29.9"/>
			</g>
		</g>
	</g>
	<g style="clip-path:url(#SVGID_00000025429546930335645230000003998018659051238800_);">
		<defs>
			<path id="SVGID_00000178192099413654229340000005586555084576165798_" d="M382,600H18c-10,0-18-8.1-18-18V18C0,8.1,8.1,0,18,0
				H382c10,0,18,8.1,18,18V582C400,591.9,391.9,600,382,600z"/>
		</defs>
		<clipPath id="SVGID_00000133515223550417306180000010154044965393228200_">
			<use xlink:href="#SVGID_00000178192099413654229340000005586555084576165798_"  style="overflow:visible;"/>
		</clipPath>
		<g style="clip-path:url(#SVGID_00000133515223550417306180000010154044965393228200_);">
			<polyline class="st37" points="384.9,432.1 353.4,335.4 323.8,432.1 			"/>
			<line class="st37" x1="353.4" y1="324.3" x2="353.4" y2="434.1"/>
			<g>
				<path class="st38" d="M376,442.3c-6.8,0-36.5,0-43.2,0c-4.9,0-8.9-4-8.9-8.9v-1.2h61.1c0,0,0,0.5,0,1.2
					C384.9,438.3,380.9,442.3,376,442.3z"/>
				<path class="st33" d="M266.5,313l13.7-3.9c15.4-4.3,31.6-4.5,47.1-0.4l28,7.3c0,0-0.4-5.6,4.3-4.8c4.4,0.7,4.3,8.1-4,7.4
					l-28-4.9c-15.6-2.8-31.7-1.3-46.6,4.2l-14.1,5.2L266.5,313z"/>
				<path class="st38" d="M353.4,324.3L353.4,324.3c-0.7,0-1.3-0.6-1.3-1.3v-7.3c0-0.7,0.6-1.3,1.3-1.3l0,0c0.7,0,1.3,0.6,1.3,1.3
					v7.3C354.7,323.7,354.1,324.3,353.4,324.3z"/>
				<path class="st39" d="M386,436h-63c-1.1,0-1.9-0.9-1.9-1.9v-1.9h66.9v1.9C387.9,435.1,387.1,436,386,436z"/>
			</g>
			<polyline class="st37" points="151.1,432.1 182.6,335.4 212.2,432.1 			"/>
			<line class="st37" x1="182.6" y1="324.3" x2="182.6" y2="434.1"/>
			<g>
				<path class="st38" d="M160,442.3c6.8,0,36.5,0,43.2,0c4.9,0,8.9-4,8.9-8.9v-1.2h-61.1c0,0,0,0.5,0,1.2
					C151.1,438.3,155.1,442.3,160,442.3z"/>
				<path class="st33" d="M269.5,313l-18.7-4.6c-15.2-3.7-31-3.4-46,0.8l-24,6.8c0,0,0.4-5.6-4.3-4.8c-4.4,0.7-4.3,8.1,4,7.4
					l23.2-4.7c15.2-3.1,31-2.2,45.8,2.7l19.7,6.5L269.5,313z"/>
				<path class="st38" d="M182.6,324.3L182.6,324.3c0.7,0,1.3-0.6,1.3-1.3v-7.3c0-0.7-0.6-1.3-1.3-1.3l0,0c-0.7,0-1.3,0.6-1.3,1.3
					v7.3C181.3,323.7,181.9,324.3,182.6,324.3z"/>
				<path class="st39" d="M150,436h63.1c1.1,0,1.9-0.9,1.9-1.9v-1.9h-66.9v1.9C148.1,435.1,148.9,436,150,436z"/>
			</g>
			<polygon class="st33" points="271.7,281.6 263.6,281.6 263.7,310.7 261.5,450.7 273.8,450.7 271.6,310.7 			"/>
			<path class="st31" d="M258.9,316.9c0,5.5,3.9,9.9,8.8,9.9s8.8-4.4,8.8-9.9s-3.9-9.9-8.8-9.9S258.9,311.4,258.9,316.9z"/>
			<path class="st31" d="M256.2,507.8h22.8v-59.2c0-1.3-1.1-2.4-2.4-2.4h-18c-1.3,0-2.4,1.1-2.4,2.4L256.2,507.8L256.2,507.8z"/>
			<path class="st33" d="M246.6,510.1h42.1v-3.4c0-0.7-0.5-1.2-1.2-1.2h-39.7c-0.7,0-1.2,0.5-1.2,1.2L246.6,510.1L246.6,510.1z"/>
			<path class="st31" d="M228.8,519.3h77.6v-6.8c0-1.3-1.1-2.4-2.4-2.4h-72.9c-1.3,0-2.4,1.1-2.4,2.4V519.3z"/>
			<path class="st31" d="M267.7,288.7c2.7,0,5-1.9,5.5-4.5c0.3-1.6,0.5-3.4,0.3-4.9c0-0.3-0.1-0.6-0.2-0.9c-0.7-2.3-2.9-3.9-5.3-3.9
				h-0.5c-2.4,0-4.6,1.5-5.3,3.9c-0.1,0.3-0.2,0.6-0.2,0.9c-0.2,1.5,0,3.2,0.3,4.9C262.7,286.8,265,288.7,267.7,288.7L267.7,288.7z"
				/>
		</g>
	</g>
	<path style="clip-path:url(#SVGID_00000025429546930335645230000003998018659051238800_);fill:#F8A382;" d="M90.6,144.5
		c0,0,15,0.8,18.2-1C106.6,146.1,95.3,147.4,90.6,144.5z"/>
	<path style="clip-path:url(#SVGID_00000025429546930335645230000003998018659051238800_);fill:#313131;" d="M104.5,105.7
		c0,0-1.4-4,0.6-4.4c2-0.4,17-1.3,17.2-0.6C122.5,101.5,128,108.4,104.5,105.7z"/>
	<path style="clip-path:url(#SVGID_00000025429546930335645230000003998018659051238800_);fill:#313131;" d="M95.2,101.4
		c0,0,2.3,5.5-4.6,4.9c-6.9-0.6-17.5-1.5-19-0.7C70.3,103.6,72.6,98,95.2,101.4z"/>
	<path style="clip-path:url(#SVGID_00000025429546930335645230000003998018659051238800_);fill:#F8A382;" d="M103.3,107.9
		c0,0-2.8,9.1,0,14.4c3.1,5.8,2.3,7.2,2.3,7.2s0.9-2.3,0.1-4.6C104.9,122.5,101.7,118.9,103.3,107.9z"/>
	<path style="clip-path:url(#SVGID_00000025429546930335645230000003998018659051238800_);fill:#F8A382;" d="M94.1,128.3
		c0,0,1.5-2.4,2.9-1C98.4,128.6,94.1,128.3,94.1,128.3z"/>
	
		<circle style="clip-path:url(#SVGID_00000025429546930335645230000003998018659051238800_);fill:#5E342C;enable-background:new    ;" cx="86.6" cy="112.7" r="3.2"/>
	<path style="clip-path:url(#SVGID_00000025429546930335645230000003998018659051238800_);fill:#F8A382;" d="M75.4,113.3
		c0,0,10-7.3,16.4-2.6c1.8,1.5,1.9,2.6,1.9,2.6S90,107.8,75.4,113.3z"/>
	
		<circle style="clip-path:url(#SVGID_00000025429546930335645230000003998018659051238800_);fill:#5E342C;enable-background:new    ;" cx="115.2" cy="112.7" r="3.2"/>
	<path style="clip-path:url(#SVGID_00000025429546930335645230000003998018659051238800_);fill:#F8A382;" d="M106,113.3
		c0,0,7.8-7.3,12.9-2.6c1.4,1.5,1.5,2.6,1.5,2.6S117.5,107.8,106,113.3z"/>
	<path style="clip-path:url(#SVGID_00000025429546930335645230000003998018659051238800_);fill:#F8A382;" d="M335.7,111.6
		c0,0,1.9,17.1-1.5,19.1C333.1,128.7,335.7,111.6,335.7,111.6z"/>
	<path style="clip-path:url(#SVGID_00000025429546930335645230000003998018659051238800_);fill:#F8A382;" d="M324.3,142.4
		c0,0,8.6-0.6,9.6,0.4c1.6,1.3,4.6-0.2,4.6-0.2s8.9-0.4,9.9,0C342.9,143.9,336.4,147.2,324.3,142.4z"/>
	<path style="clip-path:url(#SVGID_00000025429546930335645230000003998018659051238800_);fill:#F8A382;" d="M333.9,134.9
		c0,0,3.9,1.5,5.9,0s4-0.8,4-0.8s1.3,0.8-0.7,1S336.3,136.9,333.9,134.9z"/>
	<path style="clip-path:url(#SVGID_00000025429546930335645230000003998018659051238800_);fill:#F8A382;" d="M328.7,134.9
		c0,0,2.4-0.8,3.8-0.4C331.3,135.1,330.3,135.6,328.7,134.9z"/>
</g>
</svg>
