<?xml version="1.0" encoding="utf-8"?>
<!-- Generator: Adobe Illustrator 27.6.1, SVG Export Plug-In . SVG Version: 6.00 Build 0)  -->
<svg version="1.1" id="Layer_1" xmlns="http://www.w3.org/2000/svg" xmlns:xlink="http://www.w3.org/1999/xlink" x="0px" y="0px"
	 viewBox="0 0 400 600" style="enable-background:new 0 0 400 600;" xml:space="preserve">
<style type="text/css">
	.st0{clip-path:url(#SVGID_00000127034603338136017880000000009310623444598668_);fill:#EEEDF6;}
	.st1{clip-path:url(#SVGID_00000127034603338136017880000000009310623444598668_);}
	.st2{fill:#313131;}
	.st3{fill:#FBC4AE;}
	.st4{fill:#F8A382;}
	.st5{fill:#D0D0CF;}
	.st6{fill:#464646;}
	.st7{fill:#FFFFFF;}
	.st8{fill:#358FC9;}
	.st9{fill:none;stroke:#313131;stroke-width:0.7087;stroke-miterlimit:10;}
	.st10{fill:#A7AFCD;}
	.st11{fill:#C1C8E6;}
	.st12{opacity:0.52;fill:#975646;}
	.st13{fill:#DE344B;}
	.st14{fill:#191919;}
	.st15{fill:#832D30;}
	.st16{opacity:0.3;fill:#FFFFFF;}
	.st17{fill:#123A50;}
	.st18{fill:#818194;}
	.st19{fill:#AD6455;}
	.st20{fill:#FFD17A;}
	.st21{fill:#C3846A;}
	.st22{fill:#905446;}
	.st23{fill:none;stroke:#FBAD18;stroke-width:0.7087;stroke-miterlimit:10;}
	.st24{fill:#FBAD18;}
	.st25{fill:#FECC57;}
</style>
<g>
	<defs>
		<path id="SVGID_1_" d="M381.95,600H18.05C8.08,600,0,591.92,0,581.95V18.05C0,8.08,8.08,0,18.05,0h363.91
			C391.92,0,400,8.08,400,18.05v563.91C400,591.92,391.92,600,381.95,600z"/>
	</defs>
	<clipPath id="SVGID_00000060714722099688174230000004194589280701246849_">
		<use xlink:href="#SVGID_1_"  style="overflow:visible;"/>
	</clipPath>
	
		<rect style="clip-path:url(#SVGID_00000060714722099688174230000004194589280701246849_);fill:#EEEDF6;" width="400" height="600"/>
	<g style="clip-path:url(#SVGID_00000060714722099688174230000004194589280701246849_);">
		<path class="st2" d="M189.67,550.75c-0.04-21.83-0.31-37.99-0.14-42.43c1.11-30.73-2.15-55.62-2.15-55.62l-52.17-1.63
			l-27.62,97.62c0,0,0.06,0.72,0.17,2.06H189.67z"/>
		<path class="st2" d="M132.39,550.75c11.94-50.95,22.63-97.45,22.63-97.45l-122.58-1.01c0,0-4.57,43.62-7.42,98.46H132.39z"/>
		<path class="st3" d="M86.79,115.08c0,0-6.78,46.25-8.21,49.12c-3.17,6.36-22.65,25.73-22.65,25.73s59.61,28.01,77.46,28.01
			c17.85,0,11.59-35.81,11.59-35.81s-12.58-7.06-15.08-12.06c-3.71-7.42-9.46-41.09-9.46-41.09L86.79,115.08z"/>
		<path class="st4" d="M127.42,170.23c-7.28-1.4-14.47-3.25-21.48-5.66c-1.27-0.42-2.52-0.89-3.77-1.36
			c-2.86-1.37-5.69-2.8-8.43-4.4c-1.01-0.59-6.3-4.18-6.64-4.19c-1.78-1.53-3.5-3.12-5.18-4.74c-0.14-0.14-0.3-0.25-0.45-0.39
			c2.41-14.5,5.33-34.4,5.33-34.4l33.65,13.89c0,0,5.75,33.67,9.46,41.09c0.1,0.2,0.25,0.42,0.38,0.63
			C129.05,170.5,127.88,170.32,127.42,170.23z"/>
		<g>
			<path class="st5" d="M235.41,285.25l21.26-19.37l18.62,20.76l-17.95,17.13C257.34,303.77,243.7,292.45,235.41,285.25z"/>
			<path class="st6" d="M244.6,266.69c-3.18,3.06-10.16,10.58-12.75,13.17l-48.62-74.1c0,0-10-4.32-18.99,9.73
				c-10.31,16.1,2.86,66.89,2.86,66.89s13.22,16.74,32.85,34.01c1.3,1.14,22.33,20.53,35.8,9.62c8.11-6.57,24.79-20.81,32.02-28.55
				C260.05,287.78,249.31,278,244.6,266.69z"/>
		</g>
		<path class="st7" d="M117.6,460.81c20.78-0.87,44.94-2.09,65.01-7.26c-0.33-63.59-2.71-177.31-4.57-190.88
			c-2.89-21.12-5.22-49.97-5.22-49.97l-24.86-31.74l-23.12,19.8l-59.68-26.22l-26,24.3c21.33,84.54-2.21,169.58,0,256.54
			C52.91,456.85,61.7,463.14,117.6,460.81z"/>
		<path class="st8" d="M129.28,217.75c0,0,16.08,126.05,16.08,141.62c0,6.98-16.29,25.28-16.29,25.28s-15.96-18.97-16.72-25.28
			c-0.76-6.31,6.28-140.92,6.28-140.92L129.28,217.75z"/>
		<polygon class="st8" points="138.87,198.8 129.28,217.75 118.63,218.51 102.65,194.17 125.97,193.22 		"/>
		<g>
			<path class="st6" d="M144.16,180.96c0,0,15.02,53.08,4.36,108.32c-3.04,15.75-2.2,68.58-2.2,68.58s-1.86,78.35,1.62,89.68
				c3.48,11.33,1.84,23.67,23.94,23.5c20.97-0.17,25.69-11.37,25.69-11.37s-7.31-93.19-8.28-122.57
				c-0.97-29.38,0.31-121.8-6.06-131.34C178.25,198.27,144.16,180.96,144.16,180.96z"/>
			<path class="st2" d="M139.68,178.3c0,0,5.87,15.55,5.87,23.22c0,7.67,2.05,47.02,1.91,74.95c-0.07,13.46-1.11,53.96-1.11,53.96
				s16.43-64.37,18.17-73.29c2.15-11.07,1.99-17.62,0.41-22.05c-1.66-4.66-10.32-13.11-10.32-13.11s4.18-14.89,5.58-19.08
				c1.39-4.18-3.58-8.87-7.28-14.3C149.91,184.24,139.68,178.3,139.68,178.3z"/>
			<g>
				<path class="st6" d="M65.15,174.54c0,0,28.19,54.04,31.54,70.23c9.67,46.76,13.77,84.37,13.77,84.37s10.9,103.83,5.76,122.86
					c-5.65,20.89-12.81,24.13-39.07,24.62c-27.93,0.52-54.78-12.31-54.78-12.31s0-71.41,0-103.8S10.71,210.64,10.71,210.64
					L65.15,174.54z"/>
			</g>
			<path class="st2" d="M64.85,174.28c0,0,27.57,36.49,32.37,48.61c4.8,12.12,11.78,44.21,13.25,106.25c0,0-9.43-34.48-16.07-48.78
				c-9.51-20.5-16.28-30.99-15.63-34.25c0.93-4.67,7.14-9.28,8.73-14.58c0,0-9.91-1.57-15.22-7.88
				c-5.31-6.31-13.55-29.42-14.37-36.81C57.08,179.46,64.85,174.28,64.85,174.28z"/>
			
				<rect x="49.54" y="392.22" transform="matrix(-1 -1.224647e-16 1.224647e-16 -1 139.2439 791.0679)" class="st2" width="40.17" height="6.63"/>
			
				<rect x="156.92" y="392.22" transform="matrix(-1 -1.224647e-16 1.224647e-16 -1 344.3421 791.0679)" class="st2" width="30.5" height="6.63"/>
		</g>
		<polygon class="st7" points="74.87,168.35 125.97,193.22 101.12,213.95 65.15,174.54 		"/>
		<polygon class="st7" points="125.97,193.22 142.62,209.39 145.36,180.77 134.98,174.83 		"/>
		<line class="st9" x1="188.64" y1="320.56" x2="184.6" y2="237.84"/>
		<g>
			<path class="st3" d="M199.95,251.71c0,0,0.81-6.9,5.99-11.35c5.18-4.45,13.25-11.07,18.63-15.21
				c5.38-4.14,14.99-11.25,18.44-11.2c3.46,0.06,5.38,26.57,5.38,26.57l-14.53,13.85c0,0-20.46,3.31-25.05,6.81
				c-4.59,3.5-7.8,5.51-7.8,5.51L199.95,251.71z"/>
			<path class="st10" d="M245.13,250.94L245.13,250.94c-1.09,0.47-2.35-0.04-2.82-1.13l-23.78-55.42c-0.47-1.09,0.04-2.35,1.13-2.82
				l0,0c1.09-0.47,2.35,0.04,2.82,1.13l23.78,55.42C246.73,249.21,246.22,250.47,245.13,250.94z"/>
			<path class="st7" d="M197.97,275.79c8.09-6.5,13.3-10.73,13.3-10.73l-4.68-29.53c0,0-7.06,4.49-17.95,11.16
				C191.02,256.66,194.09,266.44,197.97,275.79z"/>
			<path class="st6" d="M192.55,241.55c-13.6,8.86-29.36,18.42-45.59,26.79c-21.2,10.93-35.94,17.59-35.94,17.59
				s-60.26-69.36-76.64-76.54c-12.51-5.49-18.94-3.29-23.66,1.25c-9.82,9.44-6.88,33.19,2.06,48.41
				c10.05,17.11,34.77,44.23,51.45,57.96c26.27,21.62,37.95,32.08,49.03,26.23c32.06-16.9,67.36-43.6,92.69-64.25
				C200.74,266.85,196.47,254.24,192.55,241.55z"/>
			<path class="st9" d="M188.83,243.4c-24.94,16.06-50.3,32.2-77.97,41.43c-2.31,0-4.61-2.31-4.61-2.31
				c-20.75-29.97-43.81-53.03-71.87-73.13"/>
			<path class="st9" d="M12.77,259.05c10.05,17.11,34.77,44.23,51.45,57.97c26.27,21.62,37.95,32.08,49.03,26.23
				c41.97-22.12,89.55-61.08,112.94-81.2"/>
			<g>
				<path id="XMLID_24_" class="st10" d="M198.34,301.94l34.06,13.57c5.9,2.32,13.26-0.12,16.45-5.42l57-97.76
					c3.17-5.26,1.03-11.41-4.81-13.75l-33.51-13.75c-10.57-2.09-16.1-0.53-19.37,4.86l-57.05,96.81
					C187.83,291.94,188.48,296.05,198.34,301.94z"/>
				<path id="XMLID_23_" class="st11" d="M201.56,303.5l34.33,13.71c5.94,2.33,13.33-0.1,16.54-5.42l57.28-98.28
					c3.18-5.28,1.01-11.45-4.86-13.8l-33.81-13.84c-6.16-2.46-13.84-0.06-17.12,5.37l-57.64,97.89
					C192.95,294.61,195.34,301.05,201.56,303.5z"/>
			</g>
			<g>
				<path class="st3" d="M284.94,259.85c-3.6-0.51-10.7-1.3-12.5-0.35c-3.63,1.92-3.23,5.79,0.66,7.61
					c4.33,2.03,9.24,2.63,12.37,1.07C288.59,266.6,288.5,260.35,284.94,259.85z"/>
				<path class="st3" d="M282.11,268.55c-3.88-0.58-13.53-1.49-15.33-0.24c-2.57,1.78-1.44,5.38,2.77,7.29
					c4.68,2.13,9.97,2.85,13.29,1.33C286.17,275.42,285.93,269.13,282.11,268.55z"/>
				<path class="st3" d="M279.52,276.54c-3.1-0.95-10.86-2.88-12.45-2.13c-2.27,1.06-1.7,4.01,1.54,6.04
					c3.6,2.26,7.83,3.49,10.68,2.73C282.14,282.42,282.58,277.48,279.52,276.54z"/>
				<path class="st3" d="M276.61,282.11c-2.4-0.65-8.46-1.85-9.79-1.03c-1.9,1.18-1.68,3.91,0.75,5.57c2.7,1.84,5.99,2.66,8.33,1.72
					C278.25,287.44,278.99,282.75,276.61,282.11z"/>
			</g>
		</g>
		<path class="st2" d="M140.72,69.56c7.96,6.86,9.82,17.95,8.31,25.4c-1.51,7.45-6.96,24.04-6.96,24.04s-5.84-25.45-9.72-34.44
			c-3.88-9-10.29-20.83-10.29-20.83L140.72,69.56z"/>
		<path class="st3" d="M129.73,68.54c5.05,2.83,13.75,8.85,14.21,13.43c0.47,4.58,2.57,17.97,2.04,25.85
			c-0.52,7.88,0.99,23.23-0.22,32.44c-1.2,9.21-1.78,18.69-14.08,24.26c-11.36,5.14-24.2-2.16-33.25-8.29
			c-10.53-7.13-14.43-13.42-13.84-33.11c0,0-6.86-36.17-4.93-41.61c4.7-13.23,32.02-7.62,39.83-8.79
			C127.31,71.55,129.73,68.54,129.73,68.54z"/>
		<path class="st2" d="M82.6,80.65c-2.62,4.29,5.95,9.6,6.63,13.52c1.36,7.85-0.66,17-0.66,17l-2.93,7.51c0,0,0.35,13.58-2.52,21.51
			c-1.57,4.31-27.66-26.36-19.97-59.27C66.48,66.68,79.41,70.9,79.41,70.9c2.15-14.57,8.7-20.51,37.18-19.84
			c28.47,0.67,33.41,23.7,33.41,23.7c-4.78,3.12-2.03,12.1-16.96,13.04c-27.36,1.72-31.51-9.92-42.33-11.8
			C88.41,75.59,85.22,76.36,82.6,80.65z"/>
		<path class="st3" d="M88.38,121.35c0,0-2.27-6.39-6.39-10.49c-3.48-3.45-8.71-3.53-10.05,1.95c-1.63,6.67,4.33,10.92,4.67,14.83
			c0.38,4.39,5.96,9.16,8.86,7.71L88.38,121.35z"/>
		<path class="st12" d="M78.85,114.55c-2.52-1.56-4.39,0.56-4.79,2.88c-0.4,2.32,0.29,0.95,1.87-0.57c1.58-1.52,3.86,1.62,3.97,3.81
			c0.14,3.02,1.72,6.6,4.35,6.44c2.63-0.15,1.15-0.87,0.36-3.98c-0.79-3.12,0.14-0.04-1.08-3.03
			C82.3,117.11,81.01,115.89,78.85,114.55z"/>
		<path class="st2" d="M145.95,117.18c0,0,0.26,9.92-1.31,16.82c-0.79,3.45-1.18,8.96-2.39,10.1c-1.21,1.14-5.52-5.33-8.37-8.2
			c0,0,0.01,0.01,0.01,0.01c-0.44-0.46-0.9-0.88-1.38-1.2c-3-2.01-10.26-3.64-16.46,0.17c-7.38,4.54-9.55,12.42-15.01,10.84
			c-4.77-1.38-6.77-3.44-9.39-12.73c-2.13-7.54-3.07-21.82-3.07-21.82l-3.13,1.94c0,0-1.95,15.74-0.67,24.63
			c1.06,7.39,0.59,16.48,13.53,23.61c11.09,6.1,16.79,8.97,23.85,7.29c-0.02,0.01-0.05,0.03-0.05,0.03
			c19.99-1.8,23.72-14.98,24.13-24.94C146.65,133.76,145.95,117.18,145.95,117.18z M110.62,151.36c0.42-1.87,2.34-7.84,7.27-11.06
			c4.27-2.79,9.33-3.06,13.51-1.5c3.95,1.47,7.89,10.69,4.16,13.47c-4.93,3.68-5.11-0.9-10.01,0.55
			C114.67,156.05,110.2,153.23,110.62,151.36z"/>
	</g>
	<g style="clip-path:url(#SVGID_00000060714722099688174230000004194589280701246849_);">
		<g>
			<path class="st3" d="M344.19,182.24c-3.49,15.55-7.01,29.94-10.44,43.3h-79.38c-3.1-14.44-6.59-30.02-10.54-46.9
				c8.12-4.05,18.93-5.42,22.52-12.6c1.33-2.65,1.69-12.28,1.75-17.3c0.14-9.19-0.63-15.31-0.63-15.31h43.73
				c0,0-1.03,13.2-0.44,23.42c0.32,5.52,1.1,10.22,2.78,11.8C318.77,173.6,333.92,177.32,344.19,182.24z"/>
			<path class="st2" d="M362.93,524.11c0.57-44.17-0.16-86.51,0.08-92.64c1.08-27.68-2.08-50.09-2.08-50.09l-70.44-22.21
				l-6.97,108.65c0,0,2.52,25.4,5.52,56.28H362.93z"/>
			<path class="st2" d="M210.94,524.11h79.2c1.64-10.3,2.73-16.99,2.73-16.99l-9.49-147.95l-70.44,22.21c0,0-3.16,22.41-2.08,50.09
				C211.1,437.6,210.37,479.94,210.94,524.11z"/>
			<path class="st7" d="M214.97,431.84c50.89-0.86,88.89,7.04,139.1,0.62c-1.7-46.87-1.68-115.16,2.37-146.22
				c5.76-44.17,9.25-79.67,9.25-79.67l-43.32-21.83l-4.15,9.13l-29.9,12.71l-22.52-12.71l-13.01-11.33l-34.46,24.03
				c0,0-7.88,35.5-2.13,79.67C220.2,316.92,217.19,386.24,214.97,431.84z"/>
			<path class="st4" d="M266.34,166.05c-0.25,0.51-0.55,0.98-0.88,1.43c14.09,1.08,35.36-1.7,45.39-9.11c-0.04-0.5-0.08-1-0.11-1.51
				c-0.59-10.22,0.44-23.42,0.44-23.42h-43.73c0,0,0.77,6.12,0.63,15.31C268.03,153.76,267.67,163.4,266.34,166.05z"/>
			<polygon class="st13" points="295.96,215.63 305.62,347.86 288.3,363.97 268.58,348.75 281.54,215.63 			"/>
			<polygon class="st13" points="305.49,204.46 295.96,215.63 281.54,215.63 270.84,200.74 289.17,198.73 			"/>
			<path class="st6" d="M203.57,238.02c4.37,44.62,10.3,74.06,9.62,115.05c-0.45,27.28-5.25,103.41-5.25,103.41
				s26.06,0.22,54.9-12.36c19.41-8.47,17.22-11.39,16.11-76.4c-0.83-48.56-26.47-108.73-29.46-141.44
				c-1.25-13.66,3.56-52.35,3.56-52.35l-32.1,16.02L203.57,238.02z"/>
			<path class="st6" d="M367.14,226.89c-1.28,40.99-0.21,60.21-1.04,67.9c-2.84,26.59-5.37,41.5-5.24,64.46
				c0.28,48.49,5.92,95.16,5.92,95.16s-45.75,2.06-61.31-17.79c-12.45-15.89-13.18-65.05-11.36-85.66
				c1.03-11.69,19.34-67.29,25.59-109.6c5.48-37.12,1.43-69.86,1.43-69.86l39.46,17.09L367.14,226.89z"/>
			<path class="st7" d="M252.05,174.75l8.96-4.23c0,0,4.25,7.25,7.21,10.77c13.49,16.02,20.94,17.44,20.94,17.44
				s-13.79,18.36-20.21,16.9C257.16,212.93,252.05,174.75,252.05,174.75z"/>
			<path class="st7" d="M321.14,173.15l-4.57-4.51c0,0-5.78,9.79-8.69,13.25c-13.24,15.73-20.55,17.14-20.55,17.14
				s13.53,18.04,19.83,16.6C318.75,212.98,321.14,173.15,321.14,173.15z"/>
			<path class="st14" d="M307.86,367.71c0,2.52-2.04,4.56-4.56,4.56c-2.52,0-4.56-2.04-4.56-4.56s2.04-4.56,4.56-4.56
				C305.82,363.15,307.86,365.2,307.86,367.71z"/>
			<circle class="st14" cx="307.53" cy="403.38" r="4.56"/>
			<g>
				<g>
					<path class="st3" d="M319.19,113.25c0,0-0.37-12.58,9.31-12.1c6.18,0.3,6.57,6.47,1.65,14.34c-2.07,3.32-2.37,10.88-4.92,13.28
						c-3.1,2.91-5.6-1.69-6.5-3.79C317.23,121.51,319.19,113.25,319.19,113.25z"/>
				</g>
				<path class="st4" d="M324.53,106.74c1.66-2.75,3.7-0.92,4.59,1.68c0.89,2.6-1.15,5.96-1.15,5.96s1.15-4.74-0.51-5.96
					c-1.66-1.22-5.73,2.26-4.33,5.56c1.4,3.3,3.44,3.61,2.16,5.29c-1.27,1.68,0.13,3.51-2.04,4.28c-2.17,0.76-1.15-0.61-1.27-4.58
					c-0.13-3.97-0.13,0,0.13-3.97C322.37,111.02,323.11,109.11,324.53,106.74z"/>
				<g>
					<path class="st3" d="M259.63,113.25c0,0,0.37-12.58-9.31-12.1c-6.18,0.3-6.57,6.47-1.65,14.34c2.07,3.32,2.37,10.88,4.92,13.28
						c3.1,2.91,5.6-1.69,6.5-3.79C261.59,121.51,259.63,113.25,259.63,113.25z"/>
				</g>
				<path class="st4" d="M253.44,106.74c-1.83-2.75-4.07-0.92-5.06,1.68c-0.98,2.6,1.26,5.96,1.26,5.96s-1.26-4.74,0.56-5.96
					c1.83-1.22,6.31,2.26,4.77,5.56c-1.54,3.3-3.79,3.61-2.38,5.29c1.4,1.68-0.14,3.51,2.25,4.28c2.39,0.76,1.26-0.61,1.4-4.58
					c0.14-3.97,0.14,0-0.14-3.97C255.82,111.02,255.01,109.11,253.44,106.74z"/>
			</g>
			<g>
				<path class="st3" d="M326.61,94.51c-0.3,4.11-1.12,6.77-2.22,12.86c-0.26,1.47,1.6,21.41-8.78,38.78
					c-2.81,4.7-14.68,17.77-27.73,18.1c-5.74,0.15-24.44-10.28-29.48-26.09c-1.02-3.2-3.03-10.54-4.63-27.75
					c-0.17-1.78-0.44-3.29-0.64-4.64c-0.93-6.04-1.66-8.43-1.86-12.49c-0.6-12.86,13.54-31.33,38.07-30.93
					C318.35,62.82,327.53,81.67,326.61,94.51z"/>
				<path class="st15" d="M327.4,108.03c-2.29,3.46-4.83,3.59-4.83,3.59l-1.44-3.71c3.83-10.67-4.07-14.32-4.11-21.85l-6.5-7.6
					l-5.02-5.86l11.03-10.04c5.07,0.95,10.17,4.23,13.29,10.41c1.85,3.7,2.98,8.41,2.98,14.26
					C332.79,87.71,333.24,99.22,327.4,108.03z"/>
				<path class="st15" d="M263.82,71.78l6.77,0.25l-11.7,14.44c-1,6.73-0.33,13.08-3.4,18.93l-0.17,0.33l-2.3,4.39
					c0,0-5.68-8.19-5.98-18.58c-0.39-13.2,5.78-23.21,9.82-23.84L263.82,71.78z"/>
				<path class="st15" d="M275.91,53.13c33.09-8.31,40.62,9.44,40.62,9.44s-5.32,6.12-8.53,9.44c-4.5,4.65-8.94,6.91-24.58,6.45
					c-15.77-0.47-26.57,10.31-26.8,10.63c-0.01,0.01,6.66-13.6,6.66-13.6S261.25,56.81,275.91,53.13z"/>
				<path class="st15" d="M316.52,62.56c0,0-1.71-12.49-21.3-13.87c-12.89-0.91-24.93,2.49-31.87,7.05
					c-13.87,9.12-21.48,7.12-21.48,7.12s10.51,17.34,24.58,10.39c12.6-6.22,28.53-1.89,33.51-3.05
					C307.99,68.35,316.52,62.56,316.52,62.56z"/>
				<path class="st15" d="M263.33,74.36c-7.1,8.13-6.72,14.72-6.72,14.72s4.43-8.29,13.17-12.4c8.78-4.13,12.46-4.15,20.92-4.65
					c11.01-0.64,17.28-6.07,17.28-6.07S280.25,54.99,263.33,74.36z"/>
				<path class="st15" d="M327.4,108.03c-2.29,3.46-4.83,3.59-4.83,3.59l-1.44-3.71c2.03-9.97-2.04-14.6-5.28-20.03l-15.09-12.74
					c0.23-1.49,4.68-3.64,4.68-3.64c5.34,2.32,16.68,9.78,17.56,23.12c0,0,7.56-15.23,6.23-21.68c0,0,0.23-0.06,0.57,0.04
					c1.85,3.7,2.98,8.41,2.98,14.26C332.79,87.71,333.24,99.22,327.4,108.03z"/>
			</g>
			<path class="st2" d="M263.21,169.88c0,0-9.34,19.5-3.07,56.53c3.95,23.36,9.11,44.3,13.1,62.67c10.55,48.53,5.7,78.63,5.7,78.63
				L241.6,226.84l7.62-11.49l-15.22-8.99c0,0,12.19-26.48,18.06-31.61C257.92,169.61,263.21,169.88,263.21,169.88z"/>
			<path class="st2" d="M316.57,168.64c0,0,5.89,23.16,0.02,62.04c-5.87,38.87-16.63,73.84-19.1,87.4
				c-3.36,18.5-4.07,47.82-4.07,47.82s36.96-128.46,45.22-145.74l-8.38-7.81l9.55-8.98c0,0-9.08-24.31-14.95-29.44
				C319,168.79,316.57,168.64,316.57,168.64z"/>
			<g>
				<path class="st16" d="M315.16,113.55c-0.99,4.82-4.85,5.37-10.55,5.37c-7.84,0-8.06-2.25-8.8-5.57c-0.74-3.31-0.66-6-0.4-6.72
					c0.72-1.95,2.78-1.99,8.96-2.13c6.18-0.14,9.59-0.23,10.58,0.77C315.95,106.28,316.18,108.56,315.16,113.55z"/>
				<g>
					<path class="st16" d="M262.97,105.27c1-1,4.4-0.91,10.58-0.77c6.18,0.14,8.24,0.18,8.96,2.13c0.26,0.72,0.34,3.41-0.4,6.72
						c-0.74,3.32-0.96,5.57-8.8,5.57c-5.7,0-9.56-0.55-10.55-5.37C261.74,108.56,261.97,106.28,262.97,105.27z"/>
					<path class="st17" d="M321.92,104.17c-0.13-1.49-6.84-2.15-11.66-2.26c-4.81-0.1-12.95-0.38-15.84,0.72
						c-2.56,0.97-2.14,2.01-5.39,2.01c-2.84,0-2.97-1.04-5.54-2.01c-2.89-1.09-11.03-0.82-15.84-0.72
						c-4.81,0.1-11.52,0.77-11.66,2.26c-0.07,0.8,0.02,1.93,0.27,2.88c0.21,0.81,2.61,1.25,3.03,1.47c0.91,0.48,0.62,2.95,2.05,6.5
						c1.84,4.58,6.14,5.61,14.84,4.81c7.98-0.74,7.82-6.66,8.82-9.15c0.85-2.13,0.41-2.83,4.03-2.83c3.55,0,3.05,0.69,3.9,2.83
						c0.99,2.5,0.84,8.42,8.82,9.15c8.69,0.8,13-0.23,14.84-4.81c1.43-3.55,1.14-6.02,2.05-6.5c0.42-0.22,2.82-0.66,3.03-1.47
						C321.9,106.11,321.99,104.98,321.92,104.17z M282.12,113.35c-0.74,3.32-0.96,5.57-8.8,5.57c-5.7,0-9.56-0.55-10.55-5.37
						c-1.02-4.98-0.79-7.27,0.21-8.27c1-1,4.4-0.91,10.58-0.77c6.18,0.14,8.24,0.18,8.96,2.13
						C282.78,107.34,282.86,110.03,282.12,113.35z M315.16,113.55c-0.99,4.82-4.85,5.37-10.55,5.37c-7.84,0-8.06-2.25-8.8-5.57
						c-0.74-3.31-0.66-6-0.4-6.72c0.72-1.95,2.78-1.99,8.96-2.13c6.18-0.14,9.59-0.23,10.58,0.77
						C315.95,106.28,316.18,108.56,315.16,113.55z"/>
				</g>
			</g>
		</g>
		<g>
			<path class="st6" d="M343.92,318.99c1.78-29.32,0.83-59.82,2.62-79.67c4.16-46.15,14.06-50.72,14.06-50.72
				s16.55,7.68,24.54,53.37c2.24,12.84,9.33,40.27,6.02,77.86c-2.49,28.31-7.53,32.1-15.34,35.58c-10.7,4.78-31.37,9.8-41.4,3.3
				C339.73,340.33,343.69,344.79,343.92,318.99z"/>
			<path class="st6" d="M232.85,318.99c-1.78-29.32-0.83-59.82-2.62-79.67c-4.16-46.15-9.29-49.38-9.29-49.38
				s-19.57,8.78-26.19,41.44c-2.59,12.78-10.13,51.75-9.14,88.45c0.77,28.41,7.55,35.45,15.46,38.7c11.5,4.72,44.63,0.06,52.78-1.38
				C248.54,338.77,233.08,344.79,232.85,318.99z"/>
			<path class="st9" d="M235.35,332.96c-4.54-30.84-4.54-62.44-5.12-93.64"/>
			<path class="st9" d="M357.68,316.21c-1.7-25.87-2.32-51.81-1.84-77.73"/>
			<path class="st3" d="M319.13,320.91c3.12-6.25,10.15-14.05,11.45-21.6c1.3-7.55,5.73-11.45,12.49-14.32
				c6.77-2.86,13.01-4.16,16.66-5.21c3.64-1.04,4.69,2.86-0.52,5.21c-5.21,2.34-9.11,3.9-11.19,5.21c-2.08,1.3-3.38,4.94-3.38,4.94
				s8.07-3.64,15.88-3.38c7.81,0.26,13.79-0.26,14.06,2.08c0.26,2.34-3.38,4.69-10.67,4.94c-7.29,0.26-11.71,1.3-13.27,3.12
				c-1.56,1.82-3.77,2.7-3.77,2.7s11.32-0.88,17.04-1.14c5.73-0.26,10.15,4.16,6.77,5.47c-3.38,1.3-10.15,0.78-15.36,1.04
				c-5.21,0.26-8.45,5.99-8.45,5.99s6.11,0.52,12.62,0.78c6.51,0.26,8.85,2.6,4.68,4.16c-4.16,1.56-12.7,0.61-17.3,1.3
				c-4.6,0.69-14.19,3.9-14.19,3.9L319.13,320.91z"/>
			<g>
				<path class="st18" d="M320.46,348.59c12.15,1.01,11.48-22,11.48-22s-20.74-10.9-21.74-1.12
					C309.2,335.24,320.46,348.59,320.46,348.59z"/>
				<g>
					<path class="st3" d="M309.12,314.08c6.29,0.02,18.41-8.21,28.31-2.09c9.9,6.12,16.17,12.72,16.17,12.72s-19.87-0.31-30.75,4.83
						c-10.87,5.14-21.58,13.81-21.58,13.81L309.12,314.08z"/>
					<path class="st7" d="M306.8,315.9l5.7-4.41l8.54-0.5c0,0,4.97,17.24,6.39,20.83l-21.06,3.19L306.8,315.9z"/>
					<path class="st6" d="M312.5,311.48c-2.92,4.82,10.63,33.33,11.94,38.05c0,0-30.86,5.83-60.74,7.12
						c-34.62,1.49-59.83-0.05-67.79-5.48c-7.96-5.43,1.73-43.97,22.28-36.13c12.51,4.78,31.83,6.83,49.82,3.02
						C285.99,314.25,312.5,311.48,312.5,311.48z"/>
				</g>
			</g>
			<g>
				<g>
					<path class="st3" d="M272.57,311.48c-6.25-0.7-21.04-9.66-31.57-4.73c-10.54,4.94-17.52,10.78-17.52,10.78
						s24.84,3.48,35.05,9.84c10.21,6.36,19.85,16.2,19.85,16.2L272.57,311.48z"/>
					<path class="st7" d="M281.9,318.81l-9.33-7.32l-6.16-1.75c0,0-12.11,7.74-13.3,17.22c-1.19,9.47,0,9.88,0,9.88l22.18,3.83
						L281.9,318.81z"/>
					<path class="st6" d="M272.57,311.48c-8.06,2.77-13.78,4.68-13.78,31.87c0,0,25.91,11.81,55.45,16.52
						c34.22,5.45,53.04,0.03,61.58-4.46c8.53-4.48,10.44-44.64-7.68-39.79c-12.93,3.47-36.32,11.26-53.74,5.41
						C296.97,315.2,272.57,311.48,272.57,311.48z"/>
				</g>
			</g>
		</g>
		<path class="st9" d="M253.6,324.75c-16.25-5.64-34.28-8.14-51.56-7.44"/>
		<path class="st9" d="M208.37,360.14c28.98,1.29,60.21-3.74,86.42-5.71"/>
		<path class="st9" d="M366.14,360.2c-17.13,3.13-35.65,3.04-52.71-0.24c-11.64-2.24-22.48-5.9-33.72-8.85
			c-7.06-1.85-11.97-3.01-19.33-4.3c0,0-3.3-20.25,4.04-29.6"/>
		<path class="st9" d="M272.57,311.48c11.67,1.81,46.56,15.06,67.88,10.75"/>
	</g>
	<g style="clip-path:url(#SVGID_00000060714722099688174230000004194589280701246849_);">
		<g>
			<polygon class="st19" points="90.28,487.74 93.92,473.4 52.79,455.7 44.88,468.21 			"/>
			<polygon class="st19" points="127.42,401.44 119.14,414.81 78,397.11 82.02,381.9 			"/>
			<path class="st19" d="M276.62,515.71l0.14-0.33c2.79-6.48-1.2-13.93-8.17-15.06c-0.13-0.02-0.26-0.04-0.39-0.06
				c-8.35-1.32-16.48-3.78-24.1-7.44c-15.13-7.27-29.58-14.49-47.25-21.78c-20.39-8.41-88.24-35.77-88.24-35.77l-5.77,13.41
				c0,0,66.51,30.45,86.64,39.48c17.44,7.82,32.62,13.34,48.3,19.34c7.9,3.02,15.27,7.23,21.97,12.39c0.1,0.08,0.21,0.16,0.32,0.24
				C265.68,524.41,273.83,522.19,276.62,515.71z"/>
			<path class="st20" d="M180.59,464.4c-2.31,5.53-4.89,10.95-7.5,16.35c2.91,1.32,5.67,2.57,8.15,3.7
				c2.21-5.7,4.59-11.34,7.19-16.86C186.03,466.62,183.39,465.54,180.59,464.4z"/>
			<path class="st20" d="M240.38,491.03c-13.68-6.6-27.07-13.18-43.09-19.8c-2.66,5.61-5.07,11.35-7.32,17.16
				c15.65,7,29.49,12.16,43.53,17.49C235.73,500.9,238.04,495.96,240.38,491.03z"/>
			<path class="st21" d="M132.14,403.47L132.14,403.47c-1.15,2.67-4.25,3.91-6.92,2.76L80.06,386.8c-2.67-1.15-3.91-4.25-2.76-6.92
				l0,0c1.15-2.67,4.25-3.91,6.92-2.76l45.16,19.43C132.05,397.7,133.29,400.8,132.14,403.47z"/>
			<path class="st21" d="M124.46,416.68l-25.68,59.68c-0.48,1.11-1.76,1.62-2.87,1.14l-47.47-20.43c-1.11-0.48-1.62-1.76-1.14-2.87
				l25.68-59.67c0.48-1.11,1.76-1.62,2.87-1.14l47.47,20.42C124.42,414.29,124.93,415.58,124.46,416.68z"/>
			
				<rect x="89.32" y="387.7" transform="matrix(0.3952 -0.9186 0.9186 0.3952 -324.8052 338.0959)" class="st20" width="10.09" height="56.04"/>
			<path class="st21" d="M244.61,487.27L244.61,487.27c2.18,0.94,3.19,3.47,2.25,5.65l-7.11,16.52c-0.94,2.18-3.47,3.19-5.65,2.25
				l0,0c-3.1-1.33-4.53-4.93-3.2-8.03l5.68-13.19C237.91,487.37,241.51,485.94,244.61,487.27z"/>
			
				<rect x="72.1" y="426.34" transform="matrix(0.3952 -0.9186 0.9186 0.3952 -370.3505 346.1876)" class="st20" width="11.28" height="56.04"/>
			<path class="st21" d="M94.5,490.94L94.5,490.94c1.15-2.67-0.08-5.77-2.76-6.92l-45.16-19.43c-2.67-1.15-5.77,0.08-6.92,2.76l0,0
				c-1.15,2.67,0.08,5.77,2.76,6.92l45.16,19.43C90.25,494.85,93.35,493.62,94.5,490.94z"/>
		</g>
		<g>
			<path class="st21" d="M108.43,494.18H29.65c-1.45,0-2.62,1.17-2.62,2.62v11.5h84.03v-11.5
				C111.05,495.36,109.88,494.18,108.43,494.18z"/>
			<path class="st19" d="M117.56,501.25H20.52c-2.26,0-4.1,1.84-4.1,4.1v15.78h105.24v-15.78
				C121.66,503.08,119.82,501.25,117.56,501.25z"/>
		</g>
	</g>
	<g style="clip-path:url(#SVGID_00000060714722099688174230000004194589280701246849_);">
		<rect x="-37.88" y="543.95" class="st22" width="467.93" height="130.42"/>
		<g>
			<polygon class="st21" points="401.7,674.36 399.08,674.36 399.08,612.02 -6.9,612.02 -6.9,674.36 -9.52,674.36 -9.52,606.29 
				401.7,606.29 			"/>
		</g>
		<g>
			<rect x="-42.26" y="518.88" class="st19" width="476.69" height="45.08"/>
			<rect x="-53.51" y="518.88" class="st21" width="499.2" height="29.93"/>
		</g>
	</g>
	<g style="clip-path:url(#SVGID_00000060714722099688174230000004194589280701246849_);">
		<polyline class="st23" points="384.88,432.14 353.4,335.37 323.8,432.14 		"/>
		<line class="st23" x1="353.4" y1="324.3" x2="353.4" y2="434.08"/>
		<g>
			<path class="st24" d="M375.97,442.29c-6.76,0-36.5,0-43.25,0c-4.92,0-8.91-3.99-8.91-8.92v-1.23h61.07c0,0,0,0.48,0,1.23
				C384.88,438.3,380.89,442.29,375.97,442.29z"/>
			<path class="st21" d="M266.48,312.99l13.72-3.85c15.37-4.31,31.61-4.45,47.06-0.4l27.97,7.34c0,0-0.39-5.57,4.29-4.82
				c4.36,0.7,4.28,8.1-3.97,7.4l-27.99-4.93c-15.64-2.76-31.73-1.32-46.63,4.17l-14.09,5.19L266.48,312.99z"/>
			<path class="st24" d="M353.4,324.3L353.4,324.3c-0.72,0-1.3-0.58-1.3-1.3v-7.31c0-0.72,0.58-1.3,1.3-1.3l0,0
				c0.72,0,1.3,0.58,1.3,1.3V323C354.69,323.72,354.11,324.3,353.4,324.3z"/>
			<path class="st25" d="M385.99,436.01h-63.05c-1.07,0-1.93-0.87-1.93-1.93v-1.93h66.92v1.93
				C387.93,435.15,387.06,436.01,385.99,436.01z"/>
		</g>
		<polyline class="st23" points="151.13,432.14 182.61,335.37 212.2,432.14 		"/>
		<line class="st23" x1="182.61" y1="324.3" x2="182.61" y2="434.08"/>
		<g>
			<path class="st24" d="M160.04,442.29c6.76,0,36.5,0,43.25,0c4.92,0,8.91-3.99,8.91-8.92v-1.23h-61.07c0,0,0,0.48,0,1.23
				C151.13,438.3,155.12,442.29,160.04,442.29z"/>
			<path class="st21" d="M269.53,312.99l-18.7-4.59c-15.16-3.72-31.02-3.43-46.03,0.84l-24.02,6.84c0,0,0.39-5.57-4.29-4.82
				c-4.36,0.7-4.28,8.1,3.97,7.4l23.21-4.7c15.24-3.09,31.02-2.17,45.79,2.67l19.71,6.46L269.53,312.99z"/>
			<path class="st24" d="M182.61,324.3L182.61,324.3c0.72,0,1.3-0.58,1.3-1.3v-7.31c0-0.72-0.58-1.3-1.3-1.3l0,0
				c-0.72,0-1.3,0.58-1.3,1.3V323C181.31,323.72,181.89,324.3,182.61,324.3z"/>
			<path class="st25" d="M150.01,436.01h63.05c1.07,0,1.93-0.87,1.93-1.93v-1.93h-66.92v1.93
				C148.08,435.15,148.95,436.01,150.01,436.01z"/>
		</g>
		<polygon class="st21" points="271.7,281.63 263.63,281.63 263.68,310.69 261.5,450.73 273.83,450.73 271.64,310.69 		"/>
		<path class="st19" d="M258.88,316.88c0,5.48,3.93,9.92,8.78,9.92s8.78-4.44,8.78-9.92c0-5.48-3.93-9.92-8.78-9.92
			S258.88,311.4,258.88,316.88z"/>
		<path class="st19" d="M256.25,507.81h22.83v-59.24c0-1.34-1.08-2.42-2.42-2.42h-17.99c-1.34,0-2.42,1.08-2.42,2.42V507.81z"/>
		<path class="st21" d="M246.6,510.12h42.13v-3.41c0-0.67-0.54-1.21-1.21-1.21h-39.72c-0.67,0-1.21,0.54-1.21,1.21V510.12z"/>
		<path class="st19" d="M228.84,519.29h77.65v-6.81c0-1.3-1.06-2.36-2.36-2.36H231.2c-1.3,0-2.36,1.06-2.36,2.36V519.29z"/>
		<path class="st19" d="M267.66,288.72c2.68,0,4.97-1.91,5.48-4.53c0.32-1.63,0.51-3.39,0.29-4.86c-0.05-0.3-0.12-0.61-0.21-0.94
			c-0.66-2.32-2.89-3.85-5.31-3.85h-0.51c-2.41,0-4.64,1.53-5.31,3.85c-0.09,0.33-0.16,0.64-0.21,0.94
			c-0.22,1.47-0.03,3.23,0.29,4.86C262.69,286.81,264.98,288.72,267.66,288.72L267.66,288.72z"/>
	</g>
</g>
</svg>
