<svg id="Слой_1" data-name="Слой 1" xmlns="http://www.w3.org/2000/svg" xmlns:xlink="http://www.w3.org/1999/xlink" viewBox="0 0 332 217.97">
  <defs>
    <style>
      .cls-1 {
        fill: none;
      }

      .cls-2 {
        clip-path: url(#clip-path);
      }
    </style>
    <clipPath id="clip-path" transform="translate(-968 -417.02)">
      <rect class="cls-1" x="968" y="417" width="332" height="218"/>
    </clipPath>
  </defs>
  <title>judge</title>
  <g class="cls-2">
    <path d="M1300,570.4h-4l-46.33-99.93a6.27,6.27,0,0,0,.87-.91,18.8,18.8,0,0,0,10.89-16.86c.13-9-8-18.87-17.86-15.16-4.85,1.84-5.36,9.85-.9,12.45,1.28.74,4.08,1.41,4.9-.38,1.12-2.46-2.78-1.3-2.78-1.3s-.13-.19-.19-.27a3.75,3.75,0,0,1-.65-1.84v-.49a2.2,2.2,0,0,1,0-.44v0a2.7,2.7,0,0,1,.08-.41s0-.05,0-.06.08-.26.13-.38,0-.07,0-.1.1-.24.16-.35a.67.67,0,0,0,.06-.12,1.49,1.49,0,0,1,.18-.3l.09-.15.18-.27a1.58,1.58,0,0,0,.12-.15l.19-.23a1.49,1.49,0,0,1,.18-.17c.06-.06.12-.13.18-.18l.23-.17.17-.14.27-.19.14-.1a4.93,4.93,0,0,1,.46-.23c5.07-2.32,9.1,4.14,7.92,8.58a12.8,12.8,0,0,1-1,2.53,10.92,10.92,0,0,1-1.32,2c-.18.19-.34.38-.53.57-3.47,3.53-9,3.69-14,1.9a21.83,21.83,0,0,1-4-1.9c-6.67-4.1-12.79-9.06-19.14-13.65A103.81,103.81,0,0,0,1203,434c-.49-.27-1-.5-1.49-.76-18.1-9.06-40.55-9.52-59.57-2.44l-.19.07c-1,.36-2,.76-2.92,1.17l-.54.24c-.66.28-1.33.58-2,.9l-.38-8.11a4.34,4.34,0,0,0,3.4-3.88c0-2.3-2.37-4.16-5.3-4.16s-5.29,1.86-5.29,4.16a4.32,4.32,0,0,0,3.4,3.88l-.38,8.11c-.65-.32-1.31-.6-2-.9l-.53-.24c-1-.41-2-.81-2.93-1.17l-.19-.08c-19-7.08-41.47-6.62-59.57,2.44-.5.25-1,.49-1.48.76-11.1,5.92-20.33,14.68-31,21.25a8,8,0,0,1-.7.41c-4.71,2.65-10.63,3.6-14.95,1.33a10.13,10.13,0,0,1-4.9-6c-.09-.28-.19-.58-.27-.9-1.18-4.44,2.85-10.9,7.92-8.58a4.93,4.93,0,0,1,.46.23,1.12,1.12,0,0,0,.16.1l.27.17.17.14.22.18.19.19.17.17.19.23a1,1,0,0,1,.13.15c.06.1.13.18.19.27l.09.15a1.57,1.57,0,0,1,.18.31s.05.08.06.11a2.72,2.72,0,0,1,.16.35s0,.06,0,.1a2.23,2.23,0,0,1,.13.39.17.17,0,0,0,0,.07c0,.14.07.28.1.42v0c0,.15,0,.31,0,.45h0v.48a3.79,3.79,0,0,1-.65,1.84l-.19.27s-3.91-1.16-2.78,1.29c.82,1.78,3.62,1.13,4.9.38,4.45-2.59,4-10.62-.9-12.44-9.82-3.71-18,6.16-17.86,15.15a18.77,18.77,0,0,0,10.89,16.87,8.11,8.11,0,0,0,.86.9L972,570.4h-4l.08.38a32.68,32.68,0,0,0,2.2,6.52,31.37,31.37,0,0,0,2.84,5s0,0,0,.05c.26.35.51.7.78,1l.19.23c.25.34.52.67.8,1,0,0,.07.06.08.09.54.62,1.09,1.2,1.68,1.79.11.1.2.21.3.3.23.24.49.46.74.68l.55.49.7.6.71.57c.21.16.41.34.63.5.45.33.9.65,1.36,1l.52.33,1,.67.58.35c.36.22.74.43,1.12.63l.54.29c.55.3,1.12.58,1.71.85.93.45,1.91.86,2.92,1.27a3.08,3.08,0,0,1,.38.16l1.25.46.54.19,1.21.41c.23.06.43.14.65.21.4.12.81.23,1.2.36l.73.2c.4.12.79.23,1.19.32l.8.21,1.19.28.87.19,1.18.26.93.19,1.19.22,1,.17,1.19.19,1.07.16,1.19.16c.38,0,.75.09,1.15.12s.77.1,1.17.13.82.08,1.23.11l1.16.1,1.31.09c.38,0,.74,0,1.12.08l1.44.07,1.06,0,1.69.05.87,0c.87,0,1.75,0,2.64,0s1.77,0,2.64,0l.88,0c.57,0,1.14,0,1.69-.05.37,0,.71,0,1.06,0l1.44-.07c.38,0,.76,0,1.12-.08l1.33-.09a1.51,1.51,0,0,0,.3,0,8.14,8.14,0,0,0,.85-.08l1.24-.11,1.17-.13c.38,0,.77-.07,1.15-.12l1.18-.16,1.08-.16,1.18-.19,1-.17,1.18-.22.93-.19c.4-.08.79-.16,1.19-.26l.87-.19,1.18-.28.81-.21c.4-.11.81-.2,1.19-.32l.72-.2c.41-.11.81-.24,1.2-.36.23-.07.43-.15.65-.21l1.22-.41.54-.19,1.24-.46.38-.16c.42-.16.81-.32,1.21-.49.58-.26,1.15-.51,1.72-.78s1.15-.57,1.71-.85l.53-.29c.38-.2.76-.41,1.12-.63l.59-.35c.36-.22.71-.44,1-.67l.51-.33c.46-.31.92-.63,1.36-1,.2-.16.41-.32.61-.5l.73-.57c.24-.19.48-.39.7-.6l.55-.49c.25-.22.49-.44.73-.68a3.17,3.17,0,0,0,.31-.32c.59-.57,1.14-1.17,1.66-1.77a.55.55,0,0,0,.1-.11c.27-.32.53-.65.79-1l.19-.24c.27-.35.52-.7.77-1,0,0,0,0,0,0a32,32,0,0,0,5-11.52l.08-.38h-4l-45.83-98.85c19.61-2,50.48-30.63,72.1-27.56,17.34,2.46,26.82,11,30.72,15.46l-7.14,155.93a21.89,21.89,0,0,0-.16,3.45h-22.47s-26.78.61-34.09,10.88h-1.16a2.65,2.65,0,0,0,0,5.29H1203a2.65,2.65,0,0,0,0-5.29h-1.77c-7.32-10.27-34.1-10.88-34.1-10.88H1144.7a21.89,21.89,0,0,0-.16-3.45l-7.14-155.93c3.9-4.48,13.38-13,30.72-15.46,21.62-3.07,52.49,25.58,72.11,27.56l-45.84,98.85h-4l.08.38a33.18,33.18,0,0,0,2.19,6.53,32.69,32.69,0,0,0,2.85,5s0,0,0,0l.77,1,.19.24.79,1,.1.09c.52.62,1.09,1.21,1.66,1.78l.32.32c.23.23.49.45.72.68l.56.49.69.6.73.57.61.49,1.36,1,.51.33c.35.22.69.44,1.06.66l.58.35c.37.22.75.43,1.13.64.17.09.34.19.53.28.56.3,1.12.59,1.71.86l1.56.71,1.35.55.39.16c.41.16.82.32,1.25.46.19.06.36.14.55.21.4.14.81.27,1.21.39l.64.21,1.2.36.73.21c.4.11.79.2,1.19.32l.8.2,1.19.29.87.19c.39.08.79.15,1.18.25l1,.19,1.19.22,1,.18,1.18.19c.37,0,.72.09,1.08.15l1.18.16c.38.05.76.1,1.16.13l1.17.13,1.23.11,1.15.09,1.33.1,1.12.08,1.44.06,1.06,0,1.69,0,.89,0q1.31,0,2.64,0c.88,0,1.77,0,2.64,0l.88,0c.57,0,1.14,0,1.69,0,.37,0,.71,0,1.06,0l1.44-.06,1.12-.08,1.31-.1,1.16-.09,1.23-.11,1.17-.13,1.15-.13c.4,0,.79-.09,1.19-.16s.71-.09,1.07-.15l1.19-.19,1-.18c.4-.06.79-.14,1.19-.22l.93-.19,1.18-.25.87-.19,1.19-.29.8-.2c.4-.12.79-.21,1.19-.32s.49-.14.73-.21l1.2-.36.65-.21c.41-.12.8-.27,1.21-.41.19-.06.37-.13.56-.21l1.24-.45c.13-.05.26-.12.38-.16.4-.16.81-.32,1.19-.49l.14-.07c.54-.23,1.06-.46,1.57-.71s1.15-.57,1.7-.86l.54-.28c.38-.21.76-.41,1.12-.63l.59-.35,1.06-.67.5-.33c.46-.32.92-.63,1.36-1,.21-.15.41-.31.62-.49l.72-.57c.24-.19.48-.39.7-.6l.55-.49c.26-.22.49-.44.73-.68l.32-.32c.58-.57,1.13-1.17,1.66-1.77l.09-.1c.27-.31.54-.65.79-1l.19-.24c.27-.34.52-.69.78-1,0,0,0,0,0,0a30.31,30.31,0,0,0,2.84-5,33.33,33.33,0,0,0,2.2-6.52l.08-.38Zm-6.7,0h-46.8V472a5.89,5.89,0,0,0,1-.28Zm-272.84-98.68a5.89,5.89,0,0,0,1,.28v98.4H974.7ZM1024,570.4V472a6.19,6.19,0,0,0,1.1-.3l45.76,98.68H1024Zm219-98.68a9.89,9.89,0,0,0,1.1.3v98.4h-46.84l45.75-98.69Z" transform="translate(-968 -417.02)"/>
  </g>
</svg>
