<?xml version="1.0" encoding="utf-8"?>
<!-- Generator: Adobe Illustrator 27.0.0, SVG Export Plug-In . SVG Version: 6.00 Build 0)  -->
<svg version="1.1" id="Layer_1" xmlns="http://www.w3.org/2000/svg" xmlns:xlink="http://www.w3.org/1999/xlink" x="0px" y="0px"
	 viewBox="0 0 212 59" style="enable-background:new 0 0 212 59;" xml:space="preserve">
<style type="text/css">
	.st0{fill:#1B1B1B;}
	.st1{fill:#202020;}
	.st2{fill:#B8B8B8;}
	.st3{fill:#1F1F1F;}
	.st4{fill:#181818;}
	.st5{fill:#BDBDBD;}
	.st6{fill:#252525;}
	.st7{fill:#131313;}
	.st8{fill:#2E2E2E;}
	.st9{fill:#2F2F2F;}
	.st10{fill:#B0B0B0;}
	.st11{fill:#C7C7C7;}
	.st12{fill:#0E0E0E;}
	.st13{fill:#C2C2C2;}
	.st14{fill:#ABABAB;}
	.st15{fill:#373737;}
	.st16{fill:#2A2A2A;}
	.st17{fill:#292929;}
	.st18{fill:#090909;}
	.st19{fill:#A7A7A7;}
	.st20{fill:#3C3C3C;}
	.st21{fill:#040404;}
	.st22{fill:#CFCFCF;}
	.st23{fill:#333333;}
	.st24{fill:#DADADA;}
	.st25{fill:#D4D4D4;}
	.st26{fill:#D9D9D9;}
	.st27{fill:#CBCBCB;}
	.st28{fill:#D5D5D5;}
	.st29{fill:#DDDDDD;}
	.st30{fill:#A2A2A2;}
	.st31{fill:#414141;}
	.st32{fill:#9D9D9D;}
	.st33{fill:#8A8A8A;}
	.st34{fill:#5C5C5C;}
	.st35{fill:#464646;}
	.st36{fill:#909090;}
	.st37{fill:#535353;}
	.st38{fill:#616161;}
	.st39{fill:#7E7E7E;}
	.st40{fill:#6F6F6F;}
	.st41{fill:#747474;}
	.st42{fill:#4B4B4B;}
	.st43{fill:#6A6A6A;}
	.st44{fill:#797979;}
	.st45{fill:#949494;}
	.st46{fill:#575757;}
	.st47{fill:#858585;}
	.st48{fill:#999999;}
	.st49{fill:#4F4F4F;}
	.st50{fill:#818181;}
	.st51{fill:#656565;}
	.st52{fill:#9C9C9C;}
	.st53{fill:#8F8F8F;}
	.st54{fill:#7D7D7D;}
	.st55{fill:#6E6E6E;}
</style>
<g>
	<path class="st0" d="M152.1,0.4c-0.5,0.6-1.1,1.1-1.6,1.7c-1.7,1.8-3.4,3.5-5.2,5.2c0.3,0,0.6,0.1,0.9,0.2c0.5,0.1,0.9,0.4,1.4,0.7
		c0.3,0.2,0.4,0.5,0.6,0.8c1.9,2.9,3.8,5.7,5.7,8.6c0.3,0.5,0.7,1,1,1.5c0.1,0.2,0.2,0.2-0.1,0.3c-0.8,0.1-1.6,0.2-2.4,0.2
		c-0.3,0-0.6,0-0.9,0.1c-0.1,0-0.2,0-0.3-0.1c-0.6-0.9-1.2-1.9-1.7-2.8c-1.2-1.8-2.3-3.7-3.5-5.5c-0.5-0.8-1.3-1.3-2.3-1.3
		c-0.6,0-1.3,0-1.9,0c-0.3,0-0.3,0.1-0.3,0.3c0,2.9,0,5.8,0,8.7c0,0.3-0.1,0.4-0.4,0.4c-0.9,0-1.8,0-2.8,0c-0.3,0-0.3-0.1-0.3-0.4
		c0-2.9,0-5.8,0-8.7c0-0.3-0.1-0.3-0.3-0.3c-0.7,0-1.3,0-2,0c-0.6,0-1.2,0.2-1.6,0.7c-0.7,0.7-1.1,1.5-1.6,2.3c-1.3,2-2.6,4-3.9,6.1
		c-0.4,0.6-0.4,0.6-1.1,0.5c-0.8-0.1-1.7-0.2-2.5-0.2c-0.2,0-0.4,0-0.6-0.1c-0.1-0.2,0.1-0.3,0.2-0.5c1.2-1.8,2.4-3.6,3.6-5.4
		c1.1-1.6,2.1-3.1,3.2-4.7c0.5-0.8,1.2-1.2,2-1.4c0.3-0.1,0.3-0.1,0.1-0.3c-0.1-0.1-0.2-0.2-0.3-0.3c-1.3-1.2-2.5-2.5-3.7-3.8
		c-0.7-0.7-1.3-1.4-2-2.1c-0.1-0.1-0.2-0.2-0.1-0.4c1.3,0,2.6,0,3.9,0c0.3,0.1,0.5,0.3,0.7,0.5c1.1,1.1,2.2,2.1,3.2,3.2
		c0.8,0.8,1.5,1.6,2.3,2.4c0.1,0.1,0.1,0.2,0.2,0.2c0.1,0.1,0.2,0.1,0.2-0.1c0-0.1,0-0.2,0-0.3c0-1.8,0-3.6,0-5.4
		c0-0.2,0-0.4,0.2-0.5c1.1,0,2.3,0,3.5,0c0.2,0.1,0.1,0.3,0.1,0.5c0,1.8,0,3.6,0,5.4c0,0.1-0.1,0.3,0.1,0.4c0.2,0.1,0.2-0.1,0.3-0.2
		c1.4-1.4,2.9-2.9,4.3-4.3c0.4-0.4,0.8-0.9,1.2-1.3c0.2-0.2,0.4-0.4,0.7-0.5C149.5,0.4,150.8,0.4,152.1,0.4z"/>
	<path class="st0" d="M70.7,0.4c0,6.2,0,12.3,0,18.5c0,0.5,0.1,0.4-0.4,0.4c-1,0-2,0-2.9,0c0-4.9,0-9.8,0-14.8
		c-0.7,0.7-1.3,1.4-1.9,2.1c-0.3,0.3-0.5,0.5-0.8,0.8c-0.6,0.7-1.3,1.4-1.9,2c-1,1.1-2,2.2-3,3.3c-0.4,0.4-0.7,0.8-1.1,1.2
		c-0.1,0.1-0.1,0.1-0.1,0.2c0,1.6,0,3.3,0,4.9c0,0.2-0.1,0.2-0.2,0.2c-0.1,0-0.2,0-0.2,0c-0.8,0-1.7,0-2.6,0c-0.5,0-0.4,0.1-0.4-0.4
		c0-3.6,0-7.3,0-10.9c0-2.5,0-5,0-7.6c1.1,0,2.2,0,3.3,0c0.2,0.1,0.2,0.2,0.2,0.3c0,0.2,0,0.3,0,0.4c0,2.6,0,5.1,0,7.6
		c0,0.1-0.1,0.3,0.1,0.4C58.9,9.3,59,9.1,59,9c0.3-0.4,0.7-0.7,1.1-1.1c1.2-1.2,2.3-2.5,3.5-3.7c1.1-1.1,2.2-2.3,3.2-3.4
		c0.1-0.2,0.3-0.2,0.5-0.3C68.5,0.4,69.6,0.4,70.7,0.4z"/>
	<path class="st0" d="M171.7,0.4c0.1,0.1,0.1,0.2,0.1,0.4c0,6.1,0,12.2,0,18.2c0,0.2,0,0.3-0.3,0.3c-1,0-2.1,0-3.1,0
		c0-0.1,0-0.2,0-0.3c0-2.9,0-5.8,0-8.7c0-0.3-0.1-0.3-0.3-0.3c-2.7,0-5.3,0-8,0c-0.3,0-0.3,0.1-0.3,0.3c0,2.9,0,5.8,0,8.7
		c0,0.3-0.1,0.3-0.3,0.3c-0.9,0-1.8,0-2.8,0c-0.3,0-0.3-0.1-0.3-0.3c0-2.9,0-5.8,0-8.7c0-0.3-0.1-0.4-0.4-0.4c-0.3,0-0.6,0-1,0
		c-0.1,0-0.2,0-0.2-0.2c0-0.8,0-1.5,0-2.3c0-0.2,0.1-0.2,0.3-0.2c0.3,0,0.6,0,0.9,0c0.3,0,0.3-0.1,0.3-0.3c0-2.2,0-4.4,0-6.5
		c1.1,0,2.3,0,3.4,0c0.2,0.2,0.1,0.4,0.1,0.6c0,1.8,0,3.5,0,5.3c0,0.8,0,0.8,0.8,0.8c2.2,0,4.5,0,6.7,0c0.1,0,0.3,0,0.4,0
		c0.2,0,0.3-0.2,0.4-0.4c0-0.1,0-0.3,0-0.4c0-1.8,0-3.6,0-5.4c0-0.2,0-0.4,0.1-0.6C169.5,0.4,170.6,0.4,171.7,0.4z"/>
	<path class="st0" d="M212,19.3c-0.1-0.1-0.3,0-0.4,0c-4.3,0-8.5,0-12.8,0c-0.3,0-0.3-0.1-0.3-0.4c0-6.2,0-12.4,0-18.5
		c4.3,0,8.6,0,12.9,0c0.2,0.1,0.2,0.2,0.2,0.3c0,0.7,0,1.4,0,2.1c0,0.3-0.1,0.4-0.4,0.4c-2.7,0-5.5,0-8.2,0c-0.8,0-0.9,0-0.9,0.9
		c0,0.7,0,1.5,0,2.2c0,0.8,0,0.8,0.8,0.8c2.8,0,5.5,0,8.3,0c0.2,0,0.3,0,0.5,0c0.2,0,0.3,0.1,0.4,0.3c0,0.9,0,1.7,0,2.6
		c-0.2,0.1-0.4,0.1-0.6,0.1c-2.9,0-5.7,0-8.6,0c-0.8,0-0.8,0.1-0.8,0.8c0,1.6,0,3.2,0,4.7c0,0.7,0.1,0.8,0.8,0.8c2.9,0,5.7,0,8.6,0
		c0.2,0,0.5-0.1,0.6,0.2C212,17.6,212,18.4,212,19.3z"/>
	<path class="st0" d="M87.7,0.4c0,0,0.1,0.1,0.1,0.1c0,0.9,0,1.7,0,2.6c-2,0-4.1,0-6.1,0c0,0.1,0,0.2,0,0.4c0,5.2,0,10.3,0,15.5
		c0,0.3-0.1,0.4-0.4,0.4c-0.9,0-1.8,0-2.7,0c-0.3,0-0.3-0.1-0.3-0.3c0-5.2,0-10.3,0-15.5c0-0.4,0-0.4-0.4-0.4c-1.8,0-3.6,0-5.4,0
		c-0.2,0-0.3-0.1-0.3-0.3c0-0.8,0-1.6,0-2.4C77.4,0.4,82.6,0.4,87.7,0.4z"/>
	<path class="st0" d="M195.8,0.4c0.1,0.1,0.1,0.2,0.1,0.4c0,6.1,0,12.1,0,18.2c0,0.3-0.1,0.3-0.3,0.3c-1,0-1.9,0-2.9,0
		c-0.2,0-0.2-0.1-0.2-0.2c0-0.1,0-0.2,0-0.3c0-6.1,0-12.3,0-18.4C193.5,0.4,194.6,0.4,195.8,0.4z"/>
	<path class="st0" d="M120.6,51.8c-0.1,0.1-0.1,0.2-0.3,0.2c-0.2,0.2-0.5,0.2-0.8,0.2c-2.7,0-5.4,0-8.1,0c-0.1,0-0.2,0-0.4,0
		c-0.5,0-0.6,0.1-0.6,0.6c0,0.2,0,0.5,0,0.7c0,0.2,0,0.5,0,0.7c0,0.2,0,0.5,0,0.8c0,0.2,0,0.5,0,0.7c0,0.1,0,0.3-0.2,0.4
		c0,0.9,0,1.7,0,2.6c0,0,0,0-0.1,0c-1.5-1-2.9-1.9-4.4-2.9c-0.6-0.1-1-0.5-1.5-0.8c-0.3-0.3-0.8-0.5-1.1-0.7
		c-0.3-0.3-0.7-0.5-1.1-0.7c-0.2-0.3-0.2-0.3,0.1-0.5c0.2-0.2,0.5-0.2,0.6-0.4c0.2-0.1,0.4-0.2,0.6-0.4c0.4-0.2,0.7-0.5,1-0.6
		c0.1,0,0.1-0.2,0.2-0.2c0.3-0.2,0.7-0.3,1-0.6c0.2-0.1,0.3-0.1,0.4-0.3c1.3-0.8,2.5-1.6,3.8-2.4c0.1,0,0.1-0.1,0.2-0.1
		c0.3-0.2,0.5-0.1,0.5,0.3c0,0.5,0,1,0,1.5c0,0.4,0,0.8,0,1.3c0.1,0.5,0.2,0.6,0.7,0.6c3,0,5.9,0,8.9,0
		C120.2,51.6,120.4,51.6,120.6,51.8z"/>
	<path class="st0" d="M97,28.1c0.1-0.1,0.2-0.2,0.2-0.2c0.3-0.1,0.6-0.2,0.9-0.2c2.8,0,5.6,0,8.4,0c0.1,0,0.2,0,0.4,0
		c0.5,0,0.6-0.1,0.6-0.6c0-0.2,0-0.5,0-0.7c0-0.2,0-0.5,0-0.7c0-0.2,0-0.5,0-0.8c0-0.2,0-0.5,0-0.8c0-0.2,0-0.3,0.1-0.4
		c0-0.8,0-1.7,0-2.5c0-0.1,0-0.2,0-0.2c0.1-0.1,0.2,0,0.2,0.1c1.3,0.8,2.6,1.7,3.9,2.5c0.3,0.2,0.6,0.4,0.9,0.6
		c0.6,0.2,1.1,0.6,1.7,0.9c0.3,0.2,0.5,0.4,0.8,0.5c0.1,0.2,0.4,0.3,0.6,0.4c0.2,0.1,0.3,0.2,0.2,0.5c-0.2,0.2-0.5,0.3-0.8,0.5
		c-0.1,0.1-0.3,0.2-0.4,0.3c-0.2,0.1-0.4,0.2-0.6,0.4c-0.4,0.3-0.8,0.5-1.2,0.8c-0.3,0.2-0.7,0.3-0.9,0.6c-0.2,0.1-0.3,0.1-0.4,0.3
		c-1.1,0.7-2.2,1.4-3.3,2.1c-0.1,0.1-0.2,0.2-0.3,0.2c-0.3,0.2-0.5,0.1-0.5-0.3c0-0.8,0-1.6,0-2.4c0-0.1,0-0.1,0-0.2
		c-0.1-0.5-0.2-0.6-0.7-0.6c-3.1,0-6.2,0-9.3,0C97.4,28.3,97.1,28.4,97,28.1z"/>
	<path class="st1" d="M97,28.1c3.3,0,6.7,0,10,0c0.6,0,0.6,0,0.6,0.6c0,0.1,0,0.1,0,0.2c-0.2,0.2-0.4,0.1-0.6,0.2
		c-0.2,0-0.4,0-0.7-0.1c-0.2-0.1-0.3,0-0.5,0c-0.6,0.1-1.3,0.1-1.9,0.1c-2.4,0-4.8,0-7.2,0c-0.2,0-0.4,0.1-0.5-0.2
		C96.4,28.6,96.7,28.4,97,28.1z"/>
	<path class="st2" d="M121.9,29.7c0.4,0.3,0.6,0.6,0.8,1c-0.1,0.2-0.3,0.2-0.4,0.2c-0.8,0-1.7,0-2.5,0c-1.3,0-2.7,0-4,0
		c-0.2,0-0.5-0.1-0.7,0c-0.1,0-0.2,0-0.3-0.1c-0.5-0.3-1.1-0.6-1.7-0.9c-0.1-0.1-0.2-0.2-0.1-0.3c0.2-0.1,0.3-0.1,0.5-0.1
		c2.6,0,5.1,0,7.7,0C121.5,29.6,121.7,29.6,121.9,29.7z"/>
	<path class="st2" d="M95.6,50.2c-0.3-0.3-0.6-0.7-0.8-1C94.9,49,95,49,95.2,49c0.8,0,1.6,0,2.5,0c1.3,0,2.7,0,4,0
		c0.2,0,0.5,0.1,0.8,0c0.1,0,0.2,0,0.3,0.1c0.5,0.3,1,0.6,1.5,0.8c0.2,0.1,0.3,0.2,0.1,0.4c-0.2,0.1-0.3,0.1-0.5,0.1
		c-2.6,0-5.1,0-7.6,0C96,50.3,95.8,50.3,95.6,50.2z"/>
	<path class="st3" d="M120.6,51.8c-3.2,0-6.4,0-9.7,0c-0.6,0-0.6,0-0.6-0.6c0-0.1,0-0.1,0-0.2c0.1-0.1,0.2-0.1,0.3-0.2
		c0.4-0.1,0.8,0.1,1.1,0.1c3-0.2,6.1,0,9.1-0.1c0.2,0,0.4-0.1,0.5,0.2C121.1,51.3,120.9,51.5,120.6,51.8z"/>
	<path class="st4" d="M107.6,27.2c0,0.8,0.1,0.7-0.7,0.7c-3.2,0-6.4,0-9.7,0c0.3-0.2,0.6-0.5,0.9-0.7c0.2-0.1,0.5-0.2,0.7-0.2
		c2.7,0,5.5,0,8.2,0C107.3,27,107.5,27,107.6,27.2z"/>
	<path class="st4" d="M110.3,52.7c0-0.8-0.1-0.7,0.7-0.7c3.1,0,6.2,0,9.2,0c-0.3,0.3-0.6,0.5-0.9,0.7c-0.2,0.1-0.4,0.2-0.7,0.2
		c-2.6,0-5.2,0-7.9,0C110.6,52.9,110.4,52.9,110.3,52.7z"/>
	<path class="st5" d="M121.9,29.7c-2.9,0-5.9,0-8.8,0c-0.1,0.1-0.2,0.1-0.3,0.1c-0.3-0.1-0.7-0.2-1-0.3c-0.1,0-0.2-0.1-0.2-0.2
		c0.1-0.1,0.2-0.2,0.4-0.2c0.2-0.1,0.5-0.2,0.7-0.2c2.6,0,5.3,0,8,0c0.2,0,0.5,0,0.7,0.2C121.6,29.2,121.8,29.4,121.9,29.7z"/>
	<path class="st5" d="M95.6,50.2c2.9,0,5.9,0,8.8,0c0.1-0.1,0.2-0.1,0.3-0.1c0.4,0.1,0.8,0.2,1.1,0.4c0.1,0,0.2,0.1,0.2,0.2
		c-0.1,0.1-0.2,0.2-0.4,0.2c-0.3,0.1-0.6,0.2-0.9,0.2c-2.6,0-5.2,0-7.8,0c-0.3,0-0.5,0-0.8-0.2C96,50.7,95.8,50.5,95.6,50.2z"/>
	<path class="st6" d="M96.2,28.9c3.6,0,7.2,0,10.8,0c0,0.1-0.1,0.2-0.2,0.2c-1,0.1-1.9,0.4-2.8,0.7c0,0,0,0-0.1,0
		c-0.2-0.1-0.4-0.1-0.5,0c-0.1,0-0.2,0-0.3,0c-2.4,0-4.8,0-7.2,0c-0.2,0-0.4,0.1-0.5-0.2C95.7,29.4,96,29.2,96.2,28.9z"/>
	<path class="st6" d="M121.4,51c-3.6,0-7.2,0-10.8,0c0-0.1,0.1-0.2,0.2-0.2c0.9-0.1,1.9-0.3,2.7-0.7c0,0,0.1,0,0.1,0
		c0.2,0.1,0.3,0.1,0.5,0c0.1,0,0.2,0,0.3,0c2.4,0,4.7,0,7.1,0c0.2,0,0.4-0.1,0.5,0.2C121.8,50.5,121.6,50.8,121.4,51z"/>
	<path class="st7" d="M107.6,27.2c-3.2,0-6.3,0-9.5,0c0.3-0.3,0.7-0.5,1-0.7c0.3-0.1,0.6-0.2,1-0.2c2.3,0,4.6,0,6.9,0
		c0.2,0,0.4-0.1,0.6,0.2C107.6,26.7,107.6,26.9,107.6,27.2z"/>
	<path class="st7" d="M110.3,52.7c3,0,6,0,9.1,0c-0.3,0.3-0.6,0.5-1,0.7c-0.2,0.1-0.5,0.2-0.8,0.2c-2.3,0-4.5,0-6.7,0
		c-0.2,0-0.4,0-0.5-0.2C110.3,53.2,110.3,53,110.3,52.7z"/>
	<path class="st8" d="M94.5,31.1c0.2-0.3,0.3-0.6,0.5-0.8c0.2-0.1,0.4-0.2,0.6-0.2c2.2,0,4.5,0,6.7,0c0.2,0,0.3,0,0.4,0.1
		c0.2,0.1,0.1,0.2,0,0.3c-0.3,0.2-0.6,0.5-1,0.7c-0.1,0-0.1,0-0.2,0c-0.2-0.1-0.4,0-0.6,0c-2,0-4,0-6,0
		C94.8,31.2,94.6,31.3,94.5,31.1z"/>
	<path class="st9" d="M123.1,48.9c0,0.1,0,0.1-0.1,0.2c-0.2,0.2-0.3,0.4-0.5,0.6c-0.2,0.1-0.3,0.2-0.5,0.2c-2.3,0-4.5,0-6.8,0
		c-0.1,0-0.2,0-0.4,0c-0.1-0.1-0.1-0.2,0-0.3c0.4-0.3,0.7-0.6,1.1-0.7c0.2,0.1,0.4,0,0.6,0c2,0,4.1,0,6.1,0
		C122.8,48.7,123,48.7,123.1,48.9z"/>
	<path class="st10" d="M102.5,49.2c-2.6,0-5.2,0-7.8,0c-0.2-0.2-0.3-0.5-0.5-0.7c0.1-0.2,0.3-0.2,0.5-0.2c1,0,1.9,0,2.9,0
		c1.1,0,2.1,0,3.2,0c0.2,0,0.5,0.1,0.7,0c0.1,0,0.2,0,0.3,0.1c0.2,0.2,0.5,0.4,0.7,0.5C102.5,49,102.6,49,102.5,49.2z"/>
	<path class="st10" d="M115,30.8c2.6,0,5.1,0,7.7,0c0.1,0.1,0.2,0.2,0.2,0.3c0.1,0.2,0.2,0.3,0.3,0.4c-0.1,0.2-0.3,0.2-0.4,0.2
		c-0.8,0-1.6,0-2.4,0c-1,0-2,0-3,0c-0.5,0-0.9,0-1.3,0c-0.1,0-0.2,0-0.3-0.1c-0.2-0.2-0.5-0.3-0.7-0.5C115.1,31,115,30.9,115,30.8z"
		/>
	<path class="st11" d="M104.7,51.5c-0.4,0.3-0.8,0.6-1.2,0.8c-0.2,0.1-0.5,0.2-0.7,0.2c-1.4,0-2.9,0-4.3,0c-0.2,0-0.5,0-0.7-0.2
		c-0.3-0.2-0.7-0.5-0.9-0.8c0.1-0.2,0.3-0.2,0.4-0.2c0.7,0,1.4,0,2.1,0c1.6,0,3.2,0,4.8,0C104.4,51.4,104.6,51.3,104.7,51.5z"/>
	<path class="st11" d="M112.8,28.4c0.4-0.3,0.8-0.6,1.2-0.8c0.3-0.1,0.6-0.2,0.9-0.2c1.3,0,2.7,0,4,0c0.3,0,0.6,0,0.8,0.2
		c0.3,0.2,0.6,0.5,0.8,0.8c-0.1,0.2-0.3,0.2-0.4,0.2c-0.7,0-1.4,0-2.1,0c-1.6,0-3.1,0-4.7,0C113.2,28.5,113,28.6,112.8,28.4z"/>
	<path class="st12" d="M107.6,26.4c-2.8,0-5.6,0-8.5,0c0.4-0.2,0.7-0.5,1.1-0.7c0.2-0.1,0.5-0.2,0.8-0.2c2,0,4.1,0,6.1,0
		c0.2,0,0.3,0,0.4,0.2C107.6,26,107.6,26.2,107.6,26.4z"/>
	<path class="st13" d="M104.7,51.5c-2.6,0-5.2,0-7.9,0c-0.2-0.2-0.4-0.4-0.6-0.6c3.1,0,6.3,0,9.4,0
		C105.4,51.2,105.1,51.4,104.7,51.5z"/>
	<path class="st13" d="M112.8,28.4c2.6,0,5.2,0,7.8,0c0.3,0.2,0.5,0.4,0.7,0.6c-3.1,0-6.3,0-9.4,0C112.2,28.8,112.5,28.6,112.8,28.4
		z"/>
	<path class="st14" d="M101.6,48.4c-2.4,0-4.9,0-7.3,0c-0.2-0.2-0.3-0.5-0.4-0.7c0.1-0.2,0.3-0.2,0.5-0.2c0.9,0,1.8,0,2.7,0
		c0.8,0,1.6,0,2.4,0c0.4,0,0.8,0,1.2,0.1c0.1,0,0.2,0,0.3,0.1c0.2,0.2,0.4,0.4,0.6,0.6C101.6,48.3,101.6,48.4,101.6,48.4z"/>
	<path class="st12" d="M110.3,53.5c2.7,0,5.4,0,8,0c-0.3,0.3-0.7,0.5-1.1,0.7c-0.4,0.1-0.8,0.2-1.2,0.2c-1.7,0-3.4,0-5.1,0
		c-0.2,0-0.4,0-0.6-0.2C110.3,53.9,110.3,53.7,110.3,53.5z"/>
	<path class="st15" d="M93.8,32.2c0.2-0.2,0.3-0.5,0.5-0.7c0.1-0.1,0.3-0.2,0.5-0.2c2,0,4.1,0,6.1,0c0.1,0,0.2,0,0.3,0
		c0.1,0.1,0.2,0.2,0.1,0.3c-0.2,0.3-0.5,0.6-0.8,0.7c-1.2,0.1-2.5,0-3.7,0c-0.8,0-1.7,0-2.5,0C94.1,32.3,93.9,32.3,93.8,32.2z"/>
	<path class="st16" d="M114.7,49.6c2.6,0,5.2,0,7.8,0c-0.1,0.2-0.3,0.4-0.5,0.6c-2.8,0-5.7,0-8.5,0c0-0.1,0-0.2,0.1-0.2
		c0.3-0.2,0.5-0.3,0.8-0.4C114.6,49.6,114.7,49.5,114.7,49.6z"/>
	<path class="st17" d="M102.8,30.3c-2.6,0-5.2,0-7.8,0c0.2-0.2,0.3-0.4,0.5-0.6c2.8,0,5.7,0,8.5,0c0,0.1,0,0.2-0.1,0.2
		c-0.3,0.1-0.6,0.3-0.8,0.4C103,30.4,102.9,30.4,102.8,30.3z"/>
	<path class="st18" d="M107.6,25.8c-2.4,0-4.9,0-7.3,0c0.5-0.3,1.1-0.6,1.6-0.7c0.3-0.1,0.6-0.2,1-0.2c1.4,0,2.8,0,4.2,0
		c0.2,0,0.4,0,0.5,0.2C107.6,25.3,107.6,25.5,107.6,25.8z"/>
	<path class="st19" d="M100.8,47.7c-2.3,0-4.6,0-6.9,0c0,0-0.1-0.1-0.1-0.1c-0.1-0.2-0.2-0.4-0.2-0.5c0.1-0.2,0.3-0.2,0.5-0.2
		c1.4,0,2.7,0,4.1,0c0.6,0,1.3,0,1.9,0C100.4,47,100.8,47.4,100.8,47.7z"/>
	<path class="st18" d="M110.3,54.2c2.3,0,4.6,0,6.9,0c-0.5,0.2-0.9,0.5-1.4,0.7c-0.1,0-0.2,0.1-0.2,0.1c-0.3,0.1-0.6,0.1-0.9,0.2
		c-1.3,0-2.6,0-3.9,0c-0.2,0-0.3,0-0.4-0.2C110.3,54.6,110.3,54.4,110.3,54.2z"/>
	<path class="st20" d="M93.8,32.2c2.2,0,4.5,0,6.7,0c0,0,0,0.1,0,0.1c-0.1,0.2-0.5,0.6-0.7,0.7c-0.2,0-0.3,0.1-0.5,0.1
		c-1.8,0-3.6,0-5.4,0c-0.2,0-0.4,0-0.5-0.2c0.1-0.2,0.2-0.4,0.2-0.5C93.8,32.3,93.8,32.2,93.8,32.2z"/>
	<path class="st21" d="M107.6,25.1c-1.9,0-3.8,0-5.7,0c0.5-0.3,1-0.4,1.5-0.5c0.8-0.2,1.6-0.4,2.4-0.5c0.3,0,0.6-0.1,0.9-0.1
		c0.3,0,0.6,0,0.9-0.1C107.6,24.3,107.6,24.7,107.6,25.1z"/>
	<path class="st21" d="M110.3,54.9c1.8,0,3.5,0,5.3,0c-0.4,0.2-0.9,0.3-1.3,0.5c-0.8,0.3-1.7,0.4-2.6,0.5c-0.5,0.1-1,0.1-1.4,0.1
		C110.3,55.6,110.3,55.2,110.3,54.9z"/>
	<path class="st22" d="M103,52.7c-0.3,0.2-0.6,0.4-0.9,0.6c0,0.1,0.1,0.1,0.2,0.2c0,0.1-0.1,0.1-0.2,0.1c-0.8,0-1.6,0.1-2.4,0
		c-0.1,0-0.2-0.1-0.3-0.1c-0.4-0.2-0.7-0.5-1.1-0.7c0.1-0.2,0.2-0.2,0.3-0.2c1.4,0,2.7,0,4.1,0C102.7,52.5,102.9,52.5,103,52.7z"/>
	<path class="st22" d="M114.6,27.2c0.4-0.3,0.7-0.5,1.1-0.7c0.1,0,0.2-0.1,0.3-0.1c0.7,0,1.5-0.1,2.2,0.1c0.4,0.2,0.8,0.5,1.1,0.7
		c-0.1,0.2-0.2,0.2-0.3,0.2c-1.3,0-2.7,0-4,0C114.8,27.4,114.7,27.4,114.6,27.2z"/>
	<path class="st23" d="M101.3,31.4c-2.3,0-4.7,0-7,0c0-0.2,0.1-0.3,0.2-0.4c2.4,0,4.8,0,7.2,0C101.7,31.4,101.6,31.5,101.3,31.4z"/>
	<path class="st24" d="M115,25.8c-0.8-0.5-1.6-1-2.4-1.5c1.5,0.3,3,0.8,4.4,1.5c0,0.1-0.1,0.1-0.2,0.1C116.2,26,115.6,26.1,115,25.8
		z"/>
	<path class="st25" d="M99.3,53.4c1,0,2,0,2.9,0c0.4,0.2,0.7,0.4,1,0.7c0,0.1-0.1,0.1-0.2,0.1c-0.8,0-1.7,0.1-2.5-0.1
		C100.1,53.9,99.7,53.7,99.3,53.4z"/>
	<path class="st26" d="M100.5,54.1c0.9,0,1.8,0,2.7,0c0.4,0.2,0.8,0.5,1.1,0.7c-0.1,0.1-0.2,0.1-0.3,0.2c-0.7,0-1.4,0-2-0.1
		C101.6,54.6,101,54.4,100.5,54.1z"/>
	<path class="st27" d="M103,52.7c-1.6,0-3.2,0-4.8,0c-0.2-0.1-0.3-0.2-0.4-0.4c1.9,0,3.8,0,5.7,0C103.3,52.5,103.2,52.6,103,52.7z"
		/>
	<path class="st27" d="M114.6,27.2c1.6,0,3.1,0,4.7,0c0.2,0.1,0.3,0.2,0.5,0.4c-1.9,0-3.8,0-5.7,0C114.3,27.5,114.4,27.3,114.6,27.2
		z"/>
	<path class="st28" d="M115,25.8c0.7,0,1.4,0,2,0c0.4,0.2,0.8,0.4,1.1,0.7c-0.8,0-1.6,0-2.4,0c0.1-0.1,0-0.2-0.1-0.2
		C115.5,26.1,115.3,26,115,25.8z"/>
	<path class="st29" d="M102.1,54.8c0.8,0,1.5,0,2.3,0c0.5,0.3,0.9,0.6,1.4,0.9c-1-0.1-1.9-0.3-2.8-0.6
		C102.7,55.1,102.4,55,102.1,54.8z"/>
	<path class="st0" d="M53.5,12.7c-0.1-0.7-0.2-1.3-0.6-1.9c-0.2-0.5-0.6-0.8-0.9-1.2c-0.6-0.8-1.5-1.3-2.4-1.7
		c-1.2-0.5-2.4-0.6-3.6-0.6c-1.4,0-2.9,0-4.3,0c-0.3,0-0.4-0.1-0.4-0.4c0-1.3,0-2.5,0-3.8c2.8,0,5.6,0,8.5,0c0-0.9,0-1.8,0-2.7
		c-4,0-7.9,0-11.9,0c0.1,0.1,0.1,0.3,0.1,0.4c0,6,0,12,0,18.1c0,0.1,0,0.3,0,0.4c0.1,0,0.2,0,0.3,0c2.4,0,4.9,0,7.3,0
		c0.8,0,1.7,0,2.5-0.2c1.6-0.2,2.9-0.9,3.9-2.1c0.4-0.4,0.7-0.9,0.9-1.4C53.4,14.7,53.5,13.7,53.5,12.7z M49.7,14.4
		c-0.5,1.1-1.3,1.7-2.4,2c-0.5,0.1-1.1,0.2-1.6,0.2c-1.3,0-2.6,0-4,0c-0.3,0-0.3-0.1-0.3-0.4c0-2,0-3.9,0-5.9c0-0.2,0-0.3,0-0.4
		c1.6,0,3.2,0,4.8,0c0.9,0,1.7,0.2,2.5,0.8C49.7,11.8,50.3,13,49.7,14.4z"/>
	<path class="st0" d="M19.5,19.1c-0.6-1.5-1.2-3-1.8-4.5c-0.8-2-1.5-3.9-2.3-5.8C14.7,7,14,5.3,13.3,3.6c-0.4-1.1-0.8-2.1-1.3-3.1
		c-1.5,0-3,0-4.5,0c0,0.1,0,0.1,0,0.2C7.2,1.2,7,1.8,6.7,2.4C6.1,4,5.5,5.5,4.9,7.1C4.8,7.3,4.7,7.3,4.6,7.3c-0.7,0-1.4,0-2.2,0
		c-0.2,0-0.6-0.1-0.7,0C1.5,7.5,1.6,7.8,1.6,8.1c0,0.6,0,1.3,0,1.9c0.6,0,1.2,0,1.8,0c0.2,0,0.3,0,0.2,0.2c-0.2,0.5-0.4,0.9-0.6,1.4
		C2.5,13,2,14.4,1.4,15.8C1,17,0.5,18.2,0,19.3c1.1,0,2.2,0,3.2,0c0.1,0,0.2-0.1,0.2-0.2c0.7-1.8,1.4-3.7,2.1-5.5
		c0.4-1.2,0.9-2.3,1.4-3.5C6.9,10,7,10,7.1,10c1.7,0,3.3,0,5,0c0.1,0,0.2,0,0.2,0.2c0.5,1.3,1,2.6,1.5,3.9c0.6,1.7,1.3,3.4,1.9,5.1
		c0,0.1,0.1,0.2,0.3,0.2c1.1,0,2.2,0,3.3,0C19.5,19.3,19.6,19.3,19.5,19.1z M8.1,7.3c0.5-1.4,1.1-2.7,1.7-4.1
		c0.5,1.4,1.1,2.7,1.6,4.1C10.2,7.3,9.1,7.3,8.1,7.3z"/>
	<path class="st0" d="M124,18.5c-1-2.6-2-5.1-3.1-7.6c-1.4-3.5-2.8-7-4.2-10.4c-1.5,0-3,0-4.5,0c-0.2,0.6-0.4,1.1-0.7,1.7
		c-0.7,1.7-1.3,3.3-2,4.9c-0.1,0.2-0.1,0.2-0.3,0.2c-0.8,0-1.7,0-2.6,0c-0.2,0-0.3,0.1-0.3,0.3c0,0.8,0,1.6,0,2.4c0.6,0,1.3,0,2,0
		c-1.2,3.1-2.5,6.2-3.7,9.3c1.1,0,2.1,0,3.2,0c0.2,0,0.2-0.1,0.3-0.2c0.6-1.6,1.2-3.1,1.8-4.7c0.6-1.4,1.1-2.9,1.7-4.3
		c0-0.1,0.1-0.2,0.2-0.2c1.7,0,3.3,0,5,0c0.1,0,0.2,0,0.3,0.2c0.2,0.6,0.4,1.2,0.7,1.7c0.5,1.2,0.9,2.4,1.4,3.6
		c0.5,1.2,0.9,2.4,1.4,3.6c0.1,0.2,0.1,0.2,0.3,0.2c1.1,0,2.1,0,3.2,0c0.1,0,0.2,0,0.3-0.1C124.2,19,124.1,18.8,124,18.5z M113,7.3
		c-0.3,0-0.2-0.2-0.1-0.2c0.3-0.8,0.6-1.6,1-2.4c0.2-0.5,0.4-0.9,0.6-1.4c0.5,1.4,1.1,2.7,1.6,4.1C115,7.3,114,7.3,113,7.3z"/>
	<path class="st0" d="M190,11.9c-0.2-0.9-0.7-1.6-1.3-2.3c-0.7-0.9-1.6-1.4-2.6-1.8c-1-0.3-2.1-0.5-3.2-0.5c-1.5,0-2.9,0-4.4,0
		c-0.3,0-0.4-0.1-0.4-0.4c0-2,0-4.1,0-6.1c0-0.1,0-0.3-0.1-0.4c-1.1,0-2.2,0-3.4,0c0,4.2,0,8.4,0,12.6c0,2,0,4,0,6
		c0,0.2,0,0.3,0.3,0.3c1.5,0,2.9,0,4.4,0c1.8,0,3.7,0.1,5.5-0.2c0.7-0.1,1.4-0.4,2.1-0.7c0.7-0.4,1.2-0.9,1.8-1.5
		c0.6-0.6,1-1.4,1.3-2.2C190.3,13.8,190.3,12.8,190,11.9z M186.2,15.1c-0.7,0.9-1.6,1.4-2.7,1.5c-0.9,0.1-1.8,0-2.6,0.1
		c-0.9,0-1.7,0-2.5,0c-0.2,0-0.3-0.1-0.3-0.3c0-2,0-4,0-6c0-0.3,0.1-0.3,0.3-0.3c1.5,0,2.9,0,4.4,0c0.9,0,1.7,0.2,2.5,0.7
		C186.8,11.7,187.3,13.5,186.2,15.1z"/>
	<path class="st0" d="M35.9,5c-0.1-0.8-0.3-1.5-0.7-2.1c-0.9-1.3-2.3-2-3.8-2.3c-0.3-0.1-0.7-0.1-1-0.2c-3,0-6.1,0-9.1,0
		c0,0.4,0,0.8,0,1.2c0,5.8,0,11.6,0,17.3c0,0.2,0.1,0.3,0.3,0.3c0.9,0,1.8,0,2.8,0c0.3,0,0.3,0,0.3-0.3c0-2.6,0-5.1,0-7.6
		c0-0.3,0.1-0.4,0.4-0.4c1.6,0,3.2,0,4.8,0c0.7,0,1.4-0.1,2.2-0.2c1.8-0.4,3-1.5,3.6-3.2C35.9,6.7,35.9,5.9,35.9,5z M30.6,8.2
		c-0.5,0.1-1,0.1-1.5,0.1c-1.4,0-2.8,0-4.2,0c-0.3,0-0.3-0.1-0.3-0.4c0-0.8,0-1.5,0-2.3c0-0.8,0-1.5,0-2.3c0-0.2,0-0.3,0.3-0.3
		c1.4,0,2.9,0,4.3,0c0.7,0,1.4,0.1,2,0.4c0.8,0.4,1.2,1.1,1.4,1.9C32.8,6.6,31.9,7.9,30.6,8.2z"/>
	<path class="st0" d="M103.7,4.6c-0.1-0.8-0.4-1.5-1-2.1c-0.9-1.1-2.2-1.6-3.5-1.9c-0.3-0.1-0.7-0.1-1-0.2c-3.1,0-6.1,0-9.2,0
		c0.1,0.1,0.1,0.3,0.1,0.4c0,6,0,12,0,18.1c0,0.1,0,0.3,0,0.4c1.1,0,2.1,0,3.2,0c0.2,0,0.3-0.1,0.3-0.3c0-2.6,0-5.1,0-7.7
		c0-0.1,0-0.2,0-0.4c0.1,0,0.2,0,0.3,0c1.7,0,3.4,0,5.1,0c0.5,0,1-0.1,1.5-0.2c1.1-0.2,2.1-0.6,2.9-1.4c0.5-0.5,0.9-1.1,1.1-1.7
		C103.8,6.7,103.8,5.7,103.7,4.6z M100.4,6.4c-0.3,1.1-1.2,1.7-2.3,1.8c-1.1,0.2-2.2,0-3.3,0.1c-0.7,0-1.4,0-2,0
		c-0.2,0-0.3-0.1-0.3-0.3c0-1.5,0-3.1,0-4.6c0-0.1,0-0.2,0-0.4c0.4,0,0.8,0,1.2,0c1.1,0,2.1,0,3.2,0c0.7,0,1.3,0.1,2,0.3
		C99.9,3.8,100.8,5.2,100.4,6.4z"/>
	<path class="st7" d="M178.5,22.4c-1.7,0-3.5,0-5.3,0c-0.4,0-0.4,0-0.4,0.4c0,5.4,0,10.8,0,16.2c0,0.1,0,0.2,0,0.4
		c-0.6-0.9-1.3-1.7-2.1-2.3c-1-0.9-2.1-1.4-3.4-1.9c-1.5-0.5-3.1-0.8-4.7-0.8c-3,0-6,0-9,0c-0.3,0-0.4-0.1-0.4-0.4
		c0-3.8,0-7.6,0-11.4c0-0.2-0.1-0.3-0.3-0.3c-1.8,0-3.5,0-5.3,0c-0.3,0-0.4,0.1-0.4,0.4c0,1.1,0,2.3,0,3.5c0,0.1,0,0.2,0,0.3
		c-0.5-0.6-1-1.2-1.7-1.7c-1-0.7-2.1-1.2-3.3-1.6c-1.7-0.6-3.5-0.8-5.4-0.8c-4.5,0-9,0-13.4,0c-0.6,0-0.5-0.1-0.5,0.5
		c0,2.7,0,5.4,0,8.1c-0.1,0.2,0.1,0.3,0.1,0.5c0.1,0.3,0.4,0.5,0.5,0.8c0.1,0.2,0.3,0.4,0.4,0.7c0.1,0.2,0.3,0.5,0.3,0.7
		c0.1,0.2,0.2,0.5,0.3,0.7c0,0.2,0.2,0.3,0.2,0.5c0.1,0.2,0.2,0.4,0.2,0.6c0,0.2,0.2,0.5,0.2,0.7c0,0.3,0.1,0.5,0.2,0.8
		c0,0.2,0.1,0.4,0.1,0.6c0,0.1,0.1,0.3,0.1,0.4c0,0.2,0.1,0.5,0.1,0.7c0,0.2,0,0.4,0,0.7c0,0.3,0.1,0.5,0.1,0.7
		c0,0.2-0.1,0.5-0.1,0.7c0,0.2,0,0.4,0,0.6c0,0.1,0,0.3,0,0.4c0,0.2-0.1,0.5-0.1,0.7c0,0.3-0.1,0.5-0.1,0.8c0,0.2-0.1,0.4-0.2,0.6
		c0,0.3-0.2,0.5-0.2,0.8c0,0.1-0.1,0.2-0.1,0.3c0,0.2-0.2,0.5-0.2,0.7c-0.1,0.2-0.2,0.5-0.3,0.7c-0.1,0.3-0.3,0.5-0.3,0.7
		c-0.1,0.2-0.3,0.4-0.4,0.7c-0.1,0.3-0.3,0.5-0.5,0.7c0,0.2-0.2,0.2-0.2,0.4c0,0.1,0,0.2,0.1,0.2c0,2,0,4.1,0,6.1
		c0,0.2,0.1,0.3,0.3,0.3c1.7,0,3.5,0,5.3,0c0.3,0,0.4-0.1,0.4-0.3c0-4.6,0-9.2,0-13.8c0-0.3,0.1-0.4,0.4-0.4c3,0,6,0,9,0
		c0.6,0,1.2,0,1.8-0.1c1.2-0.2,2.4-0.5,3.5-0.9c1.3-0.6,2.4-1.4,3.2-2.6c0.1-0.2,0.3-0.4,0.5-0.6c0,0.2,0,0.3,0,0.4
		c0,6,0,11.9,0,17.9c0,0.3,0.1,0.4,0.3,0.4c3.9,0,7.9,0,11.9,0c1.1,0,2.2,0,3.3,0c0.8-0.1,1.6-0.1,2.3-0.3c1.4-0.2,2.7-0.7,4-1.3
		c1.4-0.8,2.5-1.8,3.4-3.1c0.1-0.1,0.1-0.2,0.2-0.2c0,1.5,0,3.1,0,4.6c0,0.2,0,0.3,0.3,0.3c1.8,0,3.6,0,5.4,0c0.2,0,0.3-0.1,0.3-0.3
		c0-10.8,0-21.7,0-32.6C178.8,22.4,178.7,22.4,178.5,22.4z M142,34.5c-0.8,1.1-1.9,1.6-3.2,1.8c-1.4,0.2-2.9,0.1-4.3,0.1
		c-0.3,0-0.7,0-1,0c-1.5,0-2.9,0-4.4,0c-0.2,0-0.3-0.1-0.3-0.3c0-2.9,0-5.9,0-8.8c0-0.2,0.1-0.3,0.3-0.3c2.7,0,5.4,0,8.1,0
		c1.2,0,2.3,0.2,3.4,0.8c1.2,0.7,2,1.7,2.3,3.1C143.2,32.3,142.8,33.4,142,34.5z M168.6,45.7c-0.2,1.5-1,2.6-2.1,3.6
		c-0.8,0.7-1.8,1.1-2.8,1.3c-1.1,0.2-2.1,0.2-3.2,0.2c-2.3,0-4.6,0-6.8,0c-0.2,0-0.3-0.1-0.3-0.3c0-1.8,0-3.7,0-5.5
		c0-1.8,0-3.6,0-5.5c0-0.2,0-0.3,0.3-0.3c2.8,0,5.5,0,8.3,0c1.4,0,2.7,0.3,3.9,1.1c1,0.7,1.9,1.5,2.4,2.7
		C168.7,43.8,168.7,44.7,168.6,45.7z"/>
	<path class="st14" d="M116.8,32.2c-0.3-0.2-0.5-0.5-0.8-0.7c2.4,0,4.8,0,7.3,0c0.2,0.2,0.3,0.5,0.5,0.7c-0.1,0.2-0.3,0.2-0.5,0.2
		c-1,0-2,0-3,0c-0.9,0-1.9,0-2.8,0C117.2,32.4,117,32.3,116.8,32.2z"/>
	<path class="st15" d="M116.2,48.5c0.3-0.2,0.5-0.5,0.8-0.7c0.2-0.1,0.4-0.2,0.6-0.2c1.9,0,3.7,0,5.6,0c0.2,0,0.4-0.1,0.5,0.2
		c-0.1,0.3-0.3,0.5-0.4,0.7c-0.2,0.1-0.3,0.2-0.5,0.2c-2,0-4.1,0-6.1,0C116.5,48.6,116.4,48.7,116.2,48.5z"/>
	<path class="st30" d="M118,33.6c-0.2-0.2-0.4-0.5-0.6-0.7c0.1-0.2,0.3-0.2,0.5-0.2c1.1,0,2.2,0,3.2,0c0.8,0,1.6,0,2.3,0
		c0.2,0,0.4,0,0.6,0.2c0.1,0.2,0.2,0.5,0.3,0.7c-0.1,0.2-0.3,0.2-0.5,0.2c-1.2,0-2.3,0-3.5,0c-0.6,0-1.2,0-1.8,0
		C118.4,33.8,118.2,33.7,118,33.6z"/>
	<path class="st31" d="M117.7,47.1c0.1-0.3,0.3-0.5,0.5-0.7c0.2-0.1,0.3-0.2,0.5-0.2c1.8,0,3.6,0,5.3,0c0.2,0,0.3,0,0.4,0.2
		c-0.1,0.2-0.2,0.5-0.4,0.7c-0.1,0.1-0.3,0.2-0.5,0.2c-1.9,0-3.7,0-5.6,0C117.9,47.2,117.7,47.3,117.7,47.1z"/>
	<path class="st32" d="M118,33.6c2.1,0,4.3,0,6.4,0c0.1,0.2,0.3,0.5,0.3,0.7c-0.1,0.2-0.3,0.2-0.5,0.2c-1.3,0-2.6,0-3.9,0
		c-0.4,0-0.9,0-1.3,0c-0.2,0-0.4,0-0.5-0.2C118.3,34.1,118.1,33.9,118,33.6z"/>
	<path class="st33" d="M119.7,36.9c-0.1-0.3-0.2-0.5-0.3-0.8c0.1-0.2,0.2-0.2,0.3-0.2c1.7,0,3.4,0,5.1,0c0.2,0,0.3,0,0.4,0.2
		c0.1,0.2,0.2,0.5,0.2,0.8c-0.1,0.2-0.2,0.2-0.3,0.2c-1.7,0-3.3,0-5,0C119.9,37,119.8,37,119.7,36.9z"/>
	<path class="st34" d="M119.6,43.3c0-0.3,0.1-0.5,0.2-0.8c0.1-0.1,0.2-0.2,0.4-0.2c1.7,0,3.3,0,5,0c0.1,0,0.3,0,0.4,0.2
		c0,0.3-0.1,0.5-0.1,0.8c-0.1,0.1-0.2,0.2-0.4,0.2c-1.7,0-3.3,0-5,0C119.9,43.4,119.7,43.4,119.6,43.3z"/>
	<path class="st19" d="M124.1,32.9c-2.2,0-4.5,0-6.7,0c-0.2-0.2-0.4-0.5-0.6-0.7c2.3,0,4.6,0,6.9,0C123.9,32.4,124,32.7,124.1,32.9z
		"/>
	<path class="st35" d="M124.5,46.4c-2.1,0-4.2,0-6.3,0c0.2-0.2,0.3-0.5,0.5-0.7c0.1-0.1,0.3-0.2,0.4-0.2c1.8,0,3.6,0,5.3,0
		c0.1,0,0.3,0,0.3,0.2C124.7,45.9,124.5,46.1,124.5,46.4z"/>
	<path class="st20" d="M117.7,47.1c2.1,0,4.3,0,6.4,0c-0.1,0.2-0.2,0.5-0.4,0.7c-2.2,0-4.5,0-6.7,0
		C117.2,47.5,117.4,47.3,117.7,47.1z"/>
	<path class="st36" d="M125.3,36.1c-2,0-3.9,0-5.8,0c-0.2-0.2-0.2-0.5-0.3-0.7c0.1-0.2,0.3-0.2,0.5-0.2c1.4,0,2.7,0,4.1,0
		c0.3,0,0.6,0,0.9,0c0.2,0,0.3,0,0.4,0.2C125.2,35.6,125.2,35.8,125.3,36.1z"/>
	<path class="st37" d="M119.1,44.6c0.1-0.2,0.2-0.5,0.3-0.7c0.1-0.1,0.3-0.2,0.5-0.2c1.7,0,3.3,0,5,0c0.2,0,0.3,0,0.4,0.2
		c-0.1,0.2-0.2,0.5-0.2,0.7c-0.1,0.1-0.3,0.2-0.4,0.2c-1.7,0-3.4,0-5.2,0C119.4,44.7,119.2,44.8,119.1,44.6z"/>
	<path class="st38" d="M125.6,42.5c-1.9,0-3.8,0-5.7,0c0-0.2,0.1-0.5,0.1-0.7c0.1-0.1,0.3-0.2,0.5-0.2c1.6,0,3.2,0,4.8,0
		c0.2,0,0.3,0,0.4,0.2C125.7,42,125.6,42.2,125.6,42.5z"/>
	<path class="st39" d="M120,38.6c0-0.2-0.1-0.5-0.1-0.7c0.1-0.1,0.2-0.2,0.4-0.2c1.7,0,3.3,0,4.9,0c0.2,0,0.3,0,0.4,0.2
		c0.1,0.2,0.1,0.5,0.1,0.7c-0.1,0.2-0.2,0.2-0.3,0.2c-1.6,0-3.3,0-4.9,0C120.3,38.7,120.1,38.7,120,38.6z"/>
	<path class="st40" d="M120.1,40.7c0-0.2,0-0.5,0.1-0.7c0.1-0.1,0.2-0.2,0.4-0.2c1.6,0,3.2,0,4.9,0c0.2,0,0.3,0,0.4,0.2
		c0,0.2-0.1,0.5-0.1,0.7c-0.1,0.1-0.2,0.2-0.4,0.2c-1.6,0-3.2,0-4.9,0C120.3,40.9,120.2,40.9,120.1,40.7z"/>
	<path class="st41" d="M125.8,40c-1.9,0-3.8,0-5.6,0c0-0.2,0-0.5-0.1-0.7c0.1-0.1,0.2-0.2,0.4-0.2c1.6,0,3.2,0,4.9,0
		c0.2,0,0.3,0,0.4,0.2C125.7,39.5,125.8,39.7,125.8,40z"/>
	<path class="st42" d="M124.7,45.6c-2,0-4.1,0-6.1,0c0.1-0.2,0.2-0.5,0.4-0.7c0.1-0.1,0.2-0.1,0.4-0.1c1.8,0,3.6,0,5.3,0
		c0.1,0,0.3,0,0.4,0.2C124.9,45.2,124.9,45.4,124.7,45.6z"/>
	<path class="st43" d="M120.1,40.7c1.9,0,3.8,0,5.6,0c0,0.2,0,0.5,0,0.7c-0.1,0.1-0.3,0.2-0.5,0.2c-1.6,0-3.2,0-4.9,0
		c-0.2,0-0.3,0-0.4-0.2C120.1,41.2,120.1,41,120.1,40.7z"/>
	<path class="st44" d="M125.7,39.3c-1.9,0-3.8,0-5.6,0c0-0.2,0-0.5-0.1-0.7c1.9,0,3.8,0,5.7,0C125.8,38.8,125.7,39,125.7,39.3z"/>
	<path class="st45" d="M125.1,35.4c-2,0-4,0-6,0c-0.1-0.2-0.2-0.4-0.3-0.6c0.1-0.2,0.3-0.2,0.5-0.2c1.3,0,2.6,0,4,0
		c0.4,0,0.8,0,1.2,0c0.2,0,0.3,0,0.5,0.2C124.9,35,125,35.2,125.1,35.4z"/>
	<path class="st46" d="M125.3,43.9c-2,0-3.9,0-5.9,0c0.1-0.2,0.2-0.4,0.2-0.6c1.9,0,3.9,0,5.8,0C125.4,43.5,125.3,43.7,125.3,43.9z"
		/>
	<path class="st47" d="M119.7,36.9c1.9,0,3.9,0,5.8,0c0.1,0.2,0.1,0.4,0.1,0.6c-0.1,0.1-0.2,0.2-0.3,0.2c-1.7,0-3.3,0-5,0
		c-0.1,0-0.3,0-0.4-0.2C119.7,37.3,119.8,37.1,119.7,36.9z"/>
	<path class="st48" d="M124.9,34.8c-2,0-4.1,0-6.1,0c-0.1-0.2-0.2-0.3-0.2-0.4c2.1,0,4.1,0,6.2,0C124.8,34.5,124.8,34.6,124.9,34.8z
		"/>
	<path class="st23" d="M116.2,48.5c2.3,0,4.7,0,7.1,0c-0.1,0.1-0.1,0.2-0.2,0.4c-2.4,0-4.8,0-7.2,0C116,48.7,116.1,48.6,116.2,48.5z
		"/>
	<path class="st49" d="M125,45c-2,0-4,0-6,0c0-0.1,0.1-0.2,0.1-0.4c2,0,4,0,6,0C125.1,44.7,125,44.9,125,45z"/>
	<path class="st50" d="M119.9,37.5c1.9,0,3.8,0,5.7,0c0.1,0.1,0.1,0.2,0.1,0.4c-1.9,0-3.8,0-5.7,0C119.9,37.7,119.9,37.6,119.9,37.5
		z"/>
	<path class="st51" d="M120,41.4c1.9,0,3.8,0,5.7,0c0,0.1,0,0.2-0.1,0.4c-1.9,0-3.8,0-5.7,0C120,41.6,120,41.5,120,41.4z"/>
	<path class="st7" d="M93.7,47.2c-0.1-0.1-0.1-0.2-0.1-0.3c-0.1-0.2-0.3-0.5-0.3-0.7c-0.1-0.3-0.2-0.5-0.3-0.8
		c0-0.2-0.1-0.3-0.2-0.4c0-0.2-0.2-0.4-0.2-0.6c0-0.2-0.2-0.5-0.2-0.8c0-0.3-0.1-0.5-0.2-0.8c0-0.3-0.1-0.6-0.2-0.9
		c0-0.3-0.1-0.5-0.1-0.8c0-0.2,0-0.5,0-0.7c0-0.2,0-0.5,0-0.7c0-0.2,0-0.5,0-0.7c0-0.2,0.1-0.5,0.1-0.7c0-0.1,0-0.3,0-0.4
		c0-0.2,0.1-0.5,0.1-0.7c0-0.3,0.1-0.5,0.2-0.8c0-0.2,0.1-0.4,0.1-0.6c0.1-0.2,0.2-0.5,0.2-0.7c0-0.1,0.1-0.2,0.1-0.4
		c0.1-0.2,0.2-0.5,0.2-0.7c0.1-0.2,0.2-0.5,0.3-0.7c0.1-0.3,0.2-0.5,0.3-0.8c0-0.1,0.1-0.2,0.1-0.3c0.1-0.1,0.1-0.2,0-0.3
		c0-3.2,0-6.3,0-9.5c0-0.4,0-0.4-0.4-0.4c-8.6,0-17.2,0-25.8,0c-0.7,0-0.7,0-0.7,0.7c0,0.7,0,1.4,0,2c-0.9-0.4-1.7-0.8-2.6-1.2
		c-1.1-0.5-2.3-1-3.6-1.3c-0.6-0.2-1.2-0.2-1.8-0.3c-0.3-0.1-0.7-0.2-1-0.2c-0.8,0-1.7,0-2.5-0.1c-0.6-0.1-1.2,0.1-1.9,0.1
		c-0.7,0-1.4,0.1-2,0.3c-1.4,0.3-2.8,0.7-4.1,1.3c-2,0.9-3.7,2-5.3,3.5c-0.8,0.7-1.4,1.4-2,2.3c-0.8,1.3-1.5,2.7-1.9,4.2
		c-0.5,1.6-0.6,3.2-0.7,4.8c0,0.9,0,1.8,0.1,2.7c0.1,0.9,0.2,1.7,0.4,2.6c0.3,1.4,0.8,2.8,1.5,4c0.4,0.7,0.8,1.3,1.3,1.9
		c0.7,0.8,1.4,1.5,2.2,2.1c1,0.8,2.1,1.5,3.2,2.1c0.7,0.4,1.5,0.7,2.3,1c1,0.4,2.1,0.7,3.2,0.8c0.5,0.1,1.1,0.2,1.6,0.2
		c0.7,0,1.3,0.1,2,0.1c0.2,0,0.5,0,0.7,0c0.3,0,0.6,0,0.9,0c1.2-0.2,2.3-0.4,3.5-0.7c1.7-0.4,3.4-1,4.9-1.8c0.5-0.2,0.9-0.5,1.4-0.8
		c0,1,0,1.9,0,2.8c0,0,0,0,0.1,0c1.9,0,3.8,0,5.7,0c0.2,0,0.3-0.1,0.3-0.3c0-1.9,0-3.7,0-5.6c0-7.4,0-14.7,0-22.1
		c0-0.4,0-0.4,0.4-0.4c4.8,0,9.6,0,14.3,0c0.3,0,0.4,0.1,0.4,0.4c0,9.2,0,18.4,0,27.7c0,0.1,0,0.2,0,0.4c0.1,0,0.2,0,0.3,0
		c1.7,0,3.5,0,5.3,0c0.3,0,0.4-0.1,0.4-0.4c0-2.5,0-5,0-7.5C93.9,47.5,93.8,47.4,93.7,47.2z M66.7,48.4c-0.2-0.2-0.4-0.5-0.6-0.8
		c-0.1-0.2-0.2-0.2-0.4-0.1c-1.2,0.7-2.3,1.4-3.6,2c-1.5,0.7-3,1.2-4.6,1.5c-1,0.2-2.1,0.3-3.1,0.2c-1.7-0.1-3.3-0.5-4.8-1.3
		c-0.6-0.4-1.2-0.8-1.8-1.2c-1.4-1.1-2.3-2.6-3-4.2c-0.5-1.1-0.9-2.3-1.1-3.6c-0.1-0.8-0.2-1.7-0.2-2.5c0-1.2,0.2-2.3,0.5-3.5
		c0.4-1.2,1-2.3,1.7-3.4c0.8-1.1,1.7-2,2.7-2.8c1.1-0.8,2.3-1.4,3.6-1.7c0.8-0.2,1.7-0.4,2.5-0.4c0.3,0,0.7-0.1,1,0
		c1.3,0,2.6,0.2,3.9,0.6c1.4,0.4,2.7,0.9,4,1.6c0.8,0.4,1.7,0.8,2.4,1.4c0.3-0.4,0.5-0.7,0.8-1.2C66.7,35.6,66.7,42,66.7,48.4z"/>
	<path class="st47" d="M97.6,42.1c0.1,0.3,0.2,0.7,0.2,1c-0.1,0.2-0.2,0.2-0.3,0.2c-1.7,0-3.3,0-5,0c-0.2,0-0.3-0.1-0.4-0.2
		c0-0.3-0.2-0.6-0.1-1c0.1-0.2,0.2-0.2,0.3-0.2c1.7,0,3.3,0,4.9,0C97.4,41.9,97.5,41.9,97.6,42.1z"/>
	<path class="st30" d="M99.5,46.3c0.2,0.2,0.4,0.5,0.5,0.7c-2.2,0-4.4,0-6.6,0c-0.1-0.2-0.3-0.5-0.3-0.7c0.1-0.2,0.3-0.2,0.5-0.2
		c1.1,0,2.3,0,3.4,0c0.6,0,1.3,0,1.9,0C99.2,46.2,99.4,46.2,99.5,46.3z"/>
	<path class="st31" d="M99.9,32.8c-0.1,0.3-0.4,0.5-0.5,0.7c-0.2,0.1-0.4,0.2-0.6,0.2c-1.8,0-3.5,0-5.3,0c-0.2,0-0.3,0-0.4-0.2
		c0.1-0.3,0.2-0.5,0.4-0.7C95.6,32.8,97.8,32.8,99.9,32.8z"/>
	<path class="st52" d="M99.5,46.3c-2.1,0-4.3,0-6.4,0c-0.2-0.2-0.2-0.5-0.3-0.7c0.1-0.1,0.2-0.2,0.4-0.2c1.8,0,3.6,0,5.4,0
		c0.2,0,0.3,0.1,0.5,0.2C99.2,45.8,99.4,46.1,99.5,46.3z"/>
	<path class="st33" d="M92.1,43c1.9,0,3.9,0,5.8,0c0.1,0.3,0.2,0.5,0.3,0.8C98.1,44,98,44,97.8,44c-1.7,0-3.4,0-5.1,0
		c-0.2,0-0.3,0-0.4-0.2C92.2,43.6,92.1,43.3,92.1,43z"/>
	<path class="st34" d="M97.9,36.6c0,0.3-0.2,0.5-0.2,0.8c-0.1,0.1-0.3,0.2-0.5,0.2c-1.6,0-3.2,0-4.8,0c-0.2,0-0.3,0-0.4-0.2
		c0.1-0.3,0.1-0.5,0.2-0.8c0.1-0.1,0.2-0.2,0.4-0.2c1.7,0,3.3,0,5,0C97.6,36.5,97.8,36.5,97.9,36.6z"/>
	<path class="st35" d="M93.1,33.5c2.1,0,4.2,0,6.3,0c-0.2,0.2-0.3,0.5-0.5,0.7c-0.2,0.1-0.3,0.2-0.5,0.2c-1.7,0-3.5,0-5.2,0
		c-0.2,0-0.3,0-0.4-0.2C92.9,34,93,33.8,93.1,33.5z"/>
	<path class="st53" d="M92.3,43.8c2,0,3.9,0,5.9,0c0.1,0.2,0.2,0.5,0.3,0.7c-0.1,0.2-0.3,0.2-0.5,0.2c-1.4,0-2.8,0-4.2,0
		c-0.3,0-0.6,0-0.9,0c-0.2,0-0.3,0-0.4-0.2C92.4,44.3,92.4,44.1,92.3,43.8z"/>
	<path class="st37" d="M98.4,35.3c-0.1,0.2-0.2,0.5-0.3,0.7c-0.2,0.1-0.3,0.2-0.5,0.2c-1.7,0-3.3,0-4.9,0c-0.2,0-0.3,0-0.4-0.2
		c0-0.3,0.1-0.5,0.2-0.7c0.1-0.1,0.3-0.2,0.5-0.2c1.7,0,3.4,0,5.1,0C98.1,35.2,98.3,35.1,98.4,35.3z"/>
	<path class="st38" d="M92,37.4c1.9,0,3.8,0,5.7,0c-0.1,0.2-0.1,0.5-0.2,0.7c-0.1,0.1-0.2,0.2-0.4,0.2c-1.6,0-3.2,0-4.9,0
		c-0.1,0-0.3,0-0.4-0.2C91.8,37.9,92,37.7,92,37.4z"/>
	<path class="st54" d="M97.6,42.1c-1.9,0-3.8,0-5.7,0c-0.1-0.2-0.1-0.5-0.1-0.7c0.1-0.1,0.2-0.2,0.4-0.2c1.6,0,3.2,0,4.9,0
		c0.2,0,0.3,0,0.4,0.2C97.6,41.6,97.6,41.8,97.6,42.1z"/>
	<path class="st55" d="M97.4,39.2c0,0.2,0,0.5,0,0.7c-0.1,0.1-0.2,0.2-0.4,0.2c-1.6,0-3.2,0-4.9,0c-0.2,0-0.3,0-0.4-0.2
		c0-0.2,0-0.5,0-0.7c0.1-0.1,0.2-0.2,0.4-0.2c1.6,0,3.2,0,4.9,0C97.2,39.1,97.3,39.1,97.4,39.2z"/>
	<path class="st41" d="M91.8,39.9c1.9,0,3.8,0,5.6,0c0,0.2,0,0.5,0,0.7c-0.1,0.1-0.2,0.2-0.4,0.2c-1.6,0-3.2,0-4.8,0
		c-0.2,0-0.3,0-0.4-0.2C91.8,40.4,91.8,40.2,91.8,39.9z"/>
	<path class="st42" d="M92.8,34.3c2,0,4.1,0,6.1,0c-0.1,0.2-0.2,0.5-0.4,0.7c-0.1,0.1-0.3,0.2-0.5,0.2c-1.7,0-3.4,0-5.1,0
		c-0.2,0-0.3,0-0.4-0.2C92.7,34.7,92.7,34.5,92.8,34.3z"/>
	<path class="st43" d="M97.4,39.2c-1.9,0-3.8,0-5.6,0c0-0.2,0-0.5,0.1-0.7c0.1-0.1,0.2-0.2,0.4-0.2c1.6,0,3.3,0,4.9,0
		c0.1,0,0.3,0,0.4,0.2C97.5,38.8,97.5,39,97.4,39.2z"/>
	<path class="st44" d="M91.8,40.7c1.9,0,3.8,0,5.6,0c0,0.2,0.1,0.4,0.1,0.7c-1.9,0-3.8,0-5.6,0C91.8,41.1,91.8,40.9,91.8,40.7z"/>
	<path class="st45" d="M92.5,44.6c2,0,4,0,6,0c0.2,0.2,0.2,0.4,0.3,0.6c-0.1,0.2-0.3,0.2-0.5,0.2c-1.3,0-2.6,0-3.9,0
		c-0.4,0-0.9,0-1.3,0c-0.2,0-0.3,0-0.5-0.2C92.6,45,92.5,44.8,92.5,44.6z"/>
	<path class="st46" d="M92.3,36c2,0,3.9,0,5.9,0c-0.1,0.2-0.2,0.4-0.2,0.6c-1.9,0-3.8,0-5.7,0C92.1,36.4,92.2,36.2,92.3,36z"/>
	<path class="st48" d="M92.7,45.2c2,0,4.1,0,6.1,0c0.1,0.2,0.2,0.3,0.3,0.4c-2.1,0-4.2,0-6.3,0C92.8,45.4,92.7,45.3,92.7,45.2z"/>
	<path class="st49" d="M92.6,35c2,0,4,0,6,0c0,0.1-0.1,0.3-0.2,0.4c-2,0-4,0-6,0C92.5,35.2,92.5,35.1,92.6,35z"/>
	<path class="st51" d="M97.5,38.5c-1.9,0-3.8,0-5.7,0c0-0.1,0-0.2,0.1-0.4c1.9,0,3.8,0,5.6,0C97.5,38.3,97.6,38.4,97.5,38.5z"/>
</g>
</svg>
