<svg id="Слой_1" data-name="Слой 1" xmlns="http://www.w3.org/2000/svg" xmlns:xlink="http://www.w3.org/1999/xlink" viewBox="0 0 619 173">
  <defs>
    <style>
      .cls-1 {
        fill: #fff;
      }

      .cls-2 {
        fill: none;
      }

      .cls-3 {
        clip-path: url(#clip-path);
      }

      .cls-4 {
        mask: url(#mask);
      }

      .cls-5 {
        fill: url(#Безымянный_градиент_7);
      }

      .cls-6 {
        mask: url(#mask-2);
      }

      .cls-7 {
        fill: url(#Безымянный_градиент_8);
      }
    </style>
    <clipPath id="clip-path" transform="translate(-223 -483)">
      <rect class="cls-2" x="223" y="483" width="619" height="173"/>
    </clipPath>
    <mask id="mask" x="324.69" y="66.59" width="48.81" height="98.08" maskUnits="userSpaceOnUse">
      <g transform="translate(-223 -483)">
        <g id="mask0_1_101" data-name="mask0 1 101">
          <path class="cls-1" d="M547.69,564.79c15.9,0,31.81,15.57,31.81,33.3s-13.74,34-31.81,34v15.2a48.86,48.86,0,0,0,0-97.72Z"/>
        </g>
      </g>
    </mask>
    <linearGradient id="Безымянный_градиент_7" data-name="Безымянный градиент 7" x1="572.09" y1="414.1" x2="572.09" y2="316.27" gradientTransform="matrix(1, 0, 0, -1, 0, 963.89)" gradientUnits="userSpaceOnUse">
      <stop offset="0" stop-color="#fff"/>
      <stop offset="0.04" stop-color="#eaebec"/>
      <stop offset="0.15" stop-color="#bdbfc1"/>
      <stop offset="0.26" stop-color="#96999b"/>
      <stop offset="0.37" stop-color="#787a7c"/>
      <stop offset="0.49" stop-color="#5e5f61"/>
      <stop offset="0.61" stop-color="#474749"/>
      <stop offset="0.73" stop-color="#2c2c2d"/>
      <stop offset="0.86" stop-color="#0f0e0f"/>
      <stop offset="1"/>
    </linearGradient>
    <mask id="mask-2" x="270.09" y="66.59" width="48.81" height="97.72" maskUnits="userSpaceOnUse">
      <g transform="translate(-223 -483)">
        <g id="mask1_1_101" data-name="mask1 1 101">
          <path class="cls-1" d="M493.09,598.45a49.09,49.09,0,0,0,48.81,48.86v-15.2c-15.91,0-31.82-15.56-31.82-33.29s13.74-34,31.82-34v-15.2A48.63,48.63,0,0,0,493.09,598.45Z"/>
        </g>
      </g>
    </mask>
    <linearGradient id="Безымянный_градиент_8" data-name="Безымянный градиент 8" x1="517.49" y1="316.58" x2="517.49" y2="414.4" xlink:href="#Безымянный_градиент_7"/>
  </defs>
  <title>logo_arbitr</title>
  <g class="cls-3">
    <g>
      <path d="M802.59,483v55H842v-7.6H812.35V510.87H842v-7.6H812.35V490.6h27.84V483Zm-17.72,55h9.77V483h-9.77Zm-19.52-10.85c-2.17,2.17-5.06,3.25-9,3.25H742.93V510.87h13.38a13.52,13.52,0,0,1,9,2.89c1.81,2.17,2.89,4,2.89,6.52v.36A9.76,9.76,0,0,1,765.35,527.16ZM742.93,483h-9.76v55h23.5c7.23,0,12.29-1.81,15.91-5.43S778,525,778,520.64v-.36a16.17,16.17,0,0,0-5.06-11.58c-3.61-3.62-8.68-5.43-15.55-5.43H742.57V483Zm-18.8,55V483h-9.76v20.27h-25V483h-9.76v20.27h-4.34v7.6h4.34V538h9.76V510.87h25V538Zm-137.76,0,10.85,1.09,15.19-23.53.72-1.08.72-1.09c1.09-1.08,1.81-1.45,2.53-2.17a7.12,7.12,0,0,1,2.9-.36h6.87V538h9.76V510.87h6.87a10.71,10.71,0,0,1,3.61.72,7.47,7.47,0,0,1,2.9,2.9l.36.36.36.36,15.19,23.53L676,537.65l-21-31.49a8,8,0,0,0-1.81-1.45,6.87,6.87,0,0,0-2.89-1.08l-1.45-.36h-1.44L667.72,483H656.16l-19.89,20.27V483h-9.76v20.27L605.9,483H594.69l19.89,20.27h-1.09l-1.08.36a25.26,25.26,0,0,0-2.9,1.08,4,4,0,0,0-1.8,1.45Zm-24.58-34.74H552L557.09,491Zm-28.2,7.6h5.78L528.52,538h9.76l10.49-27.14h15.55L574.8,538h10.85L564,483h-13l-8,20.27h-9.39Zm-40.5-4.71V490.6h13.38c3.25,0,5.78.72,7.59,2.53a7.54,7.54,0,0,1,2.53,5.43,7.14,7.14,0,0,1-2.17,5.07c-1.45,1.45-4,2.17-6.87,2.17H493.09ZM483.33,483v55h9.76V513.76h14.46q9.23,0,14.1-4.34A16.43,16.43,0,0,0,526,497.84,12.48,12.48,0,0,0,520.57,487c-3.62-2.53-8.68-4-14.83-4Zm-4,7.6V483h-45.2v7.6h17.72v47h9.76v-47ZM429.45,538V483h-9.76l-26,27.51V483H383.9v55h9.76v-15.2l26-27.87V538Zm-64-10.85c-2.17,2.17-5.07,3.25-9,3.25h-13V510.87h13a13.54,13.54,0,0,1,9,2.89,8.22,8.22,0,0,1,3.25,6.52v.36A8.79,8.79,0,0,1,365.46,527.16ZM333.64,483v55H357.5q10.85,0,16.27-5.43t5.43-11.94v-.72a10.63,10.63,0,0,0-1.45-5.79,36.33,36.33,0,0,0-4.7-5.8c-3.62-3.25-8.68-5.06-15.55-5.06H343.4V490.6h25V483Zm-39.05,23.16V490.6h13c3.61,0,6.14.72,7.59,2.53a7.54,7.54,0,0,1,2.53,5.43,7.14,7.14,0,0,1-2.17,5.07c-1.45,1.45-4,2.17-6.87,2.17h-14.1ZM285.19,483v55H295V513.76h14.46q9.22,0,14.11-4.34a16.46,16.46,0,0,0,4.33-11.58A12.45,12.45,0,0,0,322.43,487c-3.61-2.53-8.68-4-14.82-4Zm-28.93,20.27H246.14L251.2,491Zm-28.56,7.6h6.15L223,538h9.76l10.49-27.14H258.8L269.28,538h10.85l-22.06-55h-13l-8,20.27h-9.4Z" transform="translate(-223 -483)"/>
      <path d="M738.23,644.06h17.36V547.42H738.23Zm-34-13.76H681.1v-34h23.5c6.87,0,12.3,1.81,15.91,5.07s5.79,7.24,5.79,11.58v.36c0,4.35-1.81,8-5.42,11.58C716.9,628.49,711.47,630.3,704.24,630.3ZM681.1,547.42H663.75v96.64h41.58q19,0,28.2-9.78a27.13,27.13,0,0,0,4.34-5.06V598.09c-6.51-11.94-19.53-15.2-31.46-15.2H680.74V547.42Zm-71.22,40.9V560.81H633c6.14,0,10.48,1.45,13.37,4.35a12.22,12.22,0,0,1,4.34,9.77,13,13,0,0,1-4,9.05c-2.54,2.53-6.87,4-12.3,4H609.88Zm-17-40.9v96.64h17V601.71h25.67c10.84,0,19.88-2.17,24.22-8l4-5.07V560.09a27.56,27.56,0,0,0-5.42-5.79c-6.51-4.71-15.19-6.88-26-6.88ZM496.7,644.06V547.42H417.88v96.64h17V560.81h44.47v82.88H496.7ZM359,621.25a40.09,40.09,0,0,1-8.68-25.69,35,35,0,0,1,9.76-25,33.55,33.55,0,0,1,25-10.5,46.73,46.73,0,0,1,14.46,2.53,79.68,79.68,0,0,1,15.91,7.6l2.53-3.62V555.75c-2.89-1.45-5.42-2.9-8.67-4.35a35.28,35.28,0,0,0-7.23-2.53c-2.54-.72-4.34-1.09-5.79-1.45s-2.53-.36-4-.72h-7.95c-13.74,0-25.31,4-35.8,12.67S332.55,580,332.55,595.92c0,16.65,5.43,29,15.91,37.28a54.64,54.64,0,0,0,35.08,12.3h5.06a75.06,75.06,0,0,0,29.28-9.41V624.51l-2.53-3.26a83.55,83.55,0,0,1-17,8.69c-2.89,1.09-5.42,1.45-7.59,2.17a55,55,0,0,1-7.23.73C373.05,632.11,365.1,628.49,359,621.25Z" transform="translate(-223 -483)"/>
      <g class="cls-4">
        <path class="cls-5" d="M596.5,550H547.69v97.72H596.5Z" transform="translate(-223 -483)"/>
      </g>
      <g class="cls-6">
        <path class="cls-7" d="M541.9,549.59H493.09v97.72H541.9Z" transform="translate(-223 -483)"/>
      </g>
      <path class="cls-1" d="M541.54,573.12l24.59-16.29-24.59-15.92Z" transform="translate(-223 -483)"/>
      <path class="cls-1" d="M549.49,623.06l-24.94,16.29,24.94,16.29Z" transform="translate(-223 -483)"/>
      <path d="M541.18,573.48V540.55l25.31,16.28Z" transform="translate(-223 -483)"/>
      <path d="M549.49,622.7V656l-25.31-16.65Z" transform="translate(-223 -483)"/>
    </g>
  </g>
</svg>
