<svg xmlns="http://www.w3.org/2000/svg" version="1.1" xmlns:xlink="http://www.w3.org/1999/xlink" xmlns:svgjs="http://svgjs.dev/svgjs" width="1920" height="1000" preserveAspectRatio="none" viewBox="0 0 1920 1000"><g mask="url(&quot;#SvgjsMask1582&quot;)" fill="none"><rect width="1920" height="1000" x="0" y="0" fill="rgba(250, 250, 250, 1)"></rect><rect width="480" height="480" clip-path="url(&quot;#SvgjsClipPath1583&quot;)" x="977.7" y="210.9" fill="url(&quot;#SvgjsPattern1584&quot;)" transform="rotate(39.68, 1217.7, 450.9)"></rect><path d="M473.45 938.1 L453.49 751.08L343.76629590085474 964.2937040991453z" stroke="rgba(229, 229, 229, 1)" stroke-width="2.67" stroke-dasharray="3, 3"></path><path d="M707.02 1220.7 L698.5 1042.48L583.3548485684012 1250.995151431599z" fill="rgba(229, 229, 229, 1)"></path><path d="M1292.52 1055.25 L1077.25 998.4200000000001L1326.249532202772 885.4704677972281z" fill="rgba(221, 217, 217, 1)"></path><rect width="72" height="72" clip-path="url(&quot;#SvgjsClipPath1585&quot;)" x="1489.89" y="79.47" fill="url(&quot;#SvgjsPattern1586&quot;)" transform="rotate(229.93, 1525.89, 115.47)"></rect><rect width="360.36" height="360.36" clip-path="url(&quot;#SvgjsClipPath1587&quot;)" x="1185.01" y="-99.66" fill="url(&quot;#SvgjsPattern1588&quot;)" transform="rotate(53.08, 1365.19, 80.52)"></rect><path d="M1948.98 574.44 L1908.8799999999999 710.48L1878.7855277988574 592.3155277988577z" stroke="rgba(221, 217, 217, 1)" stroke-width="1.46" stroke-dasharray="2, 2"></path><rect width="164.64" height="164.64" clip-path="url(&quot;#SvgjsClipPath1589&quot;)" x="107.01" y="318.43" fill="url(&quot;#SvgjsPattern1590&quot;)" transform="rotate(111.62, 189.33, 400.75)"></rect><rect width="84" height="84" clip-path="url(&quot;#SvgjsClipPath1591&quot;)" x="591.36" y="77.45" fill="url(&quot;#SvgjsPattern1592&quot;)" transform="rotate(54.01, 633.36, 119.45)"></rect></g><defs><mask id="SvgjsMask1582"><rect width="1920" height="1000" fill="#ffffff"></rect></mask><pattern x="0" y="0" width="6" height="6" patternUnits="userSpaceOnUse" id="SvgjsPattern1584"><path d="M3 1L3 5M1 3L5 3" stroke="rgba(229, 229, 229, 1)" fill="none" stroke-width="1"></path></pattern><clipPath id="SvgjsClipPath1583"><circle r="120" cx="1217.7" cy="450.9"></circle></clipPath><pattern x="0" y="0" width="6" height="6" patternUnits="userSpaceOnUse" id="SvgjsPattern1586"><path d="M0 6L3 0L6 6" stroke="rgba(229, 229, 229, 1)" fill="none"></path></pattern><clipPath id="SvgjsClipPath1585"><circle r="18" cx="1525.89" cy="115.47"></circle></clipPath><pattern x="0" y="0" width="13.86" height="13.86" patternUnits="userSpaceOnUse" id="SvgjsPattern1588"><path d="M0 13.86L6.93 0L13.86 13.86" stroke="rgba(229, 229, 229, 1)" fill="none"></path></pattern><clipPath id="SvgjsClipPath1587"><circle r="90.09" cx="1365.19" cy="80.52"></circle></clipPath><pattern x="0" y="0" width="13.72" height="13.72" patternUnits="userSpaceOnUse" id="SvgjsPattern1590"><path d="M6.86 1L6.86 12.72M1 6.86L12.72 6.86" stroke="rgba(221, 217, 217, 1)" fill="none" stroke-width="3.94"></path></pattern><clipPath id="SvgjsClipPath1589"><circle r="41.16" cx="189.33" cy="400.75"></circle></clipPath><pattern x="0" y="0" width="6" height="6" patternUnits="userSpaceOnUse" id="SvgjsPattern1592"><path d="M3 1L3 5M1 3L5 3" stroke="rgba(221, 217, 217, 1)" fill="none" stroke-width="1.86"></path></pattern><clipPath id="SvgjsClipPath1591"><circle r="21" cx="633.36" cy="119.45"></circle></clipPath></defs></svg>