<svg xmlns="http://www.w3.org/2000/svg" version="1.1" xmlns:xlink="http://www.w3.org/1999/xlink" xmlns:svgjs="http://svgjs.dev/svgjs" width="1920" height="1000" preserveAspectRatio="none" viewBox="0 0 1920 1000"><g mask="url(&quot;#SvgjsMask11957&quot;)" fill="none"><rect width="1920" height="1000" x="0" y="0" fill="rgba(108, 140, 199, 1)"></rect><path d="M1078.25 1049.65 L912.8900000000001 1178.01L1090.0603778979691 1208.3203778979691z" stroke="rgba(119, 155, 223, 1)" stroke-width="1.65" stroke-dasharray="2, 2"></path><circle r="83.33333333333333" cx="36.68" cy="519.07" fill="rgba(119, 155, 223, 1)"></circle><path d="M764.78 363.23 L842.52 497.86L741.6525182014245 492.54248179857547z" fill="rgba(152, 179, 229, 1)"></path><rect width="172.92000000000002" height="172.92000000000002" clip-path="url(&quot;#SvgjsClipPath11958&quot;)" x="1218.35" y="718.14" fill="url(&quot;#SvgjsPattern11959&quot;)" transform="rotate(28.91, 1304.81, 804.6)"></rect><circle r="135.654185166162" cx="1379.5" cy="90.62" stroke="rgba(152, 179, 229, 1)" stroke-width="2.3" stroke-dasharray="3, 3"></circle><path d="M845.01 849.31L834.96 857.24 825.01 849.18 814.96 857.11 805.01 849.04 794.96 856.97 785.01 848.9M845.07 841.32L835.01 849.25 825.07 841.18 815.01 849.11 805.07 841.04 795.01 848.97 785.07 840.9M845.13 833.32L835.07 841.25 825.13 833.18 815.07 841.11 805.13 833.04 795.07 840.97 785.13 832.9" stroke="rgba(119, 155, 223, 1)" stroke-width="2.46" stroke-dasharray="3, 2"></path><rect width="60" height="60" clip-path="url(&quot;#SvgjsClipPath11960&quot;)" x="1432.92" y="402.31" fill="url(&quot;#SvgjsPattern11961&quot;)" transform="rotate(348.74, 1462.92, 432.31)"></rect><rect width="306.68" height="306.68" clip-path="url(&quot;#SvgjsClipPath11962&quot;)" x="-58.74" y="631.1" fill="url(&quot;#SvgjsPattern11963&quot;)" transform="rotate(127.91, 94.6, 784.44)"></rect><rect width="133.8" height="133.8" clip-path="url(&quot;#SvgjsClipPath11964&quot;)" x="604.97" y="780.83" fill="url(&quot;#SvgjsPattern11965&quot;)" transform="rotate(53.94, 671.87, 847.73)"></rect></g><defs><mask id="SvgjsMask11957"><rect width="1920" height="1000" fill="#ffffff"></rect></mask><pattern x="0" y="0" width="7.86" height="7.86" patternUnits="userSpaceOnUse" id="SvgjsPattern11959"><path d="M0 7.86L3.93 0L7.86 7.86" stroke="rgba(152, 179, 229, 1)" fill="none"></path></pattern><clipPath id="SvgjsClipPath11958"><circle r="43.230000000000004" cx="1304.81" cy="804.6"></circle></clipPath><pattern x="0" y="0" width="60" height="6" patternUnits="userSpaceOnUse" id="SvgjsPattern11961"><rect width="60" height="3" x="0" y="0" fill="rgba(152, 179, 229, 1)"></rect><rect width="60" height="3" x="0" y="3" fill="rgba(0, 0, 0, 0)"></rect></pattern><clipPath id="SvgjsClipPath11960"><circle r="15" cx="1462.92" cy="432.31"></circle></clipPath><pattern x="0" y="0" width="13.94" height="13.94" patternUnits="userSpaceOnUse" id="SvgjsPattern11963"><path d="M6.97 1L6.97 12.94M1 6.97L12.94 6.97" stroke="rgba(119, 155, 223, 1)" fill="none" stroke-width="1"></path></pattern><clipPath id="SvgjsClipPath11962"><circle r="76.67" cx="94.6" cy="784.44"></circle></clipPath><pattern x="0" y="0" width="13.38" height="13.38" patternUnits="userSpaceOnUse" id="SvgjsPattern11965"><path d="M0 13.38L6.69 0L13.38 13.38" stroke="rgba(152, 179, 229, 1)" fill="none"></path></pattern><clipPath id="SvgjsClipPath11964"><circle r="33.45" cx="671.87" cy="847.73"></circle></clipPath></defs></svg>