<svg xmlns="http://www.w3.org/2000/svg" version="1.1" xmlns:xlink="http://www.w3.org/1999/xlink" xmlns:svgjs="http://svgjs.dev/svgjs" width="1920" height="1000" preserveAspectRatio="none" viewBox="0 0 1920 1000"><g mask="url(&quot;#SvgjsMask36319&quot;)" fill="none"><circle r="107.39710932959836" cx="264.69" cy="414.49" fill="rgba(193, 211, 245, 1)"></circle><rect width="655.32" height="655.32" clip-path="url(&quot;#SvgjsClipPath36320&quot;)" x="1050.74" y="179.17" fill="url(&quot;#SvgjsPattern36321&quot;)" transform="rotate(2.16, 1378.4, 506.83)"></rect><circle r="83.33333333333333" cx="1654.27" cy="950.31" stroke="rgba(152, 179, 229, 0.7)" stroke-width="1.73"></circle><rect width="289.96" height="289.96" clip-path="url(&quot;#SvgjsClipPath36322&quot;)" x="504.02" y="593.67" fill="url(&quot;#SvgjsPattern36323&quot;)" transform="rotate(161.46, 649, 738.65)"></rect><rect width="124.2" height="124.2" clip-path="url(&quot;#SvgjsClipPath36324&quot;)" x="1398.51" y="260.59" fill="url(&quot;#SvgjsPattern36325&quot;)" transform="rotate(132.53, 1460.61, 322.69)"></rect><rect width="588" height="588" clip-path="url(&quot;#SvgjsClipPath36326&quot;)" x="1244.76" y="552.42" fill="url(&quot;#SvgjsPattern36327&quot;)" transform="rotate(284.3, 1538.76, 846.42)"></rect><rect width="504" height="504" clip-path="url(&quot;#SvgjsClipPath36328&quot;)" x="760.14" y="440.21" fill="url(&quot;#SvgjsPattern36329&quot;)" transform="rotate(304.72, 1012.14, 692.21)"></rect><circle r="111.2407849713467" cx="1908.87" cy="924.39" stroke="rgba(193, 211, 245, 1)" stroke-width="1.92" stroke-dasharray="4, 4"></circle><rect width="300" height="300" clip-path="url(&quot;#SvgjsClipPath36330&quot;)" x="1568.31" y="798.95" fill="url(&quot;#SvgjsPattern36331&quot;)" transform="rotate(227.41, 1718.31, 948.95)"></rect></g><defs><mask id="SvgjsMask36319"><rect width="1920" height="1000" fill="#ffffff"></rect></mask><pattern x="0" y="0" width="655.32" height="7.62" patternUnits="userSpaceOnUse" id="SvgjsPattern36321"><rect width="655.32" height="3.81" x="0" y="0" fill="rgba(152, 179, 229, 0.7)"></rect><rect width="655.32" height="3.81" x="0" y="3.81" fill="rgba(0, 0, 0, 0)"></rect></pattern><clipPath id="SvgjsClipPath36320"><circle r="163.83" cx="1378.4" cy="506.83"></circle></clipPath><pattern x="0" y="0" width="13.18" height="13.18" patternUnits="userSpaceOnUse" id="SvgjsPattern36323"><path d="M0 13.18L6.59 0L13.18 13.18" stroke="rgba(193, 211, 245, 1)" fill="none"></path></pattern><clipPath id="SvgjsClipPath36322"><circle r="72.49" cx="649" cy="738.65"></circle></clipPath><pattern x="0" y="0" width="12.42" height="12.42" patternUnits="userSpaceOnUse" id="SvgjsPattern36325"><path d="M0 12.42L6.21 0L12.42 12.42" stroke="rgba(152, 179, 229, 0.7)" fill="none"></path></pattern><clipPath id="SvgjsClipPath36324"><circle r="31.05" cx="1460.61" cy="322.69"></circle></clipPath><pattern x="0" y="0" width="588" height="6" patternUnits="userSpaceOnUse" id="SvgjsPattern36327"><rect width="588" height="3" x="0" y="0" fill="rgba(193, 211, 245, 1)"></rect><rect width="588" height="3" x="0" y="3" fill="rgba(0, 0, 0, 0)"></rect></pattern><clipPath id="SvgjsClipPath36326"><circle r="147" cx="1538.76" cy="846.42"></circle></clipPath><pattern x="0" y="0" width="6" height="6" patternUnits="userSpaceOnUse" id="SvgjsPattern36329"><path d="M3 1L3 5M1 3L5 3" stroke="rgba(152, 179, 229, 0.7)" fill="none" stroke-width="1"></path></pattern><clipPath id="SvgjsClipPath36328"><circle r="126" cx="1012.14" cy="692.21"></circle></clipPath><pattern x="0" y="0" width="6" height="6" patternUnits="userSpaceOnUse" id="SvgjsPattern36331"><path d="M3 1L3 5M1 3L5 3" stroke="rgba(193, 211, 245, 1)" fill="none" stroke-width="1"></path></pattern><clipPath id="SvgjsClipPath36330"><circle r="75" cx="1718.31" cy="948.95"></circle></clipPath></defs></svg>