<svg id="Слой_1" data-name="Слой 1" xmlns="http://www.w3.org/2000/svg" xmlns:xlink="http://www.w3.org/1999/xlink" viewBox="0 0 753 582">
  <defs>
    <style>
      .cls-1 {
        fill: none;
      }

      .cls-2 {
        clip-path: url(#clip-path);
      }

      .cls-3 {
        fill: #fff;
      }

      .cls-4 {
        fill: #ffcb05;
      }

      .cls-5 {
        fill: #ed1c24;
      }

      .cls-6 {
        fill: #231f20;
      }
    </style>
    <clipPath id="clip-path" transform="translate(-771 -229)">
      <rect class="cls-1" x="771" y="229" width="753" height="582"/>
    </clipPath>
  </defs>
  <title>map</title>
  <g class="cls-2">
    <g>
      <path class="cls-3" d="M1341.37,407.83l.52-.46.52-.47.23-.66.23-.66v0l1.91-5.77,4.44-5.38,14.22-1.08.75-.05.71,0,.61-.44.6-.43h0l4.46-3.24h20.32l.38-.1.38-.13,31.68-9.39,14.77,1.76,1,.1.94.12.82-.54.79-.54v0l14.57-9.71,18.56-1.64,1-.08,1-.09.68-.75.69-.76,9-9.83.45-.49.45-.51.16-.67.16-.67.64-2.8,4.72-3.08h0l.33-.21.35-.23.26-.31.26-.35,4.11-5.1.64-.78.65-.8-.07-1-.07-1-1-14.22,5.75-6.84.75-.9.76-.91-.19-1.16-.17-1.17-.6-3.74,4.77-8,.35-.59.35-.59,0-.7,0-.69.19-8.81,3.65-2.85.09-.05.1-.11,4.62-3.77,2.17-1.78,2.18-1.77-1.91-2-1.92-2-3.76-4-2-3.91-1.05-2-1-2-2.14.75-2.14.77-1.17.42-.09-.09-.61-.47-.59-.47-.75-.07-.75-.09-.73-.07.16-1.39,2.49-4.56.63-1.11.61-1.13-.53-1.17-.52-1.16-1-2.25-1.5-3.36-1.5-3.36-2.66,2.51-.47.45-1-.38-4.36-1.62h0l-.19-.09-.2-.05-14.79-4.23-.68-.19-.7-.21-.71.21-.72.19-5,1.36-1.36-.36-.86-.23-.85-.23-.82.33-.8.33-8.65,3.54-1.44-.8-1.45-.8L1453,245l-.19.12-4.28-4.07-.47-.43-.47-.45L1447,240l-.61-.17-3.86-1.12-5.47-5.77-.47-.49-.47-.49-.63-.21-.62-.21-6.24-2-.94-.29-.9-.3-.89.38-.89.37-5,2.12-2.42,1-2.4,1,1,2.41,1,2.4.6,1.37-1.14.44-3,1.14,1.69,2.68,1.7,2.68,5.85,9.21.72,1.13.71,1.11,1.36.09,1.34.07,4.78.28-1.54,2.85-.53,1-.52.95.35,1.07.33,1.06,2,6.23,0,0,.21.69.23.7.54.47.54.47,6,5.22,1.28,2.84.27.61.26.59.56.42.54.4,1,.74.72.53.71.54h.66l.44,1.06.19.47.17.43-.14.12-.13.91-.14.9-.8,4.84-.93,1.25-1.36-2.19-2.33,2.66-2.33,2.67-.52.59-.23-.25-2.77-2.94-.36-2.17-.18-1.05-.17-1.06-.87-.62-.89-.65-2.23-1.6-1.9-1.37-1.89-1.38-1.57,1.76-1.55,1.74-4.65,5.17-.9.41-1.27.61-1.29.6-.19,1.37-.21,1.39-.11.73-.24-.08-3.2-1-3.22-1-.19,3.37-.18,3.39-.09,1.64-1.32.66-.64.31-.66.32-.4.61-.41.61-2.17,3.34h-8.11l-.77.8-.78.8-.3.33-.66-.3-1.25-.57-1.19.73-1.18.71-11.32,7-.61.37-.62.38-.33.64-.33.65-3.12,6-.33.67-.35.64,0,.75.06.73v.23l-.55-.41-2.41-1.72-1.93-5.95.11-3.2v-.82l0-.8-.44-.68-.33-.52,1.69-1.29,1.76-1.37,1.77-1.38-1.09-1.95-1.08-1.94-1.24-2.25-1.18-2.12-1.19-2.13-2.19,1-2.19,1-12,5.6-.45.23-.47.21-.34.34-.33.37-5.85,6.21-.17.19-.17.18-.11.17-.12.17-2,3-2.82,3.28-1.16,1.34-1.15,1.34.62,1.22-1.63.45-.52.14-.51.16-.42.33-.42.33-8.68,7-2.77.51-.87.15-.87.16-.58.63-.59.62-3.23,3.48-.51.54-.5.56-.14.71-.16.71-.23,1.15-2.76,3.15h0l-.16.18-.14.15-.1.18-.72-.63-1.7,1.51-1.73,1.52-4.47,4-.1.11-.14.12,0,0-1.06,1.1-1.05-.64-1.08-.68-1.08-.68-1.2.45-1.2.45-3,1.12-3.07,1.15-3.06,1.14,1.81,2.74,1.79,2.73,1.33,2-.39.47-1.25-2.71-2.65,2.88-2.64,2.91-2.61,2.85-1.1,1.2-1.1,1.22.59,1.52.61,1.51,1.17,2.91-1.55,7.55-.09.4-.07.38,0,.4,0,.38.84,8.25-1.65.09-.65,0-.64,0-.54.33-.54.31-2.73,1.62-5.58-1.53-.67-.18-.68-.19-.66.18-.68.17-1.19.31-1.84-2-.14-2.74-.09-1.54-.09-1.57-1.41-.66-1.42-.66-5.66-2.65-.12-.08-.16-.07-4.18-1.85,1-1.34,1.37-1,1.07-.76,1.06-.73,0-1.31.06-1.3v-1l.86-.51,2.38-.35h.14l.19,0,.21-.07.23-.07,4.47-1.36.59-.19.61-.17.42-.42.44-.4.81-.76,2.58-.07,2.07-.06,2.06-.05.43-2,.42-2,.75-3.48.36-1.7.37-1.71-1.45-1-1.46-1-1.34-.91-.1-2.16-.07-1.32-.07-1.32-1.12-.73-1.11-.72-3.29-2.14-1.36-5.25-.14-.52-.14-.53-.33-.43-.35-.44-4.23-5.36-1-1.25-1-1.27-1.57.33-1.56.33-3.76.79-3.08-1.34-.7-.3-.7-.3-.73.11-.71.1-8.76,1.34-11-2.95-1.58-.42-1.6-.44-1.07,1.27-1.07,1.26-2.74,3.23-1.9,2.25-1.89,2.24,2.45,1.6,2.46,1.62,7.31,4.8,3.17,8.09-1.19,3.26-.4,1.08-.4,1.08.54,1,.54,1,1.41,2.68-4.32,16.2,0,.11,0,.12v.12l0,.12-1.38,7.95-.52,3.05-.52,3H1230l1.38,3.22-2,3.78-.83,1.53-.84,1.53,1.11,1.36,1.14,1.36.22.27v0l-.21.8-.19.8-2,8-1,2-6.34-4.89-.75-.59-.76-.58-.94,0-1,.05-4.16.17-5-2.68-1.52-.81-1.51-.8-1.34,1.06-1.34,1.08-7.85,6.21-.11.08-.12.09-.18.19-.15.19-6.39,6.9-7.5,1.32-1,.17-1,.18-.63.85-.62.83-6.2,8.36-6.3,3.68-.91.53-.89.52-.29,1-.28,1-2,6.84-.29,1-.28,1,.44.88.43.89,2.37,4.86.09.15.06.16.11.17.09.13,4.52,6.78.18,1.62-3.36-.07-1.83-.05-1.81,0-.66,1.69-.66,1.71-.86,2.17-6.75-5.25,6.89-4.21-8.41-.44-8.4-.43-2.46-.13-4.39-5.69-.29-.36-.28-.37-.38-.26-.4-.24-10.08-6.33-2.27-1.43-2.26-1.43-1.36,2.3L1116,461l-2.34,3.92-1.56-.42-2.13-.57-.92,2-.9,2-1.62,3.6-.56,1.24-.56,1.21.7,1.17.7,1.16,4.1,6.88,5.52,11.17,1,2.05,1,2,2.16-.73,2.16-.73,2.38-.8.45,1.35.18.49.15.47.32.38.29.35h0l1.81,2.18-.19.27-.13.2H1128l-.5-.06-.51.18-.5.15-4.42,1.45-4.11-2.79-.51-.34-.5-.33-.59-.09-.58-.09-6.37-.92-.56-.42.27-1.51.2-1.31.21-1.28-.92-.94-.92-.94-8.1-8.22-1.27-1.28-1.27-1.29-1.65.73-1.64.75-1.22.54-1.74-1-.42-.87-.71-1.53-.05-.08.42-.47-.56-1.46-.58-1.47-.19-.5.8-.71.91-.81.89-.78,0-1.2,0-1.2-.12-5.22,0-.92,0-.92-.59-.72-.59-.69-.66-.8,1.13-1.5,1.3-1.72-1.42-1.6-1.45-1.59-.84-.94,4-4.17.61-.65.63-.64.09-.91.08-.88.46-4.49,2-7.48.31-1.17.31-1.15-.68-1-.69-1v0l-8.22-11.94-.38-.55-.39-.56-.6-.3-.61-.29-4.58-2.26,1.08-1.62.8-1.2.68.47,2,1.37.77.52.75.53.88-.07.91-.07,3.1-.21,9.28,8.75,1,.94,1,.94,1.34-.28,1.34-.3,2.61-.55,9.91,5.9,1.18.69,1.17.72,1.25-.58,1.24-.57.34-.16,11.53,7.71.52.37.54.34.61.09.63.07,8.58,1,.17,0,.19,0h13.23l.53-.23.52-.24,7.69-3.41,2.39.22,1.41.16,1.39.14.89-1.12.89-1.11,1.79-2.24,1.18-.25.68-.14.66-.15.54-.47.53-.47,6-5.34.87-.79.88-.78v-2.49l6.06-7.5.58-.73.57-.71v-5.62l2.18-7.61.47-1.7.49-1.71-1.43-1.08-1.45-1.08-1.65-1.25,1.11-12.42.09-1.08.1-1.08-.69-.83-.7-.82-4.73-5.61-1.27-1.49-1.26-1.48-1.23.54-.51-.72-8.58-12.68-4.77-7.07-4.77-7v11.22l-1.9-2.07-.92-1-.92-1-1.34.17-.84.12-7.52-11.53-.5-.77-.49-.76-.87-.28-.87-.3-1.59-.54-14.64-16.79-1.29-2.57-.8-1.62-.81-1.62-1.78.19-1.11.12-1.48-2.1-1.52-2.16-1.53-2.18-2.14,1.57-1.31.94-2-.71-1.25-.44-1.24-.43-1.08.74-.8.54-7.88-4.4-.51-.28-.5-.28-.54-.05-.56,0h0l-4.85-.4-1.62-2.79-1.6-2.78-1.2,1.08-1.15-1.31-1.22-1.37,1.49-1.6,1-1.1,1-1.09-.43-1.43-.44-1.41-2-6.6h0l-.47-1.55-.46-1.53-1.58-.28-1.6-.28-1.27-.23v-1.88l-1-.78-1-.8h0l-6.34-5-1.83-1.42-1.81-1.43-1.63,1.64-1.62,1.63-2.37,2.35-1,1.05-.28.26-.08,0-.09.19-.59.59.12.51-.42,1-.15.37-.93-1.92-2-4.1-2-4.11-2.54,3.79L1057.3,274l-2,3-.48.73-.2.3-.55-.47-1.57-1.29-1.64,1.2-1.63,1.2L1046,281l-1.78,1.29-1.75,1.3,1,2,.11.19-2.06,1.65-7.43,3.73-.61.29-.59.3-.39.55-.36.53-4.84,7-1-.77-2-1.57-2-1.56-1.62,2-1.61,2-1.61,2-1.07,1.32-1.08,1.32.79,1.5.76,1.51,1.19,2.32-1.62,3.39-.07.16-.09.17,0,.14-.06.12-3.23,9.59-.18.52-.17.53,0,.5.06.52.22,2.79-.22,5.55-.06,1.34-.07,1.34,1.07.81,1.06.82,6.61,5.15v.05l-.06.44-.05.43.11.47.1.46L1024.1,357l.3,1.36.19.8-3.64,2.42-.28.17-.24.16-.23.26-.21.23-9.71,10.56-.33.37-.32.34-.17.44-.17.43-3,7.33-.31.77-.3.74.18.8.19.8,2,8.6.16.61,4.47,20,.72,10-1.67-.52-2.72-.85-.61,2.8-.61,2.78-.92,4.16-4.16,6.23-.73,1.1-.72,1.09.44,1.22.43,1.22,1.15,3.27-4.16,6.7-1.18,1.93-1.2,1.91,1.74,1.45,1.76,1.46,3.25,2.68v0L1000.3,471l-.68,1.73-.66,1.74,1.41,1.2,1.41,1.18,4.2,3.55-.68,3.9-.75.41h0l-.26.16-.26.14-.21.17-.19.18h0l-6.72,5.85L995,492.83l-1.9,1.65,1.58,2,1.59,1.95,11.07,13.67.16.21.17.21.23.18.19.15v0l2.61,2.12.4,2.42.09.44.07.41.22.42.19.37,1.74,3.13-3.29,5.1-.07.12-.08.14v0l-2.61,4.67-21.66,21.87-17.91,13.78-.28.21-.28.21-.23.29-.2.3-2.43,3.2-5.72,3.76-.23.14-.24.17-.19.2-.23.22-4.25,4.35-2.68,1.34-.19.09-.16.08-.21.14-.15.13-4.53,3.25-7.8,4.38-.49.27-.46.27-.34.46-.34.45-5.73,7.71-1.24,1.68-1.25,1.68,1.37,1.56,1.36,1.58,1.62,1.87,1.05,1.2,1,1.2,1.54-.37,1.53-.36,5.08-1.19-.23,1.12,1,1,1,1,3.27,3.38.91,3.29.19.73.19.71.54.5.54.51,1.88,1.77,1.88,2.32.26.33-1,0-.78.75-.79.75-.92.89-.91-.18v0l-1-.19-.39-.07-.69-.68-.77-.77h-7.45l-.8,1-.05.07-.4-.59-1.14-1.64-1.86.66-1.88.65-2.85,1-2.07.73-2.06.71.21,1.36-.64.42-3.08.26-1.19.1-1.22.11-.69,1-.72,1-1.62,2.28-13.12.59-2.91-.87-.85-.26-.85-.26-.86.33-.83.33-4,1.55-1.41-.49-1.46-.5-1.44-.51-1.13,1-1.15,1-3.31,3L879.32,642l-5.09-1.76-.4-.14-.42-.14h-.48l-.49,0-11.07.24-1.17,0-1.18,0-.75.87-.75.87h0l-3.14,3.62-1.93.89-.47.21-.45.21-.37.38-.34.38-4.2,4.49-3.76.51-.44,0-.43,0-.38.21-.41.19-5.39,2.7-4-1.18-1.1-.32-1.1-.33-1,.6-1,.59-10.32,6.21-.45.28-.47.28-.32.43-.31.45-3.36,4.74-.59.81-.57.82.1,1,.12,1,.25,2.07-.81.5-.85.53-.87.53-.26,1-.28,1-.94,3.29-6,2.47L798,683l-1.82.21-1.85.19-.4,1.82-.42,1.81-1.95,8.58L786.48,705l-.26.45-.25.44-.05.52-.07.5-2.11,18-.08.66-.07.68.27.64.27.65,3,7-.87,2.07-.23.53-.22.52,0,.56v.55l.32,10.25-3.43,3.79h0l-.7.78-.73.78.05,1.06,0,.51-.37.1-3,.89-3,.89,1.46,2.8,1.44,2.8.18.35-1,1.06-1.34,1.43-1.34,1.42,1,1.69,1,1.67,1.24,2.06-.37.17-1.41.64-.09,1.57v.09l-.25.08-2.24.8-2.23.8.59,2.3.59,2.3,1,3.86.41,1.6L774,789l1.62.3,1.64.31,5.64,1.06,3.34,1,.43.12.46.12.45,0,.45,0,2.39-.17,1.22.4.82.28.81.27.82-.27.8-.28,4.07-1.34,3.3.45.41,0,.42.07.4-.07.38-.07,1.82-.31.85.73,1.3,1.11,1.29,1.12,1.53-.73,1.55-.75,1.9-.92,1,.47,2.39,1.09,2.36,1.1,1.1-2.4.56-1.24.68.37,1.39.73,3.6,1.86.09,1.6,0,.51,0,.52.2.43.19.44v0l.14.33v5.27l.86.79.85.78h0l1.49,1.36,1.34,1.25,1.36,1.24,1.62-.87,1.64-.86L839.1,805l2,2.15.87.94.87.94,1.26-.1,1.25-.12,5.85-.49.85-.07.84-.07.66-.57.65-.58,1.6-1.39,1.61,0,1.49-.07,1.46,0,.71-1.27.71-1.29,1.31-2.35,5.41-4,2.65-.24,1.17-.11,1.18-.1.7-.94.68-.94,1.63-2.24,6.83-3.42,1.95-1,2-1-.61-2.07L886,782.5l-.38-1.29.33-.59.28-.49.26-.49,0-.55,0-.54.13-1.38,2-2.45.46-.52.43-.52.12-.68.12-.66.21-1.15.11,0,4.89-.73,1.46,1.18.87.7.87.71,1.12-.15,1.11-.16h0l7.12-1,.14,0,2.09,3.55.64,1.1.65,1.08,1.27.17,1.27.16,3.51.45,1.62,2.37.28,4.52.11,1.55.08,1.53,1.38.66,1.39.66,5.22,2.49h0l.8.39.8.38.89-.21.89-.19,9.92-2.25,8.79,8.58v0l0,0,.07.05,2.1,2,2.27,2.12,2.24,2.11,1.71-2.58,1.71-2.57,1.42-2.16,1,.84.35.29.37.3.45.15.43.14,18.8,6.48,1.28.43,1.28.45L986,806l1.12-.8,5.34-3.92,2.94.94.4.12.4.12H997l9.52-.1,3.4,4,.62.74.61.73.93.15.92.16,12.2,2.12,2.16.37,2.14.38.75-2.07.73-2.07,1.19-3.27,4.75-2.39,5.13-1.28,2.77,3.61.51.65.48.66.77.24.78.26,12.94,4.22.38.13.4.13h.87l12.33-.14,1.63,0h1.64l.7-1.48.69-1.48,3.48-7.32.18-.37.15-.35.07-.42.06-.4.52-3.82,4.26-4.56,9.61.69,4.36,4.16.87.82.85.82,1.16-.09,1.15-.1,11.32-1,.33,0,.31,0,.35-.13.35-.12,9.57-3.48,1.43-.52,1.45-.52.24-1.5.24-1.5.75-4.47.32-1.89.33-1.9-1.73-.85-1.72-.87-7.68-3.83-1.51-.78,1.06-7.28.26-1.7.25-1.71-1.47-.89-1.48-.9-3.51-2.14-.37-3.73,0-.55,0-.54-.28-.49-.28-.47-7.33-13-.17-.33-2.08-3.93,1.31-.72,1.5-.8-.14-1.67-.12-1.67-.94-12,4.84-4.68,2.87-.58,1.58-.31,1.6-.31.42-1.59.42-1.58.24-1,.61.73.75.91,1.18,0,1.17,0,7.85.26.93,0,.92,0,.73-.55.73-.54,4.6-3.48.81-.63.68,1.6,2-.3,2-.31,1.08-.15,1.72,2.26.44.57.44.58.66.26.66.27,1.72.7,1.12,3.5.62,2,.63,1.95,2-.14,2-.14,4.32-.31,3.15,1,1.06.33,1.06.31,1-.54,1-.54,2.3-1.28,1.68.34,2,.4,2,.42.87-1.83.89-1.82,3.24-6.72v0l.55-1.16.56-1.17-.59-1.15-.45-.88,11.36-4.61,1.61-.65,1.6-.66,0-1.74,0-1.72,0-4.14,2,2.31,2.12,2.38,1.92-2.54,1.91-2.52,2.7-3.6,1.79.29.7,3.07.19.82.19.79.63.56.63.56,5.46,4.85,1.81,1.6,1.81,1.61,1.74-1.69,1.73-1.69,3-2.91,7.35,2,.7.19.69.17.7-.19.7-.19,6.18-1.77,7.31,2.85.33.12.31.12.33,0,.33,0,6.72.75.77.09.76.08.7-.34.68-.35,9.54-4.84,14-5.71,1.51-.61,1.54-.62.08-1.64.11-1.62.21-3.54,5.15-3.24,5.6,2.33,4.2,1.74,4.18,1.74-.61-4.49-.61-4.51-2.37-17.4-.24-1.84-.26-1.86-1.81-.37-1.81-.36-6.92-1.38-.57-.7,2.26-1.7.59-.45.6-.45.28-.72.26-.73,5.36-14.3.21-.56.19-.56,0-.55,0-.54-.54-6.72.28-.82,3.36-.17,2.21,2.07.26.24.25.23.27.16.28.15,5.73,3.12,2.66,1.42,2.65,1.45,1-2.84,1-2.83,1.85-5,6.33-4.93,7.77-2.2,2.3-.67,2.28-.64-.46-2.33-.43-2.33-2.49-13.31-.09-.54-.1-.54-.3-.46-.29-.43-2.88-4.23v0l-3.47-5.8,3.81-23.38,0-.16,0-.16,0-.05v-.11h0l.74-11.07.21-3,.21-3.07-3.06.3-3,.29-11.82,1.12-.45,0-.47.06-.42.19-.42.21-6.47,3.11-.66.31-.68.33-.4.61-.4.63-2.23,3.48-.65,1-.64,1,.33,1.14.31,1.11,1.1,3.83-1.22,1.89-3.41,1.22,0-1.42-2.38-.16-1.12-.07.11-4.23,0-.63v-.62l-.28-.56-.26-.57-2.33-4.82,6.11-7.9.63-.8.62-.81-.08-1-.09-1-.37-4.59-.31-3.85-.31-3.84-3.45,1.72-3.46,1.72-1.66.84-2-.79.49-2,.19-.8.21-.8-.29-.77-.32-.78-2.1-5.48-.35-.91-.35-.89-.84-.45-.83-.45-10.33-5.6h0l-.54-.3-.54-.29-.65,0h-.66l-4.21-.09-3.36-2.91,1-.69,1,.54.94.49.92.5,1-.28,1-.28,8-2.26,5,.33,1.17.07,1.18.07.84-.82.83-.83,1.62-1.62,5.8-.07.07,2.42.07,2.92,2.89-.4,2.89-.42,5.22-.74,1.53-.23,1.54-.21.54-1.46.54-1.44.62-1.68,2.4-.81,1.17-.4,1.15-.39.45-1.14.44-1.15.33-.86h5.79l.74-1.42.73-1.43.71-1.41,5.66,1.05,2.78.52,2.79.5.28-2.82.28-2.82,1-10.07.33-3.38.33-3.37-3.34.55-2.77.46-.3-.84-.29-.85-.32-.87-.76-.49-.77-.47-5.34-3.36-2.11-3.34-.94-1.51-1-1.52-1.74.34-1.74.34-1.22.23.09-.56.19-1.41-1.11-.92-1.1-.92-.07-.07.12-.82v0l.07-.38.07-.36,0-.4,0-.39-1.13-8.21,0-.28,0-.33-.09-.26-.12-.3-2.56-6.63Z" transform="translate(-771 -229)"/>
      <path class="cls-4" d="M1013.12,392.37l6.33,4,3-2.37,9,2.73,11.94,2,6.34,13.19,4,1.62,2.36-4,3.24-.36,3.36-4.48,5.61,2.25.75,3.11,6.47,3.61-2,3-6.6,2.1,7.35-.12,8.34,4.11,8.21,11.94-2.12,7.83-.51,5-5,5.22-3.6,1.24,2,2,3.36,3.73-2.37,3.11,3.36,4L1086,472l-3.48,3.12,1.5,3.86-4.74,5.48,6.35-.12,1.12,2.37,5.48,3.11,3.61-1.62,8.09,8.22-.31,1.91-1.55-.22v8.14l-2.86.28-2.64.26-1.34,2.3-2.49,4.23-1.34,2.26,1,2.4,3.12,7.27-1.34,7.15-.21,1.1.24,1,1.62,6.83.37,1.54,1.15,1.07,6.6,6.22.78.75,1.08.36,5.05,1.74,1.27,2.11.14.24,1.46,2.18-.61,1.28-.19.4-.12.45-1.38,5-.89,3.26,2.63,2.14,3.87,3.14.55,1.12.79,6.92-.91,3.22-4.23,7.1-.83,1.38-3.29.05-1.24-2.49-4.47-.24-5.73,4.47-6.22,9.83-6.8.21.08-.73-.71-1.43-3.12-6.21-1.65-3.29-3.62.44-3.36.41-4.68-2.8-2.58-1.55-2.61,1.45-3.07,1.69-1.58-1.08-.38-.26-.56-.23-3.6-1.5-1.9-.78-1.93.75-4,1.55-4.33.1-6.08.14,1.08,6,.32,1.74-1.61,1.5-6.21,5.76-1.34-1.78-2.39-.16-.45,0-.19-.54-.75-2-2-.91-4-1.76-3.13-2.24-3.13-3.13-1.75-1.74-2,.21-.72-2-2.78-.63-9.24-2.11-1-1.16-.45-.54-.63-.42L977.1,575l-.26-.17-.18-.09-5.45-2.94,18-13.87,22.26-22.51,3-5.35,5-7.71-3.24-5.84-.75-4.35-4.11-3.36-11.07-13.68,6.72-5.84,3-1.62,1.62-9.33-6.48-5.48,3.86-9.95-1.11-3.24-4.35-3.6,5.48-8.84-2-5.6,4.73-7.09,1.12-5.09,4.35,1.37,1.5-5-.87-12.44-4.74-21Zm66.44,12.32-.12-4-2-1.38-3,3.61-3.6-9-3.24-2.61.87-2.37,6-1-9.83-3.24-2.37-3.36L1060,383l-6-1.24,2.25,3.61,4,.62,2.73,4-1,2.73,5.22,6-.42,2-2.24-.9-3.71-1.48-2.41,3.18-2,2.68-1,.13-2.57.29-.51.84-4.33-9-1.19-2.45-2.66-.44-11.68-1.94-8.57-2.61-2.59-.8-2.14,1.68-.11.09-3.23-2-4.44-2.78-.33-1.39,3-7.34,9.71-10.58,9.6-6.36.36-2-4.61-1.74-2.73-11.94.38-3-9-7,.25-6-.25-3,3.24-9.57,2.73-5.73-2.36-4.61,1.62-2,3.36,2.61,3.74-1,6.21-9,8-4,5.72-4.61-1-2,3.24-2.36,5.73,4.73,2-1.74-.38-6,2-3,1.62,3.36,3.36,3.6-2.37,6,4-3.24h3l-1-3.72,1-2.37,3.6,1.38-1.38-5.61,2.37-2.36,6.35,5v3.73l5.59,1,2,6.59-3.36,3.61-8.59-3.61-2.36-4.35-2,3.36,1.74,3.6h4l-1.38,2.74h1.62l2.37,4.22,2.61-1-1,4.73,6-3.35,1.74,2-2,4v2.36L1080.82,320l5.6-4.35h2.74l3.23-5.6-2-1.38,4-3.6,1.37,2.37,7.59.63,10.71,6,2.36-1.61L1121,314l1.38-1,3.23,4.6,2.37-.25,1.62,3.24,15.93,18.29,3,1,9.33,14.3,2.74-.36,8.21,9,2.74-.63v-4l8.58,12.68-1.62,2.61,2.61,2.61,3.61-1.62,4.73,5.61-1.37,15.29,4,3-2.37,8.33v4.47l-7.2,9v2l-6,5.34-3,.63-3,3.72-3.74-.37-9,4h-11.95l-8.58-1-13.94-9.33-3,1.37-11.69-7-4.6,1-10.95-10.32-5.36.36-2-1.37,1.38-2-5.35-3.86-2.24,1.38Zm342.53-168,2.73,6.35-3.23,1.25,5.85,9.2,11,.63,1.86,6,4.35,1.74,3.36-3,4.86-6.48-7.84-7.46-5.22-1.5-6.48-6.84-6.21-2ZM1308.73,429.72l-.33-.86-3.12-.36-8.58-1-1.6-.2-1.43.75-6.09,3.24-3.42,1.81.72,3.76.47,2.47-.11.16-13.47-3.1-8-3.31-1-.4h-1.07l-5.21.12-11-5.51-.37-.18-.31-.1-10.33-3.48-.43-.14.8-3.13,2.61-2.25-3.48-4.23,3.24-6-3.73-8.7h-9.59l1.37-8L1230,373l-2.37-4.47,1.87-5.1L1225.06,352l-8.7-5.72,2.73-3.24,12.07,3.24,9.83-1.5,4.62,2,5.34-1.11,4.23,5.34,1.86,7.22,5,3.24.24,4.73,3.49,2.37L1265,372l-4.62.12-2.24,2.12-4.47,1.38-3.36.5-4.23,2.49-.13,3.85-2.12,1.49-4.11,5.73,3.6,3.6,5.35,2.37,5.85,2.73.24,4.59,5.22,5.73,4.23-1.12,7.72,2.13,4.59-2.74,4.35-.24,2.49-2.73-1.11-11.07,1.86-9.08-1.74-4.35,2.61-2.86,1.5,3.24,4.47-5.6,3.36-.25,1.26,1.87,4.35-.63-4.74-4.35-4.1-6.21,3-1.12,4.6,2.86,4-4.11,4.48-4L1309,360l3.12-5,3.72-4.23.51-2.49,3.23-3.48,4.11-.75,9.72-7.83,4-1.11,1.5,3.48,3.12,4,1.74-6.21-2.74-2.73-1.74-3.36,3.12-3.6,2.12-3.24,5.85-6.21,11.94-5.6,1.24,2.24-5.48,4.23,2.49,3.86-.13,4.11,2.74,8.46-5.23,2.61-3.11,3.84,4.11.75,3,1.24,3.73-1.87,1.11,5,2.86-7,3.48,2.49,3.12-2.11-.51-6.71,3.12-6,11.33-7,2.73,1.23,2.86-3h8.7l3.74-5.72,4.11-2,.25-4.73,3.86,1.25,1,5.1,2.49-2.73-1-3.36.75-5.1,1.86-.87,5.35-6,2.24,1.62.63,3.73,3.86,4.1-2.24,8.84,2.12,5.1,3.36-1.37,3.36,2.36,2.49-2.12-1.25-6.72-2.86-2.61,3.48-4,1,1.62,4.1-3.48,2.86-3.87,1-6.09,2.73-2.49-3-3.11-1.74-4.35h-2.49l-1-.75-1.74-3.86-6.84-6-2-6.21.72-1.32.31,1,2.3.92,4.35,1.74,3,1.2,2.4-2.14,3.36-3,.34-.29.34-.47,4.86-6.48,2.46-3.27,8.53-3.48,2.73.75,6.35-1.74,14.82,4.23,4.35,1.62-.24,3,.24,2.37,4.23-4,1,2.25-3,5.46-.87,7.59,6,.62,2.37,1.86,3.86-1.37,2.37,4.59,4.23,4.48-4.74,3.86-5.6,4.35-.25,11.33-5.72,9.57.87,5.6-7.09,8.46,1.12,16.28-4.11,5.1-6.48,4.23-1.11,4.86-9,9.83-19.91,1.74-15.69,10.45-15.8-1.86L1390.08,384H1368.8l-5.85,4.23-16.41,1.24-6.48,7.83-2.24,6.72-29.21,25.78Zm-19.08-127,14.67,5.73,7,6.23-1,8.57-3.11-3.35-2.73,3.86.74,7.71-3.6,3.72-16,.75-2.86-5.85.37-10.32.75-8.09,3.36-3.6,2.49-5.34ZM965.26,794.54,984,801l7.47-5.48,5.49,1.74,11.94-.12,5,5.85,12.2,2.1,1.86-5.22,7.23-3.6,9-2.25,4.86,6.36,12.93,4.22,12.33-.12,3.48-7.34.75-5.47,7.08-7.58,14,1,5.73,5.48,11.33-1,9.57-3.48.75-4.47-7.71-3.86-4.86-2.49,1.62-10.95-5.73-3.48-.62-6.33L1102,741.08l-4.48-8.45,4.36-2.37-1.12-14.42,7.71-7.47,4.36-.87,2.36-9-4.23-7.22-50.15,12.8-7.83,11-1.12-2.37-3.74,1.5-3.6,4.47-6.1-4.23L1032,712.2l-5,9.2-6.36,5.35-6.84,6.71-4.35,6.09-8.34,1.62-8.84,3.74-8.83,4.6-10.32,1.23-3.24,2.49-7.83,1.62,2.73,6.59-.87,5.22,3.36,4.35,3.12,6.6-2.25,6-.12,7.58-2.74,3.36Zm-178.7-38.18.12,3.48-4.22,1.24,1.86,3.6-3.48,3.72,1.86,3.12,1.86,4.1-3.72,1.74-.13,2-3.48,1.23,1,3.87,6,1.11,3.48,1,3.36-.24,2.24.75,5.23-1.74,4.47.62,4.23-.75,2.73,2.37,4.11-2,3.24,1.49,1.86-4.1-4.23-2.61,1.62-10.08,4-6.09-5.61-8-4.86-1.62-5.22,2.11L791.4,751l-4.85,5.34ZM903.29,640.44l16.55-.75,3.12-4.35,4.19-.37.16,1-.85,1.53-.94,1.69.38,1.88.71,3.58,0,0-3.88,2.08-1.1.6-.71,1-4.13,5.84-2.89,1.9-1.25.82-.63,1.34-3.36,7.2-.16.33-.13.47L906,674.6l0,.15,0,.32-1,5.34-.16.8.09.75.36,3,.13,5v.45l.07.3.62,3.69-.16.19-1.18.45-1.2.45-.87,1-.92,1.08c-6.93,8-9.72,11.16-1,19.73l3.17,9.77L902,732.23l-.32.87v19.43l.21.74.7,2.48.12,10.7v.68l-2.89.4-3.24-2.61L889.12,766l-3.49.62-.87,4.74-3.11,3.74-.25,3L880,780.6l1,3.36-8,4-2.37,3.24-4.11.37L859.1,797l-1.86,3.36-3.48.12-3,2.61-5.85.5-4.74-5.1-5.6,3-1.5-1.38V796l-.63-1.38-.24-4.61L826,786.8v-3.24l-1.34-.12,1.15-2.51-3.9-2.42-1.27-.78.89-5.55L824.9,767l1.93-3-2-2.89-5.6-7.95-1-1.39-1.65-.56-4.86-1.61-1.83-.61-1.76.71-3.22,1.3-11.43-4.87-2.21-.94-.2-6.58,1.74-4.1-3.86-9.08,2.12-18,5.47-10,2.13-9.32,4.35-.51,9.08-3.72,1.62-5.72,3.61-2.25-.63-5.34L820,665.9l10.32-6.22,6,1.74,7.23-3.6,5.6-.75,5.49-5.84,3-1.38,3.87-4.47,11.07-.24,7.22,2.48,7.09-3.86,3.74-3.36,3.24,1.12,5.73-2.25,3.72,1.12Zm12.5,22-2.42,5.19L911,676l-1,5.34.36,3.11.12,5.47,1,5.84L909.12,699l-2.61,1c-5.49,6.35-8,8.34-1.38,14.55l4.11,12.68L906.87,734v17.9l.87,3.12.12,11.45,3.24.75,3.24,5.48,5.85.75,3.72,5.48.37,6,5.22,2.49,12.69-2.86L953,795l2.13,2,4.59-7,1.45,1.18,1.6-2,.09-5.78v-.9l.33-.84,1.46-3.91-1.95-4.13-3-3.88-1.39-1.81.37-2.22.62-3.74-2.16-5.22-2.41-5.82,6.19-1.27,6.65-1.37,1.76-1.34-.76-.77-3.49-.74-1.86-4.48L962,734.61l-2.11-4.47,2.86-7.34,4.73-3.61-3.36-5.48L966,711l.13-4.23-5.61-2.49-7.47,1,.87-4.86-4.23-6,4.23-2.49-7.9-5.25-1-.68-.61-1-3.24-5.48L940,677.62l.57-2.14-1.11-1.27-.35-.4-.3-.54-.54-1-.9-.09-1-.1-.92-.5L927,667l-2.16-1.16-.38-1.93-.56.17-1.24-.25-3.23-.62-3.66-.7ZM1079.44,605l-3.11-6.21-5.1.62-6.24-3.72-5.85,3.24-4.23-2.86-3.6-1.49-4.86,1.86-5.22.12.75,4.11,6.47,3.48-3.86,2.87-6.21-2.49-10.45,9.71-3.36-4.47-3.86-.25-1.38-3.72-4.47-2-4-2.86-3.36-3.36-3.6.37-1.12-3.12-10.95-2.48-2.12-2.49L974.17,579.4,968,576l-6.48,4.23-4.85,5L953.14,587l-4.85,3.48-8,4.48-5.72,7.7,1.62,1.87,6.35-1.5,3.24-3.86,3.48-.75.63,3.36,4.47-4.35,2.11-.63-.37,4.23-1.62.75-1.86,1.86-.12,2.24-2.49,2-1.5-3.12-.63,3.12,4.23,4.35,1.24,4.59,2.12,2,2.11,2.6,7.1-.5,2.61,1.74,3.36,2.49.63,3.36,3.6,5.09-3.86.63-4.11,1.86-6.47-5.72-5.61-.12L952,632.94l-3.48-.63-1.49,1-2.61-2.61h-2.74l-3.6,4.74-3.36-4.86-2.86,1,.87,5.35L931,640l1.26,6.23-2.49,2.61-4.6,2.49-4.73,6.72,3.23.62,2.88-.87,2.36,1.5.63,3.11L938,667l3.61.36,1.86,3.36,3,3.36-.75,2.73,3.24,5.46,8.22,5.49,4.11-2.37,1-5.1,1.11-2.24,4.11.12,2.25,2.36,4.35-4.59,5.46-.24,1.26-5,2.11-1.86,3.6,2.24,3.86-4.73,2.25-2.24.87-4,3.86.63,2.86,2.12,3.24-1,1.74,1.86,1.49,6.59,3.49,2.37,6-.63.36-5.09,3.87-2.11,4,1.62,5.73-.63,3.12,4-1.5,2.73.75,3.48,6-1.24,1.5,2,6.6-1.74,2,.36,6.48,6.23,1.74-5,9.21-2.37.12-4.23,1.62-3.11.12-3.61.87-3.48-.51-3.35,2-6.09-5.47-.25-1.11-2,3.24-5.34.74-4.35.87-4.86,2.11-6.35.87-2.37-1.62-4.47,4.86-7.71,4.23-3.11.63-4.73ZM1295.51,625l.2,2.43-5.35,14.31-6.6,5,5.23,6.34,8.7,1.74,2.37,17.42-8.1-3.36-9.71,6.09-.38,6.23-14.31,5.84-9.58,4.86-6.72-.75-9-3.48-7.84,2.25-10.2-2.74-5.1,5-5.48-4.85-1.5-6.48-8.34-1.37-4.61,6.09-4.86-5.48-4.11,3.23-.12,9.84-12.57,5.09-3.74,2.37,2.12,4.11-3.23,6.71-3.61-.75-4,2.25-4.11-1.24-5.22.37-1.87-5.85-4-1.62-3.61-4.73-4.11.63-2.49-5.85-5.46,1.62.12,4.85-4.6,3.48-7.83-.24-2.23-2.71.47-1.78.56-2.09-1.1-1.87-4.23-7.23-2-3.39-3.78,1-50.15,12.81-1.85.47-1.11,1.55-2.75,3.83-.65-4.44,2.74-3.11,2.61-6,5.6-3.6-1.86-2.74-3.26.73.84-2.36.82-2.35,6.49-1.67,3.8-1,.12-3.91.09-3,1.07-2.09.53-1,0-1.22.1-3,.75-3,.25-1-.16-1-.31-2.16,1.6-4.93,2.12-6.49-5.81-.26.35-.57.17-1,.75-4.35.8-4.45,1.95-5.83.87-2.37.64-1.75-.64-1.8-.75-2.1,3-4.72,3.43-2.52,1.79-1.32.3-2.21,0-.33,7.62-.25,2.79-.08,1.48-2.35,5.74-9.07,3.12-2.43,1.2,2.41,3.26,0,4.21,0,1.22,4.28,1.6,7.24.19.85.49.77,3.06,4.9.52,6.09.4,4.79h6.37l5,6,1.53,1.83,2.39,0,8.32.12,6,.11,3.14,2,1.44.91,1.67-.12,7.09-.51.38,0,.37-.07,4.1-.87.77-.18.7-.4.69.82,1.52,1.79,2.38.06,6.72.12,3.8.07.59-1.73,1.84,3.31,4.67-7.62.07-.12,0,.19,1.6,1,4.36,2.73,1.18.75,1.41,0,6.48.24,1.6.07,1.35-.85,4.08-2.58,3.48,2.6,2.47,1.84,2.82-1.32,13.08-6.09,4-1.9-.54-1.84,4.51,1.86,1.48.61,1.52-.3,13.68-2.73,3-.61.91-3,.56-1.86.92,2,3.06.26,8.71.75,1.91.17,1.59-1.16,1.41-1,4.16,1.65.76.3.73.07,5.73.5.87.07Zm-247.06,83.42-2.26.9-1.27.51-.85,1.06-.58.69-2.12-1.47-.56-.39-.71-.24-6.48-2.24-4.18-1.45-2.1,3.9-4.51,8.33-5.61,4.72-.27.26-6.85,6.72-.33.31-.26.38-3.13,4.39-6.29,1.21-.48.09-.54.23-8.85,3.74-.38.16-8,4.15-6.86.84-2.68-2.68-1.08-1.08-1.53-.33-.8-.17-.61-1.47-1.15-5.93L967,733l-.28-.61-1.16-2.45,1.51-3.88,3.57-2.74,3.74-2.85-2.45-4-1.6-2.61.81-1.2.06-1.55.12-4.23.1-3.46-3.2-1.43-5.61-2.49-1.34-.59-1.42.19-.44.05-1.24-1.75-.95-1.36,2.09-1.24,2.21-1.3.31-2.42,2-1.15,2.09-1.2.45-2.31.3-1.5,3.05,3.2,3.77-4L976.4,681l3.38-.16,3.9-.17.94-3.76.19-.8,2.85,1.75,2.91-3.54,3.59-4.41,2.16-2.15.76-.79h0l2.12,1.59,1.6-.51.77,3.36.45,2,1.71,1.17,3.48,2.36,1.58,1.08,1.87-.19,6-.63,4.35-.45.31-4.37.11-1.51.94.38,1.2.49,1.3-.14,1.45-.16-.16.3.4,1.86.75,3.48,1.08,5.08,5.07-1.06,2.73-.57,1.6,2.16,3.38-.89,5-1.33,5.1,4.89,2.59,2.49.3.37-.45,1-2.27,5.18-2.22,2.53-1.59,1.81.35,2.38.77,5.22-.34,2Zm58.86-204.37v3l-1.25,4-6.35.63-2.49,4.23,3.74,8.7-1.62,8.7,1.62,6.84,6.6,6.21,6.84,2.37,2.24,3.72,3.12,4.59-1.86,4-1.38,5,4.74,3.86,1.49,3,1,8.84-1.38,4.86-4.61,7.71,2,7,1.62,7.35,3.74,6,.63,7.34h4l6.6,7.83,8.33.12,7.47.12,4.35,2.73,7.11-.5,4.1-.87,3.75-2.1,3.48,4.1,6.72.12,1.74-5.1,2.11-2.85L1188,630l2.73-4.47,5.1.37,1.11,3.48,4.36,2.73,6.47.24,7.09-4.47,6.35,4.72,13.07-6.09-1.23-4.23,3.48-1.86,10,4.1,13.68-2.73,2.49-8.21,5.34.24,2.11,4.73,8.71.75,3.74-2.73,6.84,2.73,5.73.51,1.74-5.22,9.09-.51,3.86,3.6,5.73,3.12,2.36-6.48,8.34-6.47,8.71-2.49L1332.44,592l-2.86-4.23-4.59-7.7,4.11-25.25.74-11.07L1318,544.87l-6.47,3.12-2.25,3.48,1.74,6.09-3.48,5.34-6.21,2.25-5.61,4.22-.12-6.09-3.73-.24.25-9.2-3.75-7.71,8.1-10.44-.37-4.6-3.74,1.87-8.46-3.24,1.62-6.48-2.11-5.48-10.32-5.6L1267,512l-5.35-4.6-4.35-1.49,1.11-3.48,8-5.22,3.72,2,8.85-2.49,5.85.37,3.11-3.12,13.08-.12.12,4.61,5.22-.74,1.5-4,4.73-1.62,1.62-4.23h6.22l2.49-4.85,9.45,1.74,1-10.08-3.74.63-1.74-5-6.36-4-2.73-4.35-8.34,1.62.87-6.35-2.37-2,.63-3.72-1.11-8.21-3.75-9.7-8.58-1-6.09,3.24.87,4.61-3.36,4.85-17.3-4-8.47-3.48-6.47.12-12.2-6.09-10.33-3.48-2.61,5.48,1.5,4.11,1.5,7.46-7-8.33-7,3.86.63-3.36,4-4.35-6.6-5.1-5.6.25-6.22-3.36-7.83,6.23-7.59,8.21-9.21,1.62-6.84,9.21-7.21,4.22-2,6.84,2.37,4.86,5.22,7.83,1,9.45h3.24l.63,4-4.48-2.49-2.85-2.24-5.85-.12-2.25,5.72-3.86.87-10.83-8.46-6.48,1.24-4.85,5,1.11-6.48,4.48-2.73-4.86-.24-5.85-7.59-10.08-6.33-4.35,7.34-3.24-.87-1.62,3.6,4.23,7.08,5.61,11.31,7.34-2.48,2.13,6.35,4.23,5.1-2.25,3.48,1.74,3.11-6.21-.5-6.84,2.24-6.22-4.23-7.71-1.11Z" transform="translate(-771 -229)"/>
      <path class="cls-5" d="M977.2,633.39a7.59,7.59,0,1,0-7.59-7.59A7.61,7.61,0,0,0,977.2,633.39Z" transform="translate(-771 -229)"/>
      <path class="cls-6" d="M1049.08,639.59h2.37v-1.67h-3.88v8.73h1.53v-7.06Zm-7.62,2.62c0-2.49.83-2.9,1.25-2.9s1.11.41,1.11,2.9c0,1.53-.27,3-1.11,3S1041.46,643.73,1041.46,642.21Zm-1.4-4.29V650h1.4v-4.29c.55,1.25,1.39,1.39,1.67,1.39,1.39,0,2.23-2.09,2.23-4.86s-.84-4.71-2.23-4.71c-.42,0-1.12.14-1.67,1.39v-1ZM1033.68,650c.27,0,.55.14,1,.14,1.39,0,1.67-1.81,1.81-2.9l1.81-9.29h-1.67l-.84,5.69-1.25-5.69h-1.81l2.23,8.59-.14.56c0,.55-.14,1.11-.7,1.11a.48.48,0,0,1-.41-.14V650Zm-4.17-7.62c0,1.95-.41,2.91-1.25,2.91-.42,0-1.11-.56-1.11-2.91s.69-3,1.11-3S1029.51,639.86,1029.51,642.35Zm0-8.59c-.13.69-.41.41-1.67.83s-2.22,1.67-2.22,6.11c0,3.18.55,6.39,2.76,6.39,1.67,0,2.63-1.81,2.63-4.86,0-2.77-1-4.71-2.51-4.71-1.11,0-1.93,1.25-2.08,2.76h-.14c.14-2.76,1-3.32,1.67-3.74,1.25-.56,2.64-.14,2.77-2.78h-1.21Zm-10,8.45c0-2.49.84-2.9,1.26-2.9s1.11.41,1.11,2.9c0,1.53-.28,3-1.11,3S1019.52,643.73,1019.52,642.21Zm-1.39-4.29V650h1.53v-4.29a1.83,1.83,0,0,0,1.53,1.39c1.54,0,2.35-2.09,2.35-4.86s-.83-4.71-2.35-4.71c-.28,0-1.11.14-1.67,1.39v-1Zm-6,3.46c.14-2.09,1-2.09,1.11-2.09.42,0,1.12.14,1.12,2.09h-2.23Zm2.21,2.77a1.32,1.32,0,0,1-1.11,1.11c-1,0-1.12-1.53-1.12-2.35h3.74v-.56c0-1-.14-4.85-2.62-4.85-1.54,0-2.77,1.81-2.77,4.71,0,4.58,2.09,4.86,2.77,4.86,1,0,2.22-.42,2.48-2.91h-1.37Zm-8.74-4.58v7.06h1.53v-7.06h1.67V637.9H1004v1.67h1.65Zm-7.22,1.81c.13-2.09,1-2.09,1.25-2.09s1,.14,1,2.09Zm2.22,2.77c-.14.69-.55,1.11-1,1.11-1.12,0-1.25-1.53-1.25-2.35h3.88v-.56c-.14-1-.14-4.85-2.65-4.85-1.67,0-2.77,1.81-2.77,4.71,0,4.58,2.09,4.86,2.63,4.86,1,0,2.23-.42,2.65-2.91h-1.52Zm-10.41-7.21h2.63v9.71h1.67V634.59h-6v12.06h1.67Zm34.42-8.73h2.91V626h-2.91Zm-5.27-3.47v7h1.53v-7h1.67v-1.81h-4.86v1.81h1.66Zm-6.39,1.67V623h-1.54v8.74H1013v-3.88l1.67,3.88h1.81l-2.23-4.58,2.09-4.16h-1.67Zm-7.35,1.53h2v3.75H1009V623h-1.39v3.33h-2V623h-1.53v8.74h1.53Zm-5.41.14c0,1.81-.7,2.23-1.12,2.23s-.83-.28-.83-1.11a1.39,1.39,0,0,1,1-1.26,3.21,3.21,0,0,0,1-.41Zm-1.81-2.21c0-1.39.69-1.53,1-1.53s.84,0,.84,1.26v.27c0,.7-.42.56-1.54.84a2.47,2.47,0,0,0-1.95,2.77c0,.69.28,2.76,1.81,2.76a2.25,2.25,0,0,0,1.68-1.39l.14.84H1002v-.14c-.28-.14-.42-.7-.28-1.67v-4c0-1-.14-3.19-2.37-3.19-.56,0-2.21,0-2.35,3.19h1.38Zm-5.28,1.67c0,.84-.28,2.23-1.39,2.23s-1.81-1.67-1.81-3.88c0-4.16,1.39-4.3,1.67-4.3s1.39.14,1.53,2.23h1.67c-.14-1.81-.69-4.44-3.18-4.44-.7,0-3.33.28-3.33,6.53,0,4.71,1.53,6.38,3.33,6.38,2.49,0,3-3,3.18-4.71h-1.67Z" transform="translate(-771 -229)"/>
    </g>
  </g>
</svg>
